<svg width="560" height="323" viewBox="0 0 560 323" fill="none" xmlns="http://www.w3.org/2000/svg">
<path d="M0 24C0 10.7452 10.7452 0 24 0H560V323H24C10.7452 323 0 312.255 0 299V24Z" fill="#F7F9FD"/>
<g clip-path="url(#clip0_967_1202)">
<path d="M325.904 151.68C313.908 147.211 313.454 137.99 301.459 133.531L287.494 139.571C299.489 144.04 299.944 153.261 311.939 157.73L325.904 151.68Z" fill="#F0F0F0"/>
<path d="M289.198 139.59C300.019 144.125 300.872 152.542 311.702 157.067L324.199 151.661C313.378 147.136 312.526 138.71 301.695 134.184L289.198 139.59ZM290.022 139.59L301.79 134.497C312.072 139.031 313.094 147.088 323.366 151.623L311.608 156.717C301.373 152.201 300.303 144.144 290.012 139.609L290.022 139.59Z" fill="#F2D5F8"/>
<path d="M305.88 149.966C304.321 149.738 302.891 148.971 301.837 147.798C301.388 147.328 301.065 146.751 300.9 146.122C300.734 145.492 300.731 144.831 300.891 144.201C301.075 143.637 301.381 143.122 301.787 142.69C302.192 142.258 302.688 141.92 303.239 141.701C306.079 140.527 309.961 141.493 311.57 143.453C312.019 143.923 312.342 144.5 312.508 145.129C312.673 145.759 312.676 146.42 312.517 147.05C312.322 147.609 312.011 148.121 311.605 148.552C311.199 148.983 310.706 149.323 310.159 149.55C308.797 150.072 307.318 150.216 305.88 149.966ZM307.452 141.531C306.055 141.293 304.62 141.434 303.295 141.938C302.794 142.156 302.344 142.476 301.972 142.876C301.601 143.277 301.316 143.751 301.137 144.267C300.989 144.851 300.991 145.463 301.144 146.045C301.296 146.628 301.593 147.163 302.008 147.599C303.57 149.493 307.376 150.44 310.103 149.313C310.63 149.073 311.102 148.727 311.488 148.295C311.875 147.863 312.167 147.355 312.346 146.804C312.453 146.243 312.423 145.664 312.258 145.117C312.093 144.569 311.799 144.07 311.4 143.661C310.371 142.514 308.975 141.76 307.452 141.531Z" fill="#F2D5F8"/>
<path d="M306.211 148.556C305.011 148.339 303.912 147.741 303.078 146.852C302.799 146.54 302.592 146.17 302.473 145.769C302.353 145.368 302.324 144.946 302.386 144.532C302.512 144.18 302.714 143.86 302.978 143.595C303.241 143.33 303.56 143.126 303.911 142.998C304.953 142.593 306.088 142.488 307.187 142.695C308.382 142.927 309.476 143.522 310.32 144.399C310.601 144.712 310.808 145.084 310.927 145.486C311.047 145.889 311.076 146.313 311.011 146.728C310.887 147.08 310.685 147.399 310.421 147.663C310.158 147.926 309.838 148.128 309.487 148.253C308.449 148.675 307.309 148.78 306.211 148.556Z" fill="#F2D5F8"/>
<path d="M310.387 154.53C311.005 154.31 311.686 154.344 312.28 154.625C312.545 154.757 312.716 154.833 312.943 154.928L319.163 152.258C319.029 152.192 318.913 152.093 318.827 151.971C318.741 151.848 318.687 151.706 318.671 151.557C318.662 151.395 318.701 151.234 318.784 151.094C318.866 150.954 318.988 150.842 319.135 150.771C317.297 149.612 315.609 148.232 314.107 146.663C314.107 146.814 314.051 146.975 314.013 147.136C313.717 147.948 313.247 148.687 312.638 149.3C312.028 149.913 311.292 150.386 310.481 150.686C308.877 151.359 307.126 151.607 305.397 151.406C306.755 152.685 308.251 153.809 309.857 154.757L310.387 154.53Z" fill="#F2D5F8"/>
<path d="M313.17 152.929C312.73 152.903 312.304 152.766 311.93 152.532C311.785 152.45 311.664 152.332 311.579 152.189C311.495 152.046 311.449 151.884 311.447 151.718C311.476 151.574 311.542 151.441 311.638 151.332C311.734 151.222 311.858 151.14 311.996 151.093C312.372 150.967 312.771 150.929 313.163 150.982C313.555 151.034 313.93 151.176 314.259 151.396C314.405 151.474 314.53 151.587 314.624 151.723C314.718 151.86 314.778 152.017 314.799 152.181C314.784 152.321 314.729 152.453 314.639 152.56C314.55 152.668 314.431 152.747 314.297 152.787C313.938 152.925 313.552 152.974 313.17 152.929Z" fill="#F0F0F0"/>
<path d="M299.319 144.617C299.35 144.346 299.397 144.078 299.461 143.813C299.792 142.497 301.004 141.342 302.869 140.556C304.487 139.894 306.248 139.662 307.982 139.884C306.634 138.62 305.152 137.508 303.56 136.57L303.04 136.788C302.421 137.008 301.74 136.974 301.146 136.693C300.881 136.57 300.72 136.485 300.483 136.39L294.282 139.032C294.412 139.103 294.523 139.203 294.607 139.325C294.69 139.446 294.745 139.586 294.765 139.732C294.774 139.894 294.734 140.055 294.652 140.195C294.569 140.335 294.447 140.447 294.301 140.518C296.133 141.677 297.817 143.054 299.319 144.617Z" fill="#F2D5F8"/>
<path d="M300.266 140.452C299.845 140.408 299.442 140.262 299.092 140.026C298.946 139.947 298.822 139.833 298.731 139.694C298.641 139.555 298.585 139.396 298.571 139.231C298.581 139.091 298.634 138.959 298.722 138.85C298.81 138.742 298.929 138.663 299.063 138.625C299.452 138.492 299.864 138.448 300.272 138.494C300.679 138.539 301.072 138.675 301.421 138.89C301.568 138.968 301.69 139.085 301.774 139.229C301.858 139.373 301.899 139.538 301.894 139.704C301.863 139.849 301.796 139.983 301.698 140.094C301.6 140.205 301.475 140.289 301.336 140.338C300.995 140.469 300.626 140.508 300.266 140.452Z" fill="#F0F0F0"/>
<path d="M297.378 9.70508C307.555 17.4684 315.593 12.924 325.78 20.6968C326.569 25.702 327.349 30.7166 328.119 35.7407C317.941 27.9679 309.903 32.5122 299.716 24.7394C298.927 19.7343 298.148 14.7228 297.378 9.70508Z" fill="#F0F0F0"/>
<path d="M325.099 20.8489C315.489 14.0986 307.915 17.8761 298.306 11.1353C299.006 15.6228 299.704 20.1073 300.398 24.5885C310.007 31.3389 317.581 27.5613 327.191 34.3022L325.099 20.8489ZM300.729 24.4939C300.098 20.2714 299.442 16.0489 298.76 11.8264C308.076 18.1033 315.442 14.6666 324.758 20.9436C325.389 25.1661 326.045 29.3886 326.727 33.6111C317.411 27.3341 310.045 30.7708 300.729 24.4939Z" fill="#F2D5F8"/>
<path d="M307.584 21.8808C307.483 21.2982 307.507 20.7007 307.653 20.1279C307.8 19.5552 308.067 19.02 308.436 18.5577C308.885 18.087 309.446 17.7384 310.068 17.5446C310.689 17.3508 311.349 17.3183 311.986 17.45C314.504 17.7625 317.42 20.5648 317.913 23.5566C318.023 24.1397 318.003 24.7401 317.854 25.3146C317.705 25.8891 317.431 26.4236 317.051 26.8797C316.604 27.3505 316.044 27.7 315.425 27.8954C314.806 28.0908 314.147 28.1257 313.51 27.9968C311.957 27.7265 310.546 26.927 309.515 25.7341C308.541 24.6436 307.874 23.3138 307.584 21.8808ZM311.91 17.6962C311.35 17.5784 310.769 17.5969 310.217 17.7502C309.665 17.9034 309.158 18.1868 308.739 18.5767C308.364 19.0188 308.086 19.5345 307.923 20.0905C307.76 20.6466 307.715 21.2307 307.792 21.8051C308.275 24.7305 311.115 27.4856 313.567 27.7412C314.157 27.8592 314.766 27.8255 315.339 27.6433C315.912 27.4612 316.43 27.1365 316.843 26.6998C317.187 26.2743 317.437 25.7815 317.579 25.2532C317.721 24.7249 317.751 24.1728 317.666 23.6323C317.381 22.2248 316.728 20.9181 315.773 19.8453C314.764 18.714 313.403 17.9566 311.91 17.6962Z" fill="#F2D5F8"/>
<path d="M309.042 21.767C308.958 21.4021 308.957 21.023 309.039 20.6577C309.121 20.2924 309.284 19.95 309.515 19.6557C309.832 19.3808 310.207 19.1796 310.611 19.0666C311.015 18.9537 311.44 18.9318 311.854 19.0025C313.045 19.2465 314.13 19.8553 314.959 20.7445C315.724 21.5621 316.243 22.5796 316.455 23.6794C316.534 24.0431 316.532 24.4196 316.45 24.7826C316.369 25.1456 316.209 25.4864 315.981 25.7812C315.664 26.0562 315.29 26.2574 314.886 26.3703C314.481 26.4833 314.057 26.5052 313.643 26.4345C312.499 26.2011 311.451 25.6326 310.632 24.8014C309.812 23.9701 309.259 22.9138 309.042 21.767Z" fill="#F2D5F8"/>
<path d="M303.266 24.3514C303.122 23.7083 302.731 23.1474 302.178 22.7893C301.922 22.6378 301.77 22.5336 301.562 22.3916L300.502 15.7644C300.634 15.831 300.78 15.8657 300.928 15.8657C301.076 15.8657 301.222 15.831 301.354 15.7644C301.495 15.6841 301.61 15.5642 301.684 15.4196C301.758 15.2749 301.788 15.1117 301.77 14.9502C303.735 15.881 305.804 16.5708 307.934 17.0046C307.811 17.1088 307.697 17.2224 307.584 17.336C307.053 18.0202 306.679 18.8117 306.486 19.6554C306.293 20.4991 306.286 21.3747 306.466 22.2212C306.741 23.9559 307.465 25.5881 308.568 26.955C306.762 26.4847 305.013 25.818 303.352 24.9668L303.266 24.3514Z" fill="#F2D5F8"/>
<path d="M302.633 20.1108C302.595 19.9772 302.598 19.8353 302.642 19.7036C302.686 19.5719 302.768 19.4564 302.879 19.3723C303.025 19.2967 303.187 19.2573 303.352 19.2573C303.517 19.2573 303.679 19.2967 303.825 19.3723C304.192 19.536 304.516 19.783 304.771 20.0936C305.025 20.4042 305.204 20.7699 305.293 21.1617C305.328 21.3033 305.325 21.4518 305.283 21.5917C305.242 21.7316 305.163 21.8578 305.056 21.9569C304.915 22.0471 304.751 22.095 304.583 22.095C304.415 22.095 304.251 22.0471 304.11 21.9569C303.711 21.7618 303.367 21.4726 303.106 21.1143C302.873 20.8207 302.711 20.4773 302.633 20.1108Z" fill="#F0F0F0"/>
<path d="M317.543 28.4225C317.755 28.2505 317.954 28.0638 318.139 27.8639C319.086 26.9172 319.408 25.2509 319.086 23.2533C318.791 21.5143 318.047 19.8826 316.928 18.5195C318.715 18.9918 320.448 19.6519 322.097 20.4888L322.182 21.0474C322.328 21.6897 322.719 22.2499 323.271 22.6095C323.526 22.761 323.678 22.8651 323.886 23.0071L324.966 29.6344C324.833 29.5678 324.687 29.5331 324.539 29.5331C324.391 29.5331 324.246 29.5678 324.113 29.6344C323.971 29.7137 323.856 29.8334 323.782 29.9783C323.708 30.1232 323.678 30.2869 323.697 30.4486C321.734 29.5306 319.668 28.8505 317.543 28.4225Z" fill="#F2D5F8"/>
<path d="M320.062 24.4363C320.031 24.2945 320.036 24.1471 320.077 24.0079C320.119 23.8687 320.195 23.7424 320.299 23.641C320.443 23.5579 320.606 23.5142 320.772 23.5142C320.939 23.5142 321.102 23.5579 321.246 23.641C321.618 23.8258 321.944 24.0919 322.2 24.4196C322.455 24.7474 322.634 25.1284 322.723 25.5345C322.763 25.6694 322.76 25.8133 322.716 25.9469C322.673 26.0806 322.589 26.1976 322.476 26.2824C322.331 26.3595 322.168 26.3998 322.003 26.3998C321.838 26.3998 321.676 26.3595 321.53 26.2824C321.142 26.1098 320.801 25.8468 320.536 25.5156C320.282 25.2061 320.118 24.8327 320.062 24.4363Z" fill="#F0F0F0"/>
<path d="M441.246 64.3229C453.97 62.9312 456.669 54.0981 469.393 52.7158L481.454 61.9939C468.73 63.3857 466.032 72.2188 453.308 73.6106L441.246 64.3229Z" fill="#F0F0F0"/>
<path d="M469.004 53.2944C457.397 55.027 454.509 62.9891 442.902 64.7122L453.695 73.0247C465.302 71.2826 468.19 63.33 479.797 61.5879L469.004 53.2944ZM453.856 72.7312C450.479 70.1181 447.093 67.5114 443.697 64.911C454.774 63.0175 457.738 55.4436 468.815 53.5974L478.973 61.4081C467.906 63.2921 464.943 70.8566 453.866 72.7312H453.856Z" fill="#F2D5F8"/>
<path d="M457.027 66.1132C456.555 65.7594 456.163 65.3102 455.876 64.7947C455.589 64.2793 455.413 63.7092 455.361 63.1215C455.36 62.4706 455.524 61.8301 455.839 61.2603C456.154 60.6905 456.608 60.2102 457.16 59.8647C459.205 58.3593 463.248 58.3783 465.681 60.2055C466.161 60.5538 466.559 61.0029 466.847 61.5214C467.134 62.0399 467.305 62.6151 467.347 63.2067C467.35 63.8578 467.185 64.4987 466.869 65.0675C466.552 65.6363 466.094 66.1139 465.539 66.454C464.232 67.336 462.657 67.7314 461.089 67.5712C459.629 67.458 458.226 66.9544 457.027 66.1132ZM457.283 60.1014C456.792 60.403 456.38 60.8187 456.084 61.3131C455.787 61.8075 455.614 62.3661 455.579 62.9416C455.62 63.5195 455.78 64.0828 456.048 64.596C456.317 65.1092 456.689 65.5613 457.141 65.9239C459.508 67.7132 463.437 67.7038 465.416 66.2363C465.923 65.9118 466.34 65.4634 466.627 64.9334C466.913 64.4034 467.06 63.8092 467.054 63.2067C467.009 62.6627 466.852 62.134 466.591 61.6546C466.33 61.1753 465.972 60.7558 465.539 60.4233C464.375 59.6087 463.016 59.1185 461.6 59.0031C460.078 58.8601 458.552 59.2481 457.283 60.1014Z" fill="#F2D5F8"/>
<path d="M458.004 65.024C457.69 64.8104 457.428 64.5296 457.237 64.2021C457.045 63.8746 456.929 63.5085 456.896 63.1305C456.937 62.7133 457.069 62.3102 457.283 61.9501C457.498 61.59 457.789 61.2818 458.137 61.0477C459.168 60.4006 460.377 60.0927 461.592 60.1672C462.706 60.2304 463.78 60.6079 464.688 61.2559C465.003 61.4686 465.267 61.7489 465.461 62.0765C465.654 62.404 465.772 62.7706 465.805 63.1494C465.762 63.5671 465.629 63.9704 465.415 64.3316C465.2 64.6928 464.911 65.0033 464.565 65.2418C463.572 65.8584 462.42 66.1668 461.253 66.128C460.085 66.0893 458.954 65.7051 458.004 65.024Z" fill="#F2D5F8"/>
<path d="M455.598 70.8943C455.324 70.7083 455.015 70.579 454.69 70.514C454.364 70.4489 454.03 70.4495 453.705 70.5156L452.985 70.6482L447.617 66.5393C447.761 66.503 447.894 66.4336 448.005 66.3366C448.117 66.2396 448.205 66.1177 448.261 65.9807C448.31 65.8252 448.312 65.6584 448.267 65.5016C448.221 65.3449 448.13 65.2052 448.005 65.1003C450.07 64.4263 452.045 63.501 453.885 62.3452C453.885 62.5062 453.885 62.6671 453.885 62.8281C453.972 63.6887 454.246 64.5198 454.688 65.2637C455.129 66.0077 455.727 66.6465 456.441 67.1358C457.824 68.1831 459.455 68.8549 461.175 69.0861C459.545 69.9884 457.821 70.7091 456.034 71.2352L455.598 70.8943Z" fill="#F2D5F8"/>
<path d="M452.228 68.2427C452.11 68.1737 452.017 68.0706 451.959 67.9472C451.902 67.8238 451.883 67.6859 451.906 67.5516C451.963 67.3958 452.058 67.2564 452.182 67.1458C452.305 67.0352 452.455 66.9567 452.616 66.9173C452.988 66.7857 453.386 66.7411 453.778 66.7871C454.17 66.833 454.547 66.9683 454.879 67.1824C455.003 67.2595 455.104 67.3689 455.17 67.499C455.237 67.6291 455.267 67.775 455.257 67.9209C455.215 68.0811 455.132 68.2275 455.016 68.3454C454.899 68.4634 454.754 68.5488 454.594 68.593C454.173 68.7319 453.724 68.7612 453.288 68.6783C452.905 68.6207 452.541 68.4713 452.228 68.2427Z" fill="#F0F0F0"/>
<path d="M468.758 63.9826C468.758 63.6891 468.805 63.3956 468.805 63.1684C468.805 61.8145 467.915 60.4039 466.306 59.1826C464.897 58.1465 463.243 57.4941 461.506 57.2891C463.125 56.3956 464.836 55.6782 466.609 55.1494L467.063 55.4997C467.339 55.6836 467.648 55.811 467.973 55.8744C468.298 55.9378 468.632 55.9359 468.957 55.8689L469.667 55.7364L475.044 59.8169C474.901 59.8532 474.768 59.9226 474.656 60.0196C474.544 60.1166 474.457 60.2385 474.4 60.3755C474.351 60.531 474.349 60.6978 474.394 60.8546C474.44 61.0113 474.531 61.151 474.656 61.2559C472.587 61.9224 470.606 62.838 468.758 63.9826Z" fill="#F2D5F8"/>
<path d="M467.841 59.362C467.717 59.281 467.617 59.1697 467.549 59.0387C467.481 58.9077 467.447 58.7615 467.451 58.614C467.491 58.4532 467.573 58.3056 467.688 58.186C467.803 58.0664 467.947 57.9789 468.106 57.9324C468.499 57.8138 468.914 57.782 469.321 57.8392C469.728 57.8964 470.118 58.0412 470.463 58.2638C470.582 58.334 470.677 58.4384 470.736 58.5632C470.795 58.6881 470.816 58.8278 470.795 58.9643C470.74 59.1212 470.648 59.2622 470.525 59.3745C470.403 59.4869 470.255 59.5672 470.094 59.6081C469.697 59.7525 469.272 59.798 468.854 59.7407C468.489 59.7033 468.14 59.5729 467.841 59.362Z" fill="#F0F0F0"/>
<path d="M105.397 24.1436C103.825 8.56014 85.6287 23.1969 84.0571 7.63232L76.9092 16.8821C78.4808 32.4466 96.6773 17.8288 98.2489 33.3839L105.397 24.1436Z" fill="#F0F0F0"/>
<path d="M77.3066 17.4592C80.0901 31.49 95.7209 17.781 98.5043 31.8308L104.904 23.5657C102.121 9.51593 86.4617 23.2248 83.7066 9.18457C81.5796 11.9491 79.4463 14.7073 77.3066 17.4592ZM88.0995 24.3988C85.5149 24.1053 78.5469 24.3988 77.5622 17.7053L83.6214 9.92304C84.5682 16.6355 91.5646 16.3231 94.1587 16.6165C96.5351 16.8911 103.91 16.6165 104.687 23.3101L98.6652 31.0923C97.8226 24.4462 90.4759 24.6734 88.0995 24.3988Z" fill="#F2D5F8"/>
<path d="M93.648 23.3481C92.0302 23.8059 90.3394 23.9473 88.6681 23.7647C87.5888 23.5659 86.1308 23.528 85.203 22.089C84.9666 21.6762 84.8694 21.1984 84.9257 20.7261C84.982 20.2538 85.1887 19.8122 85.5154 19.4665C87.2764 17.4499 90.9308 16.8629 93.5817 17.2606C94.6326 17.412 96.119 17.4972 97.0468 18.9268C97.2775 19.3404 97.375 19.8152 97.3258 20.2862C97.2767 20.7573 97.0834 21.2017 96.7722 21.5588C95.9385 22.4609 94.848 23.0854 93.648 23.3481ZM88.7154 17.7907C87.536 18.085 86.4712 18.7245 85.6574 19.6274C85.3686 19.9511 85.1886 20.3573 85.1427 20.7887C85.0969 21.2201 85.1875 21.655 85.4018 22.0322C86.2728 23.3671 87.6645 23.3197 88.6681 23.4996C91.3474 23.7742 94.9261 23.244 96.5545 21.3978C96.8397 21.0659 97.0103 20.6508 97.041 20.2142C97.0717 19.7776 96.9608 19.3428 96.7249 18.9742C95.8444 17.6487 94.3675 17.6582 93.3829 17.5162C91.8256 17.2683 90.233 17.362 88.7154 17.7907Z" fill="#F2D5F8"/>
<path d="M93.9314 21.7294C94.5705 21.5115 95.1372 21.1217 95.5693 20.6028C95.7114 20.4606 95.808 20.2793 95.8468 20.0821C95.8855 19.8848 95.8647 19.6805 95.787 19.4951C95.5234 19.2003 95.2011 18.9638 94.8408 18.8008C94.4805 18.6378 94.0902 18.5518 93.6947 18.5483H93.4959C92.0508 18.3559 90.5809 18.4951 89.1977 18.9554C88.8852 19.0596 88.5823 19.1637 88.2509 19.2868C87.6122 19.5151 87.0466 19.9107 86.613 20.4324C86.4838 20.5809 86.4006 20.7639 86.3737 20.9589C86.3468 21.154 86.3774 21.3526 86.4616 21.5306C86.7209 21.8207 87.0371 22.0545 87.3905 22.2173C87.7439 22.3802 88.127 22.4687 88.516 22.4773H88.7622C90.2141 22.6688 91.6903 22.5428 93.0888 22.1081H93.1456C93.3728 21.9472 93.6568 21.843 93.9314 21.7294Z" fill="#F2D5F8"/>
<path d="M102.803 23.8593C102.746 23.6321 102.68 23.4616 102.585 23.1871C102.49 22.9463 102.445 22.6886 102.453 22.4297C102.453 22.1488 102.546 21.876 102.718 21.6534L102.935 21.3693C102.445 20.5537 101.779 19.8571 100.987 19.3299C100.195 18.8027 99.2951 18.458 98.3532 18.3208C98.6003 18.9962 98.6691 19.7239 98.553 20.4337C98.4369 21.1435 98.1399 21.8113 97.6905 22.3729C97.0409 23.2809 96.134 23.9734 95.0869 24.3611L94.6514 24.5315C96.1676 25.0388 97.4706 26.0386 98.3532 27.3717C98.42 27.3212 98.4933 27.2799 98.571 27.2486C98.6828 27.1993 98.8038 27.1739 98.926 27.1739C99.0483 27.1739 99.1692 27.1993 99.281 27.2486C99.5092 27.356 99.6956 27.5358 99.8112 27.7599L102.803 23.8593Z" fill="#F2D5F8"/>
<path d="M99.9244 24.6169C99.6283 24.5587 99.3592 24.4059 99.1576 24.1814C98.896 23.9243 98.7178 23.5944 98.6463 23.2346C98.6142 23.1082 98.6085 22.9765 98.6297 22.8478C98.6509 22.7191 98.6985 22.5962 98.7694 22.4867C98.8669 22.3806 98.9855 22.2958 99.1175 22.2378C99.2495 22.1798 99.3921 22.1499 99.5362 22.1499C99.6804 22.1499 99.823 22.1798 99.955 22.2378C100.087 22.2958 100.206 22.3806 100.303 22.4867C100.564 22.7621 100.718 23.1211 100.739 23.4997C100.77 23.8182 100.686 24.1374 100.502 24.3991C100.435 24.4847 100.345 24.5501 100.244 24.5885C100.142 24.6269 100.031 24.6367 99.9244 24.6169Z" fill="#F0F0F0"/>
<path d="M83.9432 22.6765C83.9432 22.6007 83.8674 22.5345 83.839 22.4682C83.6101 21.8218 83.557 21.1262 83.6851 20.4525C83.8132 19.7788 84.1179 19.1512 84.568 18.6339C85.1967 17.7665 86.0704 17.1071 87.0769 16.7404L87.645 16.5321C86.1477 16.054 84.8521 15.0914 83.9621 13.796C83.8922 13.8521 83.816 13.8998 83.7349 13.938C83.5072 14.0301 83.2526 14.0301 83.0248 13.938C82.7939 13.8311 82.6044 13.6516 82.4852 13.4268L79.5029 17.2138C79.5659 17.4419 79.6418 17.6664 79.7302 17.8859C79.8244 18.1237 79.8695 18.3782 79.8627 18.6339C79.8574 18.9139 79.7647 19.1854 79.5976 19.4102L79.3799 19.6942C79.878 20.4932 80.5443 21.1739 81.3324 21.6889C82.1205 22.204 83.0115 22.541 83.9432 22.6765Z" fill="#F2D5F8"/>
<path d="M82.7794 19.0879C82.6196 19.1019 82.4587 19.0821 82.307 19.0299C82.1553 18.9777 82.0163 18.8943 81.8989 18.785C81.6325 18.5202 81.4739 18.1659 81.454 17.7909C81.4251 17.4799 81.5055 17.1686 81.6812 16.9104C82.0125 16.4844 82.6279 16.6169 83.0729 17.0808C83.3296 17.3203 83.5106 17.6297 83.5936 17.9708C83.6343 18.102 83.6426 18.2412 83.6179 18.3764C83.5932 18.5115 83.5361 18.6387 83.4516 18.7471C83.3689 18.8469 83.2665 18.9286 83.1509 18.9873C83.0353 19.0459 82.9088 19.0802 82.7794 19.0879Z" fill="#F0F0F0"/>
<path d="M500.191 164.907C506.26 148.604 480.016 158.204 486.075 141.91L474.042 149.229C467.974 165.513 494.227 155.922 488.158 172.225L500.191 164.907Z" fill="#F0F0F0"/>
<path d="M474.223 149.919C470.18 165.067 493.29 155.599 489.248 170.747L500.012 164.205C504.055 149.114 480.954 158.525 484.987 143.377L474.223 149.919ZM482.052 160.115C479.496 159.065 472.064 157.36 474.365 150.25L484.495 144.087C482.204 151.197 489.636 152.901 492.183 153.962C494.53 154.908 502.351 156.802 499.87 163.827L489.778 170.018C492.211 163.031 484.4 161.119 482.052 160.144V160.115Z" fill="#F2D5F8"/>
<path d="M488.357 160.693C486.509 160.697 484.677 160.347 482.96 159.661C481.928 159.15 480.432 158.715 480.167 156.954C480.15 156.413 480.291 155.879 480.574 155.418C480.856 154.957 481.268 154.589 481.758 154.359C484.598 152.826 488.698 153.299 491.273 154.473C492.295 154.937 493.801 155.42 494.066 157.181C494.072 157.718 493.926 158.246 493.644 158.703C493.363 159.161 492.957 159.529 492.475 159.765C491.21 160.438 489.788 160.759 488.357 160.693ZM485.99 153.612C484.568 153.572 483.16 153.898 481.9 154.558C481.453 154.772 481.078 155.11 480.818 155.531C480.557 155.952 480.424 156.44 480.432 156.935C480.688 158.544 482.156 158.904 483.121 159.377C485.772 160.438 489.748 160.939 492.39 159.538C492.837 159.319 493.208 158.971 493.454 158.539C493.701 158.107 493.811 157.611 493.772 157.115C493.507 155.515 491.964 155.098 491.008 154.662C489.432 153.95 487.719 153.592 485.99 153.612Z" fill="#F2D5F8"/>
<path d="M489.466 159.131C490.265 159.082 491.042 158.852 491.738 158.458C492.306 158.118 492.562 157.663 492.505 157.398C492.344 156.527 491.473 156.148 490.782 155.845L490.593 155.76C489.1 155.122 487.48 154.836 485.859 154.927C485.49 154.927 485.111 154.927 484.732 154.993C483.933 155.046 483.156 155.279 482.46 155.675C481.892 156.016 481.636 156.47 481.693 156.735C481.854 157.587 482.697 157.966 483.378 158.269L483.615 158.373C485.111 159 486.729 159.285 488.349 159.206H488.406C488.775 159.187 489.125 159.169 489.466 159.131Z" fill="#F2D5F8"/>
<path d="M497.673 163.874C497.723 163.628 497.754 163.378 497.768 163.126C497.796 162.844 497.879 162.571 498.014 162.322C498.158 162.027 498.385 161.78 498.667 161.612L499.036 161.384C498.936 160.419 498.58 159.499 498.006 158.717C497.432 157.934 496.66 157.319 495.77 156.935C495.77 158.762 494.085 160.172 493.072 160.864C491.962 161.585 490.689 162.018 489.37 162.123H488.84C489.492 162.581 490.046 163.164 490.47 163.839C490.895 164.513 491.18 165.266 491.311 166.052C491.408 166.016 491.51 165.994 491.614 165.985C491.744 165.969 491.876 165.98 492.001 166.018C492.126 166.055 492.243 166.118 492.343 166.203C492.434 166.29 492.507 166.394 492.557 166.51C492.608 166.625 492.634 166.749 492.636 166.875L497.673 163.874Z" fill="#F2D5F8"/>
<path d="M494.293 163.818C494.017 163.673 493.807 163.43 493.706 163.136C493.564 162.801 493.534 162.429 493.62 162.076C493.653 161.919 493.718 161.771 493.811 161.64C493.903 161.51 494.022 161.4 494.16 161.318C494.291 161.232 494.439 161.174 494.594 161.149C494.749 161.124 494.908 161.131 495.06 161.171C495.212 161.212 495.354 161.283 495.476 161.382C495.598 161.481 495.698 161.604 495.769 161.744C495.905 162.121 495.888 162.535 495.722 162.899C495.579 163.242 495.339 163.535 495.031 163.742C494.924 163.815 494.8 163.86 494.671 163.874C494.542 163.887 494.412 163.868 494.293 163.818Z" fill="#F0F0F0"/>
<path d="M478.567 157.18C478.562 157.098 478.562 157.016 478.567 156.934C478.624 155.041 480.385 153.829 481.227 153.251C482.292 152.552 483.517 152.135 484.787 152.04L485.488 151.992C484.839 151.548 484.285 150.979 483.858 150.32C483.43 149.66 483.138 148.922 482.998 148.148C482.897 148.184 482.792 148.206 482.685 148.215C482.555 148.231 482.423 148.22 482.298 148.182C482.172 148.145 482.056 148.082 481.956 147.997C481.86 147.913 481.783 147.81 481.731 147.694C481.679 147.578 481.652 147.452 481.653 147.325L476.655 150.316C476.603 150.563 476.568 150.813 476.55 151.064C476.532 151.343 476.454 151.614 476.323 151.86C476.172 152.152 475.947 152.4 475.67 152.579L475.301 152.797C475.416 153.749 475.778 154.654 476.351 155.423C476.924 156.192 477.688 156.798 478.567 157.18Z" fill="#F2D5F8"/>
<path d="M479.126 153.205C478.963 153.176 478.809 153.109 478.676 153.011C478.542 152.912 478.434 152.784 478.359 152.637C478.282 152.457 478.242 152.264 478.242 152.069C478.242 151.873 478.282 151.68 478.359 151.5C478.492 151.157 478.726 150.863 479.031 150.658C479.58 150.326 480.12 150.658 480.394 151.245C480.54 151.575 480.58 151.942 480.508 152.296C480.474 152.451 480.409 152.597 480.316 152.726C480.223 152.855 480.105 152.963 479.968 153.044C479.714 153.193 479.417 153.25 479.126 153.205Z" fill="#F0F0F0"/>
<path d="M58.7031 80.4841C73.4534 78.5906 76.3978 68.2805 91.1482 66.3965L105.397 76.9243C90.6464 78.8178 87.702 89.1279 72.9517 91.0119L58.7031 80.4841Z" fill="#F0F0F0"/>
<path d="M90.7129 67.0786C77.2596 69.3413 74.0786 78.6479 60.6348 80.9106L73.3496 90.3781C86.7934 88.1154 89.9839 78.8088 103.428 76.5366L90.7129 67.0786ZM73.5484 89.9805L61.5815 81.1094C74.4005 78.6952 77.6762 69.8431 90.5141 67.4289L102.481 76.2905C89.6526 78.7047 86.3768 87.5568 73.5484 89.9805Z" fill="#F2D5F8"/>
<path d="M77.0796 82.2272C76.5272 81.823 76.0657 81.3075 75.7248 80.7139C75.384 80.1203 75.1715 79.4618 75.1009 78.781C75.0925 78.0302 75.2738 77.2895 75.628 76.6275C75.9822 75.9655 76.4978 75.4036 77.127 74.994C79.4654 73.1952 84.1613 73.1005 87.011 75.2117C87.5789 75.6027 88.0533 76.1144 88.4003 76.7102C88.7473 77.3059 88.9583 77.9711 89.0181 78.6579C89.0265 79.4087 88.8453 80.1494 88.4911 80.8114C88.1369 81.4734 87.6213 82.0353 86.9921 82.4449C85.4875 83.4894 83.6677 83.9811 81.8418 83.8366C80.1395 83.7335 78.4955 83.1779 77.0796 82.2272ZM77.2406 75.2402C76.6821 75.5999 76.2185 76.0888 75.8889 76.6656C75.5594 77.2424 75.3735 77.89 75.3471 78.5538C75.4076 79.2252 75.6072 79.8766 75.9332 80.4666C76.2592 81.0567 76.7044 81.5724 77.2406 81.981C80.024 84.007 84.5874 83.9218 86.8596 82.1703C87.4504 81.7901 87.9345 81.2653 88.2659 80.6457C88.5972 80.026 88.7649 79.3321 88.753 78.6295C88.6911 77.9985 88.4973 77.3876 88.1842 76.8364C87.871 76.2851 87.4455 75.8058 86.9353 75.4295C85.567 74.5105 83.9791 73.9714 82.3341 73.8674C80.5282 73.718 78.7268 74.2035 77.2406 75.2402Z" fill="#F2D5F8"/>
<path d="M78.1867 80.9386C77.8212 80.7046 77.5125 80.3919 77.2832 80.0234C77.0539 79.6548 76.9098 79.2398 76.8613 78.8084C76.9006 78.323 77.0455 77.852 77.2859 77.4284C77.5263 77.0049 77.8564 76.639 78.253 76.3564C79.4419 75.592 80.8358 75.2088 82.2483 75.2581C83.5475 75.3095 84.8053 75.7298 85.8743 76.47C86.2399 76.704 86.5486 77.0167 86.7779 77.3852C87.0072 77.7538 87.1513 78.1688 87.1998 78.6002C87.1611 79.0844 87.0163 79.5543 86.7758 79.9764C86.5353 80.3985 86.2049 80.7625 85.8081 81.0428C84.6719 81.7865 83.3394 82.174 81.9815 82.1554C80.6236 82.1369 79.3022 81.7132 78.1867 80.9386Z" fill="#F2D5F8"/>
<path d="M75.5172 87.8032C74.8671 87.3928 74.0832 87.2503 73.3302 87.4056L72.4971 87.5854L66.1729 82.918C66.3407 82.8761 66.4957 82.7938 66.6244 82.6783C66.7531 82.5628 66.8516 82.4176 66.9113 82.2552C66.9652 82.0736 66.9633 81.8799 66.9059 81.6993C66.8486 81.5187 66.7383 81.3595 66.5894 81.2422C68.9765 80.4122 71.253 79.293 73.3681 77.9097C73.3681 78.099 73.3681 78.2884 73.3681 78.4777C73.3681 80.1251 74.561 82.0185 76.4261 83.4292C78.0653 84.6153 79.9826 85.3588 81.993 85.5878C80.1095 86.6674 78.1164 87.5433 76.0474 88.2008L75.5172 87.8032Z" fill="#F2D5F8"/>
<path d="M71.5407 84.8016C71.4003 84.7215 71.2873 84.601 71.2164 84.4558C71.1454 84.3105 71.1199 84.1473 71.143 83.9874C71.2075 83.8064 71.3141 83.6433 71.454 83.5116C71.594 83.3799 71.7632 83.2834 71.9478 83.23C72.3785 83.0687 72.8403 83.0078 73.2981 83.0521C73.7558 83.0964 74.1974 83.2447 74.5892 83.4856C74.7344 83.5738 74.8533 83.6994 74.9332 83.8494C75.0132 83.9993 75.0513 84.1679 75.0436 84.3377C75.0085 84.5291 74.9194 84.7065 74.7869 84.849C74.6544 84.9916 74.484 85.0934 74.2957 85.1424C73.8078 85.3034 73.2884 85.3456 72.7809 85.2655C72.3375 85.2077 71.9132 85.049 71.5407 84.8016Z" fill="#F0F0F0"/>
<path d="M90.6557 79.5003C90.6732 79.1849 90.6732 78.8689 90.6557 78.5535C90.6557 76.9819 89.567 75.3535 87.664 73.9713C86.0039 72.799 84.0709 72.0721 82.0498 71.86C83.9124 70.7926 85.8833 69.9262 87.9291 69.2754L88.4593 69.673C89.1056 70.0843 89.8882 70.2238 90.6368 70.0612L91.4699 69.8908L97.8226 74.5109C97.6555 74.5573 97.5016 74.6423 97.3733 74.7591C97.2451 74.8758 97.146 75.0211 97.0841 75.1831C97.0303 75.3648 97.0321 75.5584 97.0895 75.739C97.1469 75.9196 97.2572 76.0789 97.406 76.1961C95.032 77.0237 92.7657 78.133 90.6557 79.5003Z" fill="#F2D5F8"/>
<path d="M89.4822 74.1791C89.3355 74.0901 89.2157 73.963 89.1357 73.8113C89.0557 73.6595 89.0183 73.4889 89.0278 73.3176C89.0649 73.1295 89.1536 72.9555 89.284 72.815C89.4145 72.6745 89.5814 72.5732 89.7662 72.5223C90.2192 72.3693 90.7004 72.3188 91.1752 72.3745C91.65 72.4302 92.1065 72.5906 92.5118 72.8442C92.6522 72.9243 92.7652 73.0448 92.8361 73.19C92.907 73.3352 92.9326 73.4984 92.9094 73.6584C92.8493 73.8413 92.7454 74.0067 92.6068 74.1403C92.4682 74.2739 92.2991 74.3718 92.1142 74.4253C91.6518 74.5966 91.1552 74.655 90.6656 74.5957C90.2421 74.5601 89.8347 74.4167 89.4822 74.1791Z" fill="#F0F0F0"/>
<path d="M60.7031 209.088C75.4534 207.194 78.3978 196.884 93.1482 195L107.397 205.528C92.6464 207.421 89.702 217.731 74.9517 219.615L60.7031 209.088Z" fill="#F0F0F0"/>
<path d="M92.7129 195.682C79.2596 197.945 76.0786 207.251 62.6348 209.514L75.3496 218.982C88.7934 216.719 91.9839 207.412 105.428 205.14L92.7129 195.682ZM75.5484 218.584L63.5815 209.713C76.4005 207.299 79.6762 198.447 92.5141 196.032L104.481 204.894C91.6526 207.308 88.3768 216.16 75.5484 218.584Z" fill="#F2D5F8"/>
<path d="M79.0796 210.831C78.5272 210.427 78.0657 209.911 77.7248 209.317C77.384 208.724 77.1715 208.065 77.1009 207.385C77.0925 206.634 77.2738 205.893 77.628 205.231C77.9822 204.569 78.4978 204.007 79.127 203.598C81.4654 201.799 86.1613 201.704 89.011 203.815C89.5789 204.206 90.0533 204.718 90.4003 205.314C90.7473 205.909 90.9583 206.575 91.0181 207.261C91.0265 208.012 90.8453 208.753 90.4911 209.415C90.1369 210.077 89.6213 210.639 88.9921 211.048C87.4875 212.093 85.6677 212.585 83.8418 212.44C82.1395 212.337 80.4955 211.781 79.0796 210.831ZM79.2406 203.844C78.6821 204.203 78.2185 204.692 77.8889 205.269C77.5594 205.846 77.3735 206.494 77.3471 207.157C77.4076 207.829 77.6072 208.48 77.9332 209.07C78.2592 209.66 78.7044 210.176 79.2406 210.585C82.024 212.611 86.5874 212.525 88.8596 210.774C89.4504 210.394 89.9345 209.869 90.2659 209.249C90.5972 208.63 90.7649 207.936 90.753 207.233C90.6911 206.602 90.4973 205.991 90.1842 205.44C89.871 204.889 89.4455 204.409 88.9353 204.033C87.567 203.114 85.9791 202.575 84.3341 202.471C82.5282 202.322 80.7268 202.807 79.2406 203.844Z" fill="#F2D5F8"/>
<path d="M80.1867 209.542C79.8212 209.308 79.5125 208.995 79.2832 208.627C79.0539 208.258 78.9098 207.843 78.8613 207.412C78.9006 206.927 79.0455 206.456 79.2859 206.032C79.5263 205.608 79.8564 205.243 80.253 204.96C81.4419 204.195 82.8358 203.812 84.2483 203.862C85.5475 203.913 86.8053 204.333 87.8743 205.073C88.2399 205.308 88.5486 205.62 88.7779 205.989C89.0072 206.357 89.1513 206.772 89.1998 207.204C89.1611 207.688 89.0163 208.158 88.7758 208.58C88.5353 209.002 88.2049 209.366 87.8081 209.646C86.6719 210.39 85.3394 210.778 83.9815 210.759C82.6236 210.74 81.3022 210.317 80.1867 209.542Z" fill="#F2D5F8"/>
<path d="M77.5172 216.407C76.8671 215.996 76.0832 215.854 75.3302 216.009L74.4971 216.189L68.1729 211.521C68.3407 211.48 68.4957 211.397 68.6244 211.282C68.7531 211.166 68.8516 211.021 68.9113 210.859C68.9652 210.677 68.9633 210.483 68.9059 210.303C68.8485 210.122 68.7383 209.963 68.5894 209.846C70.9765 209.016 73.253 207.897 75.3681 206.513C75.3681 206.703 75.3681 206.892 75.3681 207.081C75.3681 208.729 76.561 210.622 78.4261 212.033C80.0653 213.219 81.9826 213.962 83.993 214.191C82.1095 215.271 80.1164 216.147 78.0474 216.804L77.5172 216.407Z" fill="#F2D5F8"/>
<path d="M73.5407 213.405C73.4003 213.325 73.2873 213.205 73.2164 213.059C73.1454 212.914 73.1199 212.751 73.143 212.591C73.2075 212.41 73.3141 212.247 73.454 212.115C73.594 211.983 73.7632 211.887 73.9478 211.834C74.3785 211.672 74.8403 211.611 75.2981 211.656C75.7558 211.7 76.1974 211.848 76.5892 212.089C76.7344 212.177 76.8533 212.303 76.9332 212.453C77.0132 212.603 77.0513 212.771 77.0436 212.941C77.0085 213.133 76.9194 213.31 76.7869 213.453C76.6544 213.595 76.484 213.697 76.2957 213.746C75.8078 213.907 75.2884 213.949 74.7809 213.869C74.3375 213.811 73.9132 213.653 73.5407 213.405Z" fill="#F0F0F0"/>
<path d="M92.6557 208.104C92.6732 207.788 92.6732 207.472 92.6557 207.157C92.6557 205.585 91.567 203.957 89.664 202.575C88.0039 201.402 86.0709 200.676 84.0498 200.464C85.9124 199.396 87.8833 198.53 89.9291 197.879L90.4593 198.277C91.1056 198.688 91.8882 198.827 92.6368 198.665L93.4699 198.494L99.8226 203.114C99.6555 203.161 99.5016 203.246 99.3733 203.363C99.2451 203.479 99.146 203.625 99.0841 203.787C99.0303 203.968 99.0321 204.162 99.0895 204.343C99.1469 204.523 99.2572 204.682 99.406 204.8C97.032 205.627 94.7657 206.737 92.6557 208.104Z" fill="#F2D5F8"/>
<path d="M91.4822 202.783C91.3355 202.694 91.2157 202.567 91.1357 202.415C91.0557 202.263 91.0183 202.092 91.0278 201.921C91.0649 201.733 91.1536 201.559 91.284 201.419C91.4145 201.278 91.5814 201.177 91.7662 201.126C92.2192 200.973 92.7004 200.922 93.1752 200.978C93.65 201.034 94.1065 201.194 94.5118 201.448C94.6522 201.528 94.7652 201.648 94.8361 201.794C94.907 201.939 94.9326 202.102 94.9094 202.262C94.8493 202.445 94.7454 202.61 94.6068 202.744C94.4682 202.877 94.2991 202.975 94.1142 203.029C93.6518 203.2 93.1552 203.259 92.6656 203.199C92.2421 203.164 91.8347 203.02 91.4822 202.783Z" fill="#F0F0F0"/>
<path d="M252.465 61.3227C268.228 58.9463 271.135 47.8126 286.898 45.4268L302.396 56.3712C286.623 58.7475 283.726 69.8813 267.954 72.286L252.465 61.3227Z" fill="#BA68C8"/>
<path opacity="0.6" d="M252.465 61.3227C268.228 58.9463 271.135 47.8126 286.898 45.4268L302.396 56.3712C286.623 58.7475 283.726 69.8813 267.954 72.286L252.465 61.3227Z" fill="white"/>
<path d="M286.453 46.165C272.091 48.9295 268.9 59.0313 254.548 61.739L268.408 71.519C282.77 68.7639 285.951 58.7094 300.314 55.9544L286.453 46.165ZM268.616 71.1403L255.57 61.9284C269.251 59.0313 272.555 49.4597 286.226 46.5532L299.272 55.7651C285.601 58.6716 282.297 68.2337 268.616 71.1403Z" fill="#BA68C8"/>
<path d="M272.204 62.7424C271.596 62.3263 271.083 61.7865 270.698 61.1584C270.313 60.5303 270.065 59.828 269.97 59.0974C269.936 58.2905 270.106 57.4881 270.466 56.7648C270.825 56.0415 271.361 55.4207 272.024 54.9601C274.486 52.9814 279.513 52.7921 282.628 54.9601C283.245 55.3666 283.765 55.9039 284.151 56.5338C284.537 57.1637 284.78 57.8709 284.862 58.6051C284.899 59.4154 284.726 60.2215 284.361 60.9459C283.997 61.6704 283.452 62.289 282.779 62.7424C281.196 63.9028 279.258 64.4753 277.298 64.3614C275.486 64.2833 273.728 63.7245 272.204 62.7424ZM272.204 55.2536C271.613 55.6519 271.126 56.1867 270.785 56.8129C270.444 57.4391 270.258 58.1383 270.245 58.8513C270.322 59.5679 270.548 60.2604 270.909 60.8847C271.269 61.509 271.755 62.0514 272.337 62.4773C275.366 64.5791 280.261 64.3708 282.647 62.4773C283.253 62.0537 283.743 61.4854 284.074 60.8241C284.405 60.1627 284.565 59.4293 284.54 58.6903C284.465 58.0066 284.246 57.3464 283.899 56.7527C283.551 56.159 283.083 55.645 282.524 55.2442C281.036 54.2908 279.319 53.7546 277.553 53.6915C275.645 53.5769 273.755 54.1254 272.204 55.2442V55.2536Z" fill="#BA68C8"/>
<g opacity="0.5">
<path d="M273.361 61.3413C272.966 61.0962 272.63 60.7673 272.377 60.3779C272.123 59.9885 271.958 59.5482 271.893 59.088C271.922 58.5668 272.064 58.0581 272.311 57.5983C272.558 57.1384 272.904 56.7388 273.323 56.4277C274.579 55.5756 276.066 55.1295 277.583 55.1496C278.976 55.1691 280.334 55.5899 281.493 56.3614C281.89 56.6031 282.228 56.9296 282.484 57.3176C282.739 57.7056 282.905 58.1453 282.97 58.6052C282.938 59.1307 282.789 59.6423 282.533 60.1026C282.278 60.5629 281.922 60.9603 281.493 61.2656C280.249 62.1343 278.76 62.5822 277.243 62.5437C275.86 62.5215 274.514 62.1043 273.361 61.3413Z" fill="#BA68C8"/>
</g>
<path opacity="0.5" d="M270.671 68.7639C269.968 68.3353 269.124 68.2025 268.323 68.3946C267.963 68.4798 267.736 68.5366 267.433 68.5935L260.531 63.765C260.711 63.717 260.875 63.6252 261.011 63.4981C261.146 63.3709 261.248 63.2122 261.307 63.036C261.36 62.8407 261.354 62.6342 261.29 62.4423C261.226 62.2505 261.107 62.0816 260.948 61.9567C263.481 61.0068 265.891 59.7543 268.124 58.2266C268.124 58.4254 268.124 58.6242 268.124 58.8325C268.19 60.5934 269.487 62.6195 271.523 64.0585C273.31 65.2892 275.383 66.0391 277.544 66.2361C275.559 67.4431 273.448 68.4303 271.248 69.1804L270.671 68.7639Z" fill="#BA68C8"/>
<g opacity="0.4">
<path d="M266.344 65.6581C266.189 65.5789 266.063 65.4532 265.983 65.2987C265.904 65.1442 265.874 64.9686 265.899 64.7965C265.962 64.6009 266.071 64.4236 266.218 64.2801C266.365 64.1365 266.545 64.031 266.742 63.9729C267.199 63.7867 267.693 63.7078 268.185 63.7423C268.677 63.7767 269.155 63.9236 269.582 64.1717C269.745 64.2688 269.878 64.408 269.968 64.5747C270.058 64.7413 270.101 64.9292 270.093 65.1184C270.057 65.3242 269.963 65.5155 269.822 65.6698C269.682 65.824 269.5 65.9349 269.298 65.9894C268.78 66.1773 268.225 66.2358 267.679 66.1599C267.201 66.0988 266.744 65.9269 266.344 65.6581Z" fill="white"/>
</g>
<path opacity="0.5" d="M286.689 59.4948C286.707 59.1542 286.707 58.8129 286.689 58.4724C286.614 56.7966 285.43 55.0735 283.366 53.6345C281.56 52.4175 279.469 51.6871 277.298 51.5137C279.278 50.3285 281.379 49.3573 283.565 48.6167L284.143 49.0238C284.844 49.4479 285.683 49.5805 286.481 49.393L287.371 49.1847L294.263 53.9942C294.085 54.0421 293.921 54.1339 293.787 54.2612C293.653 54.3886 293.553 54.5474 293.497 54.7232C293.442 54.9185 293.447 55.1257 293.511 55.3181C293.575 55.5106 293.695 55.6793 293.856 55.8025C291.326 56.737 288.919 57.9769 286.689 59.4948Z" fill="#BA68C8"/>
<g opacity="0.4">
<path d="M285.28 53.7861C285.117 53.689 284.984 53.5498 284.894 53.3831C284.804 53.2164 284.761 53.0286 284.769 52.8393C284.804 52.635 284.894 52.4444 285.032 52.2889C285.169 52.1334 285.346 52.0191 285.545 51.9589C286.026 51.786 286.54 51.7218 287.049 51.7709C287.558 51.82 288.05 51.9812 288.489 52.2429C288.641 52.3258 288.766 52.4518 288.847 52.6051C288.928 52.7583 288.961 52.932 288.944 53.1044C288.882 53.3027 288.774 53.4831 288.627 53.6299C288.481 53.7767 288.299 53.8856 288.101 53.947C287.611 54.1399 287.082 54.2145 286.558 54.1648C286.106 54.1507 285.666 54.0203 285.28 53.7861Z" fill="white"/>
</g>
<path d="M223.597 27.7822C207.84 23.2984 206.333 11.5785 190.528 7.09473L173.371 16.2178C189.127 20.7016 190.635 32.4215 206.44 36.9052L223.597 27.7822Z" fill="#7D32DF"/>
<path opacity="0.6" d="M223.597 27.7822C207.84 23.2984 206.333 11.5785 190.528 7.09473L173.371 16.2178C189.127 20.7016 190.635 32.4215 206.44 36.9052L223.597 27.7822Z" fill="white"/>
<path d="M175.54 16.0718C189.818 20.75 191.753 31.4099 206.022 36.0881L221.418 27.9279C207.14 23.2497 205.205 12.5898 190.936 7.90186L175.54 16.0718ZM176.61 16.0134L191.102 8.32008C204.67 13.0859 206.829 23.2497 220.358 27.9863C215.534 30.5799 210.703 33.1411 205.866 35.6699C192.298 30.9333 190.178 20.75 176.61 16.0037V16.0134Z" fill="#7D32DF"/>
<path d="M197.871 27.6749C195.859 27.5302 193.959 26.6954 192.492 25.3115C191.866 24.7604 191.393 24.0577 191.117 23.2708C190.841 22.4839 190.772 21.6393 190.916 20.818C191.096 20.0804 191.436 19.3913 191.911 18.7996C192.387 18.208 192.987 17.7282 193.669 17.3944C197.112 15.6048 202.218 16.4218 204.475 18.7853C205.095 19.3403 205.565 20.0435 205.841 20.8292C206.116 21.6149 206.188 22.4576 206.05 23.2787C205.858 24.011 205.514 24.6944 205.039 25.2843C204.565 25.8743 203.972 26.3575 203.298 26.7023C201.607 27.5009 199.734 27.8365 197.871 27.6749ZM199.047 16.6942C197.235 16.5432 195.415 16.879 193.776 17.6668C193.157 17.9951 192.614 18.4494 192.182 19.0006C191.75 19.5518 191.438 20.1875 191.267 20.8667C191.134 21.6242 191.196 22.4031 191.448 23.1298C191.7 23.8565 192.133 24.507 192.706 25.0197C194.885 27.3054 199.845 28.1515 203.21 26.4008C203.87 26.0426 204.447 25.549 204.903 24.9523C205.359 24.3556 205.684 23.6693 205.856 22.9383C205.928 22.2144 205.826 21.4837 205.558 20.807C205.291 20.1304 204.866 19.5273 204.319 19.0479C202.888 17.6751 201.025 16.843 199.047 16.6942Z" fill="#7D32DF"/>
<g opacity="0.5">
<path d="M198.153 25.7882C196.604 25.6242 195.147 24.9739 193.99 23.9305C193.598 23.5586 193.294 23.1035 193.1 22.5985C192.906 22.0936 192.828 21.5517 192.872 21.0126C192.998 20.5538 193.223 20.1284 193.533 19.7669C193.842 19.4054 194.228 19.1167 194.662 18.9215C195.95 18.2936 197.39 18.0441 198.815 18.2018C200.349 18.3846 201.789 19.0368 202.938 20.0692C203.331 20.4411 203.635 20.8962 203.829 21.4011C204.023 21.9061 204.1 22.448 204.057 22.987C203.932 23.4477 203.707 23.875 203.398 24.2383C203.088 24.6015 202.702 24.8917 202.267 25.0879C200.992 25.7121 199.563 25.9553 198.153 25.7882Z" fill="#7D32DF"/>
</g>
<path opacity="0.5" d="M204.087 32.9855C204.86 32.641 205.738 32.6165 206.528 32.9174L207.404 33.2384L215.068 29.2021C214.891 29.1293 214.734 29.0141 214.612 28.8665C214.49 28.7189 214.406 28.5436 214.368 28.3559C214.34 28.1494 214.374 27.9393 214.466 27.7523C214.557 27.5652 214.703 27.4097 214.883 27.3055C212.429 26.0095 210.143 24.4189 208.075 22.5688C208.075 22.7731 208.075 22.9773 207.997 23.1816C207.705 24.9712 206.12 26.8483 203.854 28.0446C201.875 29.073 199.663 29.5691 197.434 29.4841C199.298 30.9755 201.32 32.2574 203.465 33.3065L204.087 32.9855Z" fill="#7D32DF"/>
<g opacity="0.4">
<path d="M207.481 30.6612C206.916 30.6719 206.358 30.5415 205.856 30.2819C205.662 30.2005 205.494 30.0663 205.372 29.8943C205.25 29.7224 205.179 29.5198 205.166 29.3093C205.185 29.123 205.253 28.9451 205.364 28.7945C205.476 28.6438 205.625 28.526 205.798 28.4534C206.264 28.2556 206.769 28.1667 207.275 28.1937C207.781 28.2207 208.274 28.3627 208.716 28.609C208.912 28.6966 209.084 28.8311 209.217 29.0007C209.349 29.1703 209.437 29.3698 209.475 29.5816C209.472 29.7583 209.417 29.9302 209.316 30.0756C209.216 30.221 209.075 30.3334 208.91 30.3986C208.461 30.5982 207.971 30.6882 207.481 30.6612Z" fill="white"/>
</g>
<path opacity="0.5" d="M188.962 21.4502C188.978 21.1016 189.014 20.7542 189.069 20.4095C189.36 18.7075 190.79 17.1124 193.086 15.9161C195.084 14.9101 197.308 14.4345 199.544 14.535C197.692 13.0649 195.686 11.7996 193.562 10.7612L192.92 11.0919C192.151 11.4349 191.278 11.4628 190.489 11.1697L189.613 10.839L181.969 14.8365C182.143 14.9111 182.296 15.0272 182.414 15.1747C182.533 15.3223 182.614 15.4967 182.649 15.6826C182.68 15.8882 182.648 16.0981 182.557 16.2853C182.467 16.4725 182.323 16.6285 182.144 16.7331C184.595 18.0299 186.884 19.6134 188.962 21.4502Z" fill="#7D32DF"/>
<g opacity="0.4">
<path d="M189.749 16.0823C189.21 16.0593 188.683 15.9093 188.213 15.6446C188.019 15.5544 187.85 15.419 187.72 15.2497C187.589 15.0804 187.501 14.8823 187.464 14.672C187.465 14.4926 187.521 14.3178 187.623 14.1703C187.726 14.0229 187.87 13.9096 188.038 13.8453C188.519 13.6354 189.041 13.5353 189.566 13.5521C190.091 13.5689 190.605 13.7023 191.072 13.9425C191.264 14.0263 191.429 14.1614 191.549 14.333C191.67 14.5046 191.74 14.7061 191.753 14.9152C191.732 15.1033 191.662 15.2826 191.549 15.4347C191.436 15.5868 191.285 15.7062 191.111 15.7808C190.69 15.9953 190.222 16.099 189.749 16.0823Z" fill="white"/>
</g>
<path d="M452.218 28.6477C435.84 28.5408 431.249 17.6572 414.87 17.5405L400.719 30.9042C417.107 31.0209 421.688 41.9044 438.067 42.0211L452.218 28.6477Z" fill="#7D32DF"/>
<path opacity="0.6" d="M452.218 28.6477C435.84 28.5408 431.249 17.6572 414.87 17.5405L400.719 30.9042C417.107 31.0209 421.688 41.9044 438.067 42.0211L452.218 28.6477Z" fill="white"/>
<path d="M402.781 30.1847C417.789 30.885 422.496 40.6306 437.503 41.3308L450.147 29.3483C435.159 28.648 430.442 18.9219 415.435 18.2021L402.781 30.1847ZM403.754 29.8443L415.668 18.562C430.004 19.5346 434.77 28.7452 449.116 29.6887L437.241 40.971C422.895 40.0275 418.139 30.7877 403.793 29.8443H403.754Z" fill="#7D32DF"/>
<path d="M427.388 35.3491C425.404 35.7505 423.341 35.4514 421.552 34.503C420.804 34.1414 420.16 33.5939 419.684 32.9128C419.207 32.2317 418.913 31.4397 418.829 30.6125C418.803 29.8528 418.945 29.0967 419.246 28.3987C419.547 27.7007 419.999 27.0782 420.57 26.5762C423.41 23.9307 428.555 23.3763 431.347 25.0395C432.093 25.4048 432.734 25.9533 433.21 26.6337C433.686 27.3141 433.982 28.1041 434.07 28.9299C434.079 29.6862 433.929 30.4359 433.631 31.131C433.333 31.8261 432.893 32.4512 432.339 32.9663C430.924 34.178 429.218 34.9993 427.388 35.3491ZM425.589 24.5143C423.79 24.8322 422.111 25.6284 420.726 26.8194C420.221 27.3063 419.823 27.8937 419.558 28.5436C419.293 29.1935 419.168 29.8917 419.189 30.5931C419.265 31.3599 419.534 32.095 419.971 32.7296C420.408 33.3641 420.999 33.8772 421.689 34.2209C424.402 35.8355 429.411 35.32 432.183 32.7426C432.711 32.2227 433.125 31.599 433.4 30.911C433.674 30.223 433.803 29.4855 433.778 28.7451C433.657 28.0214 433.364 27.3373 432.924 26.7501C432.484 26.1629 431.91 25.6897 431.249 25.3702C429.517 24.4428 427.518 24.1405 425.589 24.5143Z" fill="#7D32DF"/>
<g opacity="0.5">
<path d="M427.164 33.511C425.626 33.7688 424.047 33.5339 422.651 32.8399C422.177 32.5851 421.766 32.2289 421.447 31.7968C421.128 31.3647 420.908 30.8673 420.803 30.3403C420.8 29.8633 420.904 29.3918 421.106 28.9596C421.308 28.5274 421.603 28.1453 421.97 27.8407C423.088 26.8492 424.475 26.2117 425.955 26.0091C427.435 25.8066 428.943 26.048 430.286 26.7027C430.759 26.9575 431.17 27.3137 431.489 27.7458C431.809 28.1779 432.029 28.6753 432.134 29.2023C432.136 29.6793 432.032 30.1509 431.83 30.5831C431.629 31.0153 431.334 31.3974 430.966 31.702C429.902 32.6624 428.58 33.2911 427.164 33.511Z" fill="#7D32DF"/>
</g>
<path opacity="0.5" d="M434.798 38.8601C435.451 38.3203 436.289 38.0584 437.132 38.1307L438.105 38.2085L444.408 32.2756C444.219 32.2533 444.038 32.1848 443.882 32.0763C443.726 31.9677 443.599 31.8224 443.513 31.6531C443.43 31.4606 443.406 31.248 443.444 31.042C443.482 30.836 443.581 30.6459 443.727 30.4957C441.008 29.9074 438.371 28.9862 435.878 27.7529C435.878 27.9572 435.946 28.1614 435.975 28.3754C436.17 30.1747 435.139 32.402 433.281 34.2111C431.639 35.7357 429.627 36.8052 427.445 37.3137C429.632 38.2513 431.915 38.946 434.253 39.3854L434.798 38.8601Z" fill="#7D32DF"/>
<g opacity="0.4">
<path d="M437.454 35.7084C436.911 35.8704 436.336 35.8938 435.781 35.7765C435.571 35.7474 435.373 35.66 435.209 35.5242C435.046 35.3884 434.924 35.2096 434.857 35.0081C434.83 34.827 434.851 34.642 434.917 34.4713C434.984 34.3007 435.094 34.1505 435.236 34.0355C435.631 33.7184 436.093 33.4965 436.588 33.3868C437.082 33.2772 437.594 33.2828 438.086 33.4033C438.294 33.438 438.49 33.5213 438.659 33.6464C438.828 33.7715 438.965 33.9348 439.059 34.123C439.11 34.2995 439.106 34.4875 439.047 34.6615C438.988 34.8355 438.876 34.9871 438.728 35.0956C438.357 35.3961 437.921 35.6059 437.454 35.7084Z" fill="white"/>
</g>
<path opacity="0.5" d="M417.147 31.7798C417.071 31.4393 417.013 31.0952 416.972 30.7488C416.796 29.0273 417.75 27.1113 419.646 25.3508C421.296 23.8471 423.306 22.7951 425.482 22.2968C423.294 21.368 421.011 20.6799 418.674 20.2446L418.148 20.7504C417.495 21.2806 416.662 21.5384 415.824 21.4701C415.445 21.4701 415.211 21.402 414.851 21.3826L408.549 27.2766C408.738 27.3023 408.918 27.3732 409.073 27.4832C409.229 27.5933 409.356 27.7393 409.444 27.9088C409.524 28.1 409.547 28.3107 409.509 28.5147C409.471 28.7188 409.374 28.9071 409.23 29.0565C411.969 29.6409 414.627 30.5553 417.147 31.7798Z" fill="#7D32DF"/>
<g opacity="0.4">
<path d="M416.474 26.3913C415.947 26.5177 415.397 26.5177 414.869 26.3913C414.661 26.3548 414.465 26.2697 414.296 26.143C414.127 26.0162 413.99 25.8514 413.897 25.6618C413.844 25.4855 413.847 25.297 413.906 25.1226C413.966 24.9483 414.078 24.7968 414.227 24.6892C414.633 24.3655 415.103 24.1335 415.607 24.0092C416.111 23.885 416.636 23.8714 417.145 23.9695C417.355 24 417.553 24.0892 417.714 24.2268C417.876 24.3645 417.996 24.545 418.059 24.7476C418.085 24.9296 418.063 25.1152 417.995 25.2858C417.926 25.4565 417.815 25.6063 417.67 25.7202C417.339 26.0471 416.926 26.2788 416.474 26.3913Z" fill="white"/>
</g>
<path d="M422.203 136.107C405.824 136 401.233 125.117 384.854 125L370.703 138.364C387.091 138.48 391.672 149.364 408.051 149.481L422.203 136.107Z" fill="#7D32DF"/>
<path opacity="0.6" d="M422.203 136.107C405.824 136 401.233 125.117 384.854 125L370.703 138.364C387.091 138.48 391.672 149.364 408.051 149.481L422.203 136.107Z" fill="white"/>
<path d="M372.766 137.644C387.774 138.344 392.481 148.09 407.489 148.79L420.133 136.808C405.145 136.107 400.428 126.381 385.42 125.662L372.766 137.644ZM373.739 137.304L385.654 126.021C399.99 126.994 404.756 136.205 419.102 137.148L407.226 148.43C392.88 147.487 388.124 138.247 373.778 137.304H373.739Z" fill="#7D32DF"/>
<path d="M397.373 142.809C395.388 143.21 393.326 142.911 391.537 141.962C390.788 141.601 390.145 141.053 389.668 140.372C389.191 139.691 388.897 138.899 388.814 138.072C388.787 137.312 388.929 136.556 389.23 135.858C389.531 135.16 389.984 134.538 390.555 134.036C393.395 131.39 398.54 130.836 401.331 132.499C402.077 132.864 402.718 133.413 403.194 134.093C403.67 134.774 403.966 135.564 404.054 136.389C404.063 137.146 403.913 137.895 403.615 138.591C403.317 139.286 402.877 139.911 402.323 140.426C400.908 141.637 399.202 142.459 397.373 142.809ZM395.573 131.974C393.775 132.292 392.095 133.088 390.71 134.279C390.205 134.766 389.807 135.353 389.542 136.003C389.278 136.653 389.152 137.351 389.173 138.053C389.249 138.819 389.518 139.555 389.955 140.189C390.392 140.824 390.983 141.337 391.673 141.68C394.387 143.295 399.396 142.779 402.168 140.202C402.695 139.682 403.109 139.059 403.384 138.37C403.659 137.682 403.787 136.945 403.763 136.205C403.641 135.481 403.349 134.797 402.909 134.21C402.469 133.622 401.894 133.149 401.234 132.83C399.501 131.902 397.502 131.6 395.573 131.974Z" fill="#7D32DF"/>
<g opacity="0.5">
<path d="M397.148 140.97C395.61 141.228 394.031 140.993 392.635 140.299C392.162 140.045 391.751 139.688 391.431 139.256C391.112 138.824 390.892 138.327 390.787 137.8C390.785 137.323 390.888 136.851 391.09 136.419C391.292 135.987 391.587 135.605 391.954 135.3C393.072 134.309 394.459 133.671 395.939 133.469C397.42 133.266 398.927 133.507 400.27 134.162C400.743 134.417 401.154 134.773 401.474 135.205C401.793 135.637 402.013 136.135 402.118 136.662C402.12 137.139 402.017 137.61 401.815 138.043C401.613 138.475 401.318 138.857 400.951 139.161C399.886 140.122 398.565 140.751 397.148 140.97Z" fill="#7D32DF"/>
</g>
<path opacity="0.5" d="M404.783 146.32C405.435 145.78 406.273 145.518 407.117 145.59L408.089 145.668L414.392 139.735C414.203 139.713 414.023 139.644 413.867 139.536C413.711 139.427 413.584 139.282 413.497 139.113C413.414 138.92 413.391 138.707 413.429 138.501C413.467 138.295 413.565 138.105 413.711 137.955C410.992 137.367 408.356 136.446 405.862 135.212C405.862 135.417 405.93 135.621 405.959 135.835C406.154 137.634 405.123 139.861 403.265 141.671C401.623 143.195 399.612 144.265 397.43 144.773C399.616 145.711 401.899 146.405 404.238 146.845L404.783 146.32Z" fill="#7D32DF"/>
<g opacity="0.4">
<path d="M407.438 143.168C406.895 143.33 406.321 143.353 405.766 143.236C405.556 143.207 405.358 143.119 405.195 142.984C405.031 142.848 404.909 142.669 404.842 142.468C404.815 142.286 404.836 142.101 404.903 141.931C404.969 141.76 405.079 141.61 405.222 141.495C405.616 141.178 406.079 140.956 406.573 140.846C407.067 140.737 407.58 140.742 408.072 140.863C408.279 140.897 408.475 140.981 408.644 141.106C408.813 141.231 408.95 141.394 409.044 141.583C409.096 141.759 409.091 141.947 409.032 142.121C408.973 142.295 408.862 142.447 408.713 142.555C408.342 142.856 407.905 143.065 407.438 143.168Z" fill="white"/>
</g>
<path opacity="0.5" d="M387.131 139.239C387.055 138.899 386.997 138.555 386.956 138.208C386.781 136.487 387.734 134.571 389.631 132.81C391.28 131.307 393.29 130.255 395.466 129.756C393.278 128.828 390.995 128.139 388.658 127.704L388.133 128.21C387.479 128.74 386.647 128.998 385.808 128.93C385.429 128.93 385.195 128.862 384.836 128.842L378.533 134.736C378.722 134.762 378.902 134.833 379.058 134.943C379.214 135.053 379.341 135.199 379.428 135.368C379.508 135.56 379.531 135.77 379.493 135.974C379.455 136.178 379.358 136.367 379.214 136.516C381.953 137.1 384.612 138.015 387.131 139.239Z" fill="#7D32DF"/>
<g opacity="0.4">
<path d="M386.458 133.851C385.931 133.977 385.381 133.977 384.854 133.851C384.645 133.814 384.449 133.729 384.28 133.602C384.111 133.476 383.974 133.311 383.881 133.121C383.828 132.945 383.831 132.756 383.891 132.582C383.95 132.408 384.062 132.256 384.212 132.149C384.617 131.825 385.088 131.593 385.592 131.469C386.095 131.344 386.62 131.331 387.129 131.429C387.34 131.459 387.537 131.549 387.699 131.686C387.86 131.824 387.98 132.004 388.044 132.207C388.07 132.389 388.047 132.575 387.979 132.745C387.911 132.916 387.799 133.066 387.655 133.18C387.323 133.507 386.91 133.738 386.458 133.851Z" fill="white"/>
</g>
<path d="M453.612 244.08C458.29 228.382 470.03 227.03 474.718 211.332L465.818 194C461.13 209.698 449.391 211.05 444.703 226.748C447.679 232.525 450.649 238.302 453.612 244.08Z" fill="#7D32DF"/>
<path opacity="0.6" d="M453.612 244.08C458.29 228.382 470.03 227.03 474.718 211.332L465.818 194C461.13 209.698 449.391 211.05 444.703 226.748C447.679 232.525 450.649 238.302 453.612 244.08Z" fill="white"/>
<path d="M465.934 196.178C461.071 210.388 450.373 212.187 445.51 226.397L453.485 241.9C458.348 227.69 469.047 225.891 473.91 211.681L465.934 196.178ZM465.983 197.238L473.482 211.827C468.561 225.346 458.348 227.33 453.485 240.83C450.995 235.967 448.499 231.104 445.996 226.241C450.859 212.732 461.071 210.747 465.983 197.238Z" fill="#7D32DF"/>
<path d="M454.099 218.354C454.269 216.344 455.128 214.454 456.531 213.005C457.09 212.386 457.798 211.922 458.589 211.656C459.379 211.39 460.224 211.332 461.043 211.487C461.778 211.676 462.461 212.024 463.046 212.507C463.631 212.989 464.103 213.594 464.428 214.279C466.179 217.751 465.265 222.847 462.891 225.065C462.333 225.682 461.626 226.145 460.838 226.411C460.049 226.677 459.206 226.736 458.388 226.582C457.659 226.383 456.98 226.031 456.397 225.549C455.813 225.068 455.338 224.469 455.004 223.791C454.221 222.092 453.909 220.215 454.099 218.354ZM465.012 219.657C465.211 217.845 464.926 216.012 464.185 214.347C463.866 213.725 463.421 213.176 462.879 212.736C462.336 212.295 461.708 211.973 461.034 211.789C460.276 211.649 459.495 211.704 458.764 211.947C458.033 212.19 457.375 212.614 456.851 213.18C454.546 215.339 453.642 220.28 455.334 223.674C455.689 224.324 456.174 224.893 456.757 225.348C457.341 225.803 458.012 226.134 458.729 226.32C459.457 226.407 460.195 226.318 460.881 226.058C461.566 225.799 462.179 225.378 462.668 224.832C464.019 223.427 464.847 221.6 465.012 219.657Z" fill="#7D32DF"/>
<g opacity="0.5">
<path d="M455.936 218.655C456.126 217.102 456.808 215.65 457.882 214.512C458.26 214.13 458.717 213.836 459.221 213.649C459.725 213.463 460.264 213.389 460.799 213.433C461.259 213.567 461.683 213.8 462.043 214.116C462.402 214.432 462.688 214.823 462.881 215.261C463.488 216.555 463.718 217.995 463.542 219.414C463.341 220.964 462.661 222.413 461.597 223.557C461.22 223.94 460.762 224.235 460.258 224.422C459.754 224.609 459.215 224.682 458.679 224.637C458.221 224.505 457.798 224.273 457.44 223.959C457.082 223.645 456.798 223.255 456.607 222.818C455.985 221.525 455.752 220.079 455.936 218.655Z" fill="#7D32DF"/>
</g>
<path opacity="0.5" d="M448.623 224.491C448.962 225.267 448.979 226.145 448.672 226.933C448.526 227.283 448.439 227.507 448.332 227.808L452.222 235.521C452.298 235.346 452.415 235.192 452.565 235.073C452.714 234.954 452.89 234.874 453.078 234.84C453.286 234.812 453.497 234.847 453.684 234.94C453.872 235.034 454.027 235.182 454.128 235.365C455.466 232.906 457.099 230.62 458.991 228.557L458.379 228.479C456.589 228.158 454.741 226.534 453.516 224.268C452.519 222.273 452.054 220.056 452.164 217.829C450.655 219.677 449.351 221.682 448.273 223.811L448.623 224.491Z" fill="#7D32DF"/>
<g opacity="0.4">
<path d="M450.927 227.964C450.931 227.397 451.071 226.84 451.336 226.34C451.421 226.148 451.556 225.984 451.727 225.864C451.899 225.744 452.1 225.673 452.308 225.659C452.495 225.683 452.671 225.756 452.82 225.87C452.968 225.985 453.084 226.137 453.155 226.31C453.347 226.779 453.43 227.286 453.396 227.792C453.363 228.298 453.213 228.789 452.96 229.228C452.87 229.422 452.734 229.591 452.565 229.721C452.396 229.852 452.198 229.939 451.987 229.977C451.809 229.975 451.636 229.919 451.49 229.816C451.345 229.714 451.233 229.57 451.17 229.403C450.982 228.948 450.898 228.456 450.927 227.964Z" fill="white"/>
</g>
<path opacity="0.5" d="M460.381 209.484C460.73 209.505 461.077 209.548 461.421 209.61C463.124 209.921 464.699 211.371 465.866 213.676C466.848 215.687 467.293 217.919 467.16 220.153C468.664 218.323 469.968 216.337 471.05 214.23L470.72 213.578C470.398 212.8 470.398 211.925 470.72 211.147L471.06 210.271L467.17 202.578C467.093 202.752 466.975 202.903 466.825 203.02C466.676 203.137 466.5 203.216 466.314 203.249C466.106 203.276 465.895 203.241 465.708 203.147C465.521 203.054 465.366 202.906 465.263 202.724C463.918 205.168 462.278 207.438 460.381 209.484Z" fill="#7D32DF"/>
<g opacity="0.4">
<path d="M465.75 210.388C465.775 209.848 465.929 209.321 466.198 208.851C466.29 208.66 466.426 208.493 466.595 208.365C466.764 208.236 466.961 208.15 467.17 208.112C467.35 208.12 467.523 208.18 467.668 208.286C467.813 208.391 467.924 208.537 467.987 208.706C468.189 209.19 468.281 209.714 468.257 210.238C468.234 210.762 468.095 211.275 467.851 211.74C467.762 211.927 467.625 212.086 467.454 212.202C467.283 212.318 467.085 212.387 466.879 212.402C466.693 212.376 466.518 212.302 466.369 212.188C466.221 212.073 466.105 211.923 466.032 211.75C465.821 211.328 465.724 210.859 465.75 210.388Z" fill="white"/>
</g>
<path d="M97.8418 132.482C95.3909 109.363 126.281 125.109 123.83 102L137.057 113.253C139.518 136.362 108.618 120.616 111.069 143.744L97.8418 132.482Z" fill="#7D32DF"/>
<path opacity="0.6" d="M97.8418 132.482C95.3909 109.363 126.281 125.109 123.83 102L137.057 113.253C139.518 136.362 108.618 120.616 111.069 143.744L97.8418 132.482Z" fill="white"/>
<path d="M124.744 104.169C124.977 125.411 98.0845 110.248 98.3179 131.509L110.125 141.576C109.902 120.314 136.785 135.477 136.561 114.235L124.744 104.169ZM109.727 140.535L98.6097 131.062C97.7149 121.16 108.511 119.254 111.876 118.136C115.543 116.91 125.765 115.218 125.152 105.2L136.259 114.683C136.882 124.73 126.66 126.354 122.993 127.609C119.618 128.727 108.851 130.673 109.727 140.535Z" fill="#7D32DF"/>
<path d="M109.581 126.102C109.02 125.681 108.603 125.098 108.387 124.431C108.171 123.764 108.167 123.046 108.375 122.377C109.289 120.004 111.419 119.459 112.898 118.885C116.642 117.514 122.128 117.251 125.298 119.634C125.87 120.047 126.295 120.633 126.51 121.305C126.725 121.977 126.72 122.7 126.495 123.369C125.58 125.732 123.48 126.287 121.972 126.851C119.606 127.641 117.11 127.971 114.619 127.823C112.878 127.57 111.118 127.386 109.581 126.102ZM113.219 119.206C111.828 119.722 109.678 120.179 108.813 122.348C108.585 122.957 108.561 123.623 108.743 124.247C108.926 124.871 109.305 125.419 109.824 125.81C112.742 127.998 118.121 127.677 121.914 126.462C123.324 125.898 125.357 125.489 126.222 123.34C126.401 122.73 126.388 122.079 126.185 121.477C125.981 120.875 125.597 120.35 125.084 119.974C123.628 118.918 121.892 118.316 120.095 118.243C117.76 118.062 115.414 118.39 113.219 119.206Z" fill="#7D32DF"/>
<g opacity="0.5">
<path d="M113.715 125.508C112.721 125.378 111.78 124.981 110.992 124.361C110.74 124.198 110.544 123.964 110.427 123.688C110.311 123.412 110.281 123.108 110.34 122.814C110.64 122.318 111.039 121.888 111.513 121.554C111.987 121.219 112.525 120.986 113.093 120.869L113.365 120.772C115.415 120.057 117.599 119.814 119.755 120.062C120.222 120.062 120.728 120.169 121.185 120.256C122.18 120.396 123.12 120.799 123.908 121.423C124.158 121.585 124.354 121.818 124.47 122.092C124.586 122.366 124.617 122.668 124.56 122.96C124.268 123.454 123.877 123.882 123.412 124.216C122.947 124.551 122.417 124.786 121.856 124.905L121.516 125.032C119.456 125.732 117.269 125.974 115.106 125.742H115.019C114.571 125.645 114.133 125.586 113.715 125.508Z" fill="#7D32DF"/>
</g>
<path opacity="0.5" d="M101.46 131.305C101.479 130.953 101.518 130.602 101.577 130.255C101.656 129.879 101.656 129.492 101.577 129.117C101.488 128.709 101.269 128.34 100.954 128.066L100.556 127.726C101.018 126.389 101.772 125.172 102.762 124.162C103.753 123.153 104.956 122.377 106.284 121.89C105.672 124.419 107.393 126.539 108.473 127.58C109.683 128.698 111.195 129.435 112.82 129.7C113.044 129.749 113.277 129.778 113.511 129.807C111.468 130.991 109.875 132.817 108.979 135.001C108.865 134.943 108.744 134.904 108.619 134.884C108.44 134.849 108.256 134.852 108.078 134.892C107.901 134.932 107.734 135.009 107.588 135.118C107.292 135.344 107.08 135.662 106.985 136.022L101.46 131.305Z" fill="#7D32DF"/>
<g opacity="0.4">
<path d="M104.961 131.354C104.622 131.028 104.405 130.595 104.348 130.129C104.253 129.572 104.367 129 104.669 128.524C104.782 128.342 104.931 128.186 105.107 128.064C105.283 127.943 105.483 127.859 105.692 127.818C105.902 127.776 106.118 127.779 106.327 127.825C106.536 127.872 106.733 127.96 106.906 128.086C107.058 128.224 107.178 128.394 107.255 128.585C107.332 128.775 107.366 128.98 107.354 129.185C107.342 129.712 107.187 130.227 106.906 130.673C106.684 131.061 106.343 131.368 105.934 131.549C105.771 131.617 105.591 131.635 105.418 131.6C105.244 131.566 105.085 131.48 104.961 131.354Z" fill="white"/>
</g>
<path opacity="0.5" d="M128.498 123.864C128.543 123.755 128.575 123.641 128.595 123.524C129.159 120.869 127.272 119.06 126.368 118.184C125.194 117.106 123.724 116.405 122.147 116.171L121.252 116.035C123.282 114.891 124.871 113.1 125.765 110.948C125.885 111.008 126.013 111.05 126.144 111.075C126.322 111.109 126.505 111.107 126.683 111.068C126.86 111.03 127.027 110.956 127.175 110.851C127.475 110.627 127.691 110.308 127.788 109.946L133.293 114.556C133.271 114.902 133.229 115.247 133.166 115.587C133.088 115.959 133.088 116.344 133.166 116.716C133.256 117.121 133.471 117.488 133.779 117.766L134.188 118.116C133.715 119.431 132.96 120.626 131.978 121.619C130.995 122.612 129.807 123.378 128.498 123.864Z" fill="#7D32DF"/>
<g opacity="0.4">
<path d="M128.021 118.029C127.869 117.893 127.749 117.724 127.672 117.536C127.594 117.347 127.561 117.143 127.574 116.939C127.603 116.42 127.774 115.918 128.07 115.49C128.634 114.673 129.432 114.303 130.015 114.819C130.352 115.14 130.563 115.571 130.609 116.035C130.695 116.584 130.574 117.146 130.268 117.61C130.133 117.807 129.957 117.972 129.752 118.094C129.547 118.217 129.319 118.294 129.082 118.32C128.894 118.349 128.703 118.337 128.521 118.287C128.338 118.237 128.168 118.149 128.021 118.029Z" fill="white"/>
</g>
<path d="M222.269 171.685C219.031 157.678 227.762 143.786 228.808 129.448C230.399 107.62 214.266 88.2488 211.953 66.4851C210.872 56.3124 212.95 45.8254 217.828 36.8324C220.661 31.6112 224.528 26.7955 229.667 23.8172C234.807 20.8409 241.637 19.1645 247.058 21.5918C248.913 14.4439 254.2 8.46021 260.649 4.86494C267.098 1.26967 274.621 -0.0904402 282.005 0.00463168C303.532 0.282086 324.394 13.466 333.882 32.7909C343.276 51.9236 341.582 74.6147 336.969 95.4258C334.008 108.782 329.923 122.591 333.137 135.89C334.78 142.696 338.259 148.912 340.43 155.569C342.601 162.226 343.319 169.933 339.65 175.897C325.911 176.417 311.978 176.423 298.239 176.943C272.337 177.921 247.578 177.294 222.269 171.685Z" fill="#00072D"/>
<path d="M350.032 389.953C351.739 398.606 353.641 407.24 355.717 415.855C343.105 427.846 325.915 432.366 308.705 434.947C290.137 437.741 271.219 439.138 252.535 437.004C233.87 434.889 215.399 429.146 199.838 418.61C202.302 410.228 204.572 401.749 206.609 393.193C206.784 392.553 206.92 391.932 207.075 391.291C210.315 377.613 212.993 363.74 215.049 349.828C215.146 349.208 215.243 348.567 215.34 347.946C215.942 343.794 216.485 339.642 216.951 335.471C218.076 325.808 218.872 316.126 219.337 306.464C219.376 305.824 219.395 305.164 219.434 304.524V304.388C213.633 298.063 209.054 289.526 206.338 281.396C193.765 282.269 181.386 278.214 170.87 271.249C171.51 266.592 172.306 261.877 173.237 257.162C173.354 256.542 173.47 255.901 173.625 255.261C176.109 242.843 179.543 230.387 183.87 218.396C184.083 217.795 184.296 217.174 184.529 216.573C186.993 209.859 189.729 203.301 192.717 196.996C194.735 192.746 196.889 188.517 199.45 184.578C199.857 183.918 200.284 183.278 200.73 182.638C202.612 179.921 204.708 177.36 207.114 175.051C213.478 168.959 222.539 164.128 231.25 165.311C231.949 170.919 232.841 176.817 234.355 182.483C234.51 183.142 234.704 183.782 234.898 184.423C236.14 188.652 237.77 192.746 239.962 196.394C247.102 208.288 260.335 216.126 274.149 217.174C287.964 218.241 302.05 212.634 311.732 202.739C316.931 197.422 320.928 190.884 323.489 183.841C323.722 183.181 323.955 182.521 324.149 181.842C325.934 176.332 326.827 170.569 326.749 164.846C336.431 164.846 346.423 168.493 353.233 175.401C354.727 176.914 355.989 178.602 357.094 180.406C357.502 181.008 357.851 181.629 358.2 182.269C359.287 184.209 360.238 186.208 361.15 188.226C364.894 196.394 368.328 204.718 371.413 213.158C371.627 213.779 371.86 214.38 372.073 215.001C376.419 227.089 380.086 239.409 383.055 251.904C383.21 252.545 383.365 253.185 383.501 253.806C384.918 259.937 386.179 266.088 387.246 272.277C375.585 276.895 363.109 280.387 350.614 281.629C348.829 288.711 345.569 295.443 341.223 301.322C340.719 302.021 340.214 302.681 339.652 303.34C339.477 303.573 339.283 303.825 339.089 304.058C339.885 317.174 341.068 330.213 342.64 343.212C342.717 343.853 342.795 344.493 342.873 345.133C344.25 356.386 345.938 367.601 347.937 378.777C348.499 381.862 349.062 384.966 349.663 388.051C349.78 388.672 349.916 389.312 350.032 389.953Z" fill="#F4DAA7"/>
<path d="M234.355 182.482C234.51 183.142 234.704 183.782 234.898 184.422C223.082 184.461 211.266 184.519 199.45 184.577C199.858 183.918 200.284 183.277 200.731 182.637C211.965 182.579 223.14 182.54 234.355 182.482Z" fill="#FFEFCF"/>
<path d="M358.201 182.269C350.634 182.793 343.067 183.2 335.5 183.472C331.503 183.627 327.487 183.743 323.49 183.84C323.723 183.181 323.956 182.521 324.15 181.842C335.132 181.57 346.113 181.105 357.095 180.406C357.503 181.008 357.852 181.629 358.201 182.269Z" fill="#FFEFCF"/>
<path d="M372.074 215C361.189 217.018 350.226 218.512 339.206 219.579C312.857 222.179 286.334 222.509 259.869 222.47C234.588 222.432 208.822 223.149 183.87 218.396C184.083 217.794 184.297 217.174 184.53 216.572C198.053 219.114 211.809 219.967 225.546 220.278C238.721 220.569 251.895 220.53 265.05 220.53C278.069 220.511 291.088 220.394 304.087 219.929C326.652 219.094 349.217 217.232 371.414 213.157C371.627 213.778 371.86 214.38 372.074 215Z" fill="#FFEFCF"/>
<path d="M383.501 253.806C371.879 256.056 360.102 257.415 348.305 258.365C318.406 260.752 288.332 261.508 258.336 261.237C229.931 260.985 201.526 259.626 173.237 257.162C173.354 256.541 173.47 255.901 173.625 255.261C188.507 256.561 203.447 257.531 218.387 258.21C248.363 259.568 278.398 259.704 308.394 258.618C323.257 258.094 338.158 257.356 352.962 256.018C363.051 255.106 373.121 253.845 383.055 251.904C383.21 252.545 383.365 253.185 383.501 253.806Z" fill="#FFEFCF"/>
<path d="M341.224 301.322C340.719 302.02 340.215 302.68 339.652 303.34C335.539 303.553 331.426 303.747 327.312 303.941C306.959 304.892 286.587 305.571 266.195 305.978C250.595 306.289 234.976 306.463 219.338 306.463C219.377 305.823 219.396 305.163 219.435 304.523C226.07 304.523 232.725 304.484 239.361 304.426C259.753 304.252 280.145 303.805 300.518 303.087C314.08 302.622 327.662 302.04 341.224 301.322Z" fill="#FFEFCF"/>
<path d="M215.719 205.723C215.401 204.516 213.531 205.028 213.849 206.239C216.476 216.224 212.508 226.177 209.06 235.426C205.649 244.578 202.987 254.058 202.7 263.88C202.543 269.25 203.137 274.635 204.623 279.802C204.968 280.999 206.841 280.49 206.493 279.285C203.748 269.737 204.289 259.664 206.519 250.069C207.638 245.252 209.206 240.572 210.933 235.94C212.681 231.249 214.516 226.561 215.611 221.662C216.784 216.418 217.097 210.96 215.719 205.723Z" fill="#DBBC7F"/>
<path d="M354.435 250.773C353.374 245.901 351.823 241.15 350.128 236.466C348.463 231.868 346.61 227.283 345.807 222.434C344.976 217.426 345.494 212.066 348.445 207.811C349.159 206.782 347.477 205.81 346.771 206.831C341.35 214.652 343.754 224.535 346.722 232.78C350.145 242.285 353.69 251.883 353.93 262.106C354.058 267.584 353.23 273.032 351.121 278.104C350.644 279.256 352.52 279.759 352.991 278.62C356.656 269.799 356.439 259.97 354.435 250.773Z" fill="#DBBC7F"/>
<path d="M308.465 311.189C305.43 319.274 300.905 326.688 295.977 333.745C291.392 340.307 286.468 346.632 281.224 352.681C270.797 364.705 259.087 375.662 246.191 385.002C238.986 390.219 231.418 394.926 223.54 399.057C222.434 399.637 223.414 401.312 224.52 400.732C238.759 393.267 251.953 383.896 263.893 373.143C275.861 362.365 286.561 350.208 295.95 337.128C301.645 329.197 306.891 320.885 310.337 311.705C310.775 310.535 308.901 310.029 308.465 311.189Z" fill="#DBBC7F"/>
<path d="M338.88 169.703C333.399 191.732 321.511 214.538 299.427 223.651C289.08 227.922 277.421 228.704 266.519 226.296C261.172 225.114 256.001 223.184 251.222 220.51C245.77 217.46 241.253 213.461 237.549 208.432C229.645 197.703 224.648 184.887 223.141 171.651C223.001 170.425 221.059 170.411 221.201 171.651C222.588 183.839 226.757 195.652 233.467 205.935C236.841 211.108 240.768 215.846 245.844 219.427C250.663 222.829 256.137 225.366 261.779 227.064C272.733 230.361 284.728 230.477 295.671 227.06C306.612 223.644 316.032 216.593 323.221 207.751C332.053 196.89 337.396 183.7 340.751 170.215C341.051 169.008 339.181 168.49 338.88 169.703Z" fill="#DBBC7F"/>
<path d="M241.23 51.6184C242.134 63.6731 243.039 75.7278 243.943 87.7826C244.537 95.7046 245.14 103.681 247.199 111.353C249.257 119.024 252.885 126.461 258.716 131.855C264.199 136.929 271.527 139.975 278.991 140.239C286.457 140.503 293.997 137.975 299.764 133.227C305.441 128.555 309.28 121.944 311.642 114.981C314.001 108.017 314.975 100.668 315.699 93.353C317.086 79.3425 317.608 65.2467 317.261 51.1721C306.261 43.3879 292.816 39.0049 279.341 38.9622C265.868 38.9195 252.28 43.9059 241.23 51.6184Z" fill="#996150"/>
<path d="M326.749 164.845C326.943 178.699 321.432 192.824 311.731 202.738C302.049 212.634 287.963 218.241 274.149 217.174C260.334 216.126 247.102 208.287 239.962 196.394C234.529 187.352 232.569 175.788 231.25 165.311C238.836 163.875 246.015 162.304 253.369 159.937C254.863 155.338 256.046 150.623 256.9 145.85C257.734 141.136 258.239 136.363 258.433 131.57C258.53 131.667 258.627 131.764 258.724 131.861C264.195 136.925 271.529 139.971 278.999 140.243C286.314 140.515 293.706 138.07 299.43 133.472C299.546 133.394 299.643 133.316 299.76 133.219C300.575 132.56 301.351 131.842 302.069 131.104C302.748 140.612 304.436 150.041 307.075 159.199C313.458 161.527 320.074 163.584 326.749 164.845Z" fill="#996150"/>
<path d="M313.631 100.942C316.359 101.97 319.535 101.281 321.941 99.6357C324.347 97.9885 326.06 95.4933 327.294 92.8507C329.258 88.6462 330.121 83.9353 329.78 79.3098C329.609 76.9892 329.035 74.5057 327.257 73.004C324.995 71.0948 321.445 71.477 318.99 73.132C316.536 74.7871 314.949 77.4277 313.548 80.0335L313.631 100.942Z" fill="#996150"/>
<path d="M245.969 101.657C240.872 102.424 235.767 99.1195 233.258 94.6181C230.749 90.1168 230.449 84.6841 231.106 79.5735C231.326 77.868 231.656 76.1431 232.463 74.6239C233.272 73.1047 234.624 71.8028 236.299 71.407C238.041 70.9976 239.9 71.6224 241.349 72.674C242.798 73.7256 243.908 75.1672 244.987 76.5971L245.969 101.657Z" fill="#996150"/>
<path d="M380.752 303.559C359.664 284.128 336.689 270.224 311.759 252.845C305.362 245.381 298.666 236.931 288.99 235.197C279.844 233.557 270.172 234.82 261.718 238.678C261.668 248.767 264.536 258.841 270.275 267.141C279.353 269.766 288.692 271.493 298.11 272.29C318.174 298.635 340.271 319.32 364.177 342.234C374.324 330.616 379.54 318.938 380.752 303.559Z" fill="#996150"/>
<path d="M392.233 335.122C389.75 339.856 384.938 343.057 379.816 344.629C378.865 344.939 377.895 345.172 376.925 345.386C369.513 346.977 362.101 342.766 359.579 335.626C354.108 320.046 350.518 303.69 348.869 287.275V287.217C349.548 285.393 350.13 283.531 350.615 281.629C361.093 280.582 371.55 277.962 381.523 274.412C382.881 275.789 383.91 277.497 384.55 279.417C388.838 292.553 392.66 305.844 394.038 319.542C394.581 324.819 394.678 330.407 392.233 335.122Z" fill="#996150"/>
<path d="M288.018 279.64H262.719C259.933 279.64 257.675 277.382 257.675 274.596V213.379C257.675 210.593 259.933 208.334 262.719 208.334H288.018C290.804 208.334 293.063 210.593 293.063 213.379V274.596C293.063 277.382 290.804 279.64 288.018 279.64Z" fill="#00072D"/>
<path d="M178.31 303.559C199.399 284.128 222.373 270.224 247.304 252.845C253.701 245.381 260.396 236.931 270.072 235.197C279.219 233.557 288.891 234.82 297.344 238.678C297.395 248.767 294.527 258.841 288.788 267.141C279.709 269.766 270.371 271.493 260.953 272.29C240.889 298.635 218.792 319.32 194.886 342.234C184.738 330.616 179.523 318.938 178.31 303.559Z" fill="#996150"/>
<path d="M209.908 290.07C208.142 305.533 204.65 320.92 199.469 335.627C196.966 342.767 189.555 346.977 182.143 345.386C181.153 345.173 180.203 344.94 179.252 344.629C174.13 343.058 169.299 339.856 166.834 335.122C164.37 330.407 164.487 324.819 165.011 319.542C166.408 305.844 170.23 292.553 174.518 279.418C175.08 277.71 175.954 276.197 177.079 274.897C186.12 279.573 196.171 282.095 206.338 281.397C207.308 284.288 208.491 287.218 209.908 290.07Z" fill="#996150"/>
<path d="M282.638 216.172C282.638 217.878 284.021 219.261 285.726 219.261C287.432 219.261 288.815 217.878 288.815 216.172C288.815 214.467 287.432 213.083 285.726 213.083C284.021 213.082 282.638 214.467 282.638 216.172Z" fill="white"/>
<path d="M283.884 223.186C283.884 224.205 284.71 225.031 285.729 225.031C286.747 225.031 287.574 224.205 287.574 223.186C287.574 222.167 286.747 221.341 285.729 221.341C284.71 221.341 283.884 222.167 283.884 223.186Z" fill="white"/>
<path d="M321.394 61.4503C320.657 65.7382 319.144 70.0844 317.611 74.2365C317.378 74.4693 317.165 74.6828 316.951 74.9156C316.602 68.3576 315.302 61.5085 310.762 56.8131C306.319 52.2147 299.567 50.5655 293.183 50.5267C286.78 50.4685 280.455 51.7879 274.072 52.1565C267.688 52.5058 260.723 50.8178 255.484 47.1507C254.689 57.2594 250.129 67.0188 242.97 74.1589C242.485 73.6156 241.941 73.1112 241.34 72.6843C240.894 72.3545 240.389 72.0634 239.865 71.8306C238.274 67.6397 236.547 63.4682 236.101 59.0638C235.539 53.2819 236.295 47.2089 239.322 42.2419C243.765 34.9272 252.341 31.1631 260.684 29.2617C272.248 26.6229 284.413 26.6617 295.938 29.4169C300.983 30.6198 305.95 32.3467 310.316 35.16C314.662 37.9734 318.387 41.9315 320.308 46.7627C322.132 51.3804 322.229 56.5415 321.394 61.4503Z" fill="#00072D"/>
<path d="M281.495 74.5098C281.637 79.7484 281.778 84.9851 281.92 90.2238C280.127 89.3972 277.807 89.9289 276.553 91.4559C275.3 92.9809 275.228 95.3596 276.387 96.9584C277.545 98.5571 279.827 99.2304 281.668 98.5144" stroke="#25262B" stroke-miterlimit="10" stroke-linecap="round" stroke-linejoin="round"/>
<path d="M300.271 75.4136C297.653 76.5234 295.629 78.9409 294.995 81.7116C297.735 79.7073 301.553 79.2824 304.665 80.6348" stroke="#25262B" stroke-miterlimit="10" stroke-linecap="round" stroke-linejoin="round"/>
<path d="M263.16 75.7856C264.82 77.3669 266.122 79.3246 266.939 81.4686C263.505 80.1221 259.531 80.2172 256.167 81.7247" stroke="#25262B" stroke-miterlimit="10" stroke-linecap="round" stroke-linejoin="round"/>
<path d="M309.332 72.2781C308.457 68.1201 304.623 64.7713 300.386 64.4628C296.148 64.1523 291.87 66.9094 290.399 70.8947" stroke="#25262B" stroke-miterlimit="10" stroke-linecap="round" stroke-linejoin="round"/>
<path d="M269.153 72.775C268.866 69.8452 267.029 67.1133 264.425 65.7435C261.821 64.3718 258.528 64.4047 255.952 65.825C253.375 67.2453 251.59 70.0121 251.359 72.9457" stroke="#25262B" stroke-miterlimit="10" stroke-linecap="round" stroke-linejoin="round"/>
<path d="M266.358 118.747C274.567 114.365 286.17 113.68 295.436 117.031C294.051 121.617 288.127 125.498 281.785 125.947C275.444 126.399 269.148 123.037 266.358 118.747Z" fill="white"/>
<path d="M325.428 87.5986C323.862 88.041 322.378 88.7356 321.018 89.6242C322.392 87.0282 324.293 84.7115 326.62 82.9149C327.033 82.5947 327.256 82.0806 326.967 81.5877C326.728 81.1803 326.057 80.9183 325.64 81.2404C321.92 84.112 319.152 88.0138 317.716 92.4861C317.384 92.8819 317.341 93.4581 317.726 93.8423C318.003 94.1198 318.476 94.1954 318.837 94.0247C319.049 93.9587 319.225 93.8171 319.348 93.592C321.138 91.6246 323.395 90.1908 325.942 89.4709C327.143 89.1295 326.633 87.2571 325.428 87.5986Z" fill="#713D31"/>
<path d="M243.864 92.3872C243.454 89.8047 242.246 87.4299 240.765 85.3014C239.188 83.0333 237.356 80.932 235.406 78.9782C234.523 78.0934 233.15 79.4652 234.034 80.3499C236.873 83.1943 239.913 86.5568 241.324 90.445C239.975 89.731 238.491 89.2906 236.947 89.242C236.438 89.2265 235.953 89.6999 235.977 90.2122C236 90.7516 236.403 91.1648 236.947 91.1823C237.203 91.19 237.459 91.2095 237.715 91.2366C237.734 91.2386 237.746 91.2405 237.762 91.2424C237.82 91.2521 237.876 91.2599 237.934 91.2696C238.06 91.2909 238.187 91.3162 238.313 91.3433C238.563 91.3977 238.813 91.4636 239.058 91.5393C239.18 91.5781 239.302 91.6169 239.423 91.6615C239.483 91.6829 239.543 91.7042 239.603 91.7275C239.617 91.7333 239.735 91.7799 239.766 91.7915C239.878 91.8381 240.197 91.9894 240.379 92.0864C240.606 92.2067 240.829 92.3348 241.045 92.4745C241.223 92.589 241.52 92.7966 241.615 92.8722C241.555 92.8237 241.693 92.9363 241.704 92.946C241.753 92.9867 241.803 93.0275 241.852 93.0701C241.96 93.1652 242.067 93.2622 242.172 93.3612C242.484 93.6561 242.983 93.7143 243.351 93.4931C243.767 93.2875 243.936 92.847 243.864 92.3872Z" fill="#713D31"/>
<path d="M299.43 133.472C295.356 139.506 288.72 143.794 281.638 145.753C273.625 147.985 265.088 147.539 256.9 145.851C257.735 141.136 258.239 136.363 258.433 131.57C258.53 131.667 258.627 131.764 258.724 131.861C264.196 136.925 271.53 139.972 279 140.243C286.314 140.515 293.707 138.07 299.43 133.472Z" fill="#713D31"/>
<path d="M285.926 169.49C285.424 172.084 283.173 173.39 280.649 173.373C278.233 173.357 275.647 172.208 274.991 169.696C274.677 168.489 272.804 169.001 273.121 170.212C273.998 173.569 277.376 175.288 280.651 175.313C283.98 175.338 287.137 173.429 287.801 170.004C288.033 168.786 286.163 168.264 285.926 169.49Z" fill="#713D31"/>
<path d="M208.107 278.92C202.343 282.966 196.578 287.009 190.814 291.055C185.5 294.784 180.119 298.486 175.511 303.092C174.626 303.977 175.998 305.348 176.883 304.464C181.491 299.859 186.873 296.183 192.186 292.454L209.087 280.595C210.1 279.885 209.132 278.201 208.107 278.92Z" fill="#713D31"/>
<path d="M297.923 240.168C297.514 237.329 294.679 236.374 292.262 235.565C291.074 235.168 290.566 237.042 291.746 237.436C292.933 237.833 294.307 238.28 295.304 239.067C296.311 239.861 296.148 241.654 296.102 242.826C295.999 245.422 295.39 248.031 294.683 250.523C293.337 255.278 291.226 259.766 288.482 263.875C287.788 264.917 289.468 265.889 290.159 264.855C293.379 260.028 295.754 254.642 297.085 248.99C297.757 246.145 298.346 243.092 297.923 240.168Z" fill="#713D31"/>
<path d="M380.579 302.786C372.245 294.351 363.776 285.853 353.51 279.763C352.433 279.124 351.456 280.801 352.53 281.439C362.657 287.444 370.99 295.839 379.207 304.157C380.086 305.048 381.457 303.676 380.579 302.786Z" fill="#713D31"/>
<path d="M246.938 44.4787C244.369 50.7437 240.413 56.3782 235.449 60.9766C234.532 61.8264 235.905 63.1962 236.821 62.3483C242.044 57.5113 246.111 51.5761 248.81 44.9948C249.281 43.8384 247.405 43.3359 246.938 44.4787Z" fill="#FAFAC6"/>
<path d="M244.359 29.9906C229.149 36.9153 219.85 52.7962 219.563 69.2766C219.402 78.5257 221.988 87.2743 226.198 95.4388C230.308 103.404 235.327 111.036 236.821 120.039C238.678 131.225 235.705 142.577 232.9 153.34C232.586 154.548 234.456 155.064 234.77 153.856C237.19 144.579 239.629 135.057 239.279 125.392C239.114 120.831 238.272 116.329 236.674 112.051C235.149 107.973 233.102 104.121 231.018 100.307C228.911 96.4458 226.738 92.5925 225.09 88.5044C223.389 84.2786 222.24 79.8063 221.765 75.2739C220.843 66.4943 222.296 57.4741 226.456 49.6472C230.628 41.7969 237.229 35.3592 245.337 31.6669C246.474 31.1489 245.488 29.4764 244.359 29.9906Z" fill="#00072D"/>
<path d="M248.168 124.392C247.966 123.164 246.096 123.684 246.297 124.908C247.574 132.677 246.833 140.643 244.231 148.067C243.818 149.246 245.69 149.755 246.101 148.583C248.823 140.816 249.503 132.504 248.168 124.392Z" fill="#00072D"/>
<path d="M308.961 41.7279C305.106 39.5917 300.896 38.4585 296.513 38.1209C291.002 37.696 285.498 38.4042 279.989 38.5071C274.371 38.6118 268.585 38.0608 263.662 35.1291C262.587 34.4888 261.61 36.1652 262.683 36.8035C271.398 41.9917 281.743 40.131 291.344 39.9409C296.161 39.8458 300.987 40.2572 305.459 42.1644C309.153 43.7399 312.49 46.1322 315.16 49.1299C318.166 52.504 320.17 56.6444 320.816 61.1225C320.995 62.3526 322.863 61.8307 322.686 60.6064C321.52 52.5273 316 45.6297 308.961 41.7279Z" fill="#FAFAC6"/>
<path d="M312.879 21.4438C303.236 14.4628 290.929 11.9444 279.284 14.1679C272.031 15.5513 265.195 18.4791 258.436 21.3604C257.291 21.8493 258.279 23.5199 259.415 23.0368C270.607 18.2677 282.223 13.712 294.602 15.8618C305.442 17.7457 315.225 23.8827 321.451 32.9766C324.809 37.8816 327.078 43.4326 328.119 49.2824C328.339 50.5087 330.209 49.9906 329.99 48.7663C328.052 37.8835 321.835 27.9301 312.879 21.4438Z" fill="#00072D"/>
<path d="M330.304 102.261C330.814 101.131 329.143 100.144 328.629 101.281C322.609 114.589 320.936 129.645 323.804 143.968C324.623 148.054 325.824 152.051 327.378 155.918C327.838 157.063 329.716 156.562 329.248 155.402C323.969 142.261 322.948 127.569 326.32 113.815C327.292 109.849 328.622 105.978 330.304 102.261Z" fill="#00072D"/>
<path d="M316.48 153.953C314.856 150.676 314.55 146.809 314.115 143.227C313.659 139.477 313.341 135.713 313.143 131.941C313.079 130.699 311.137 130.692 311.203 131.941C311.414 136.004 311.769 140.057 312.281 144.093C312.749 147.773 313.135 151.567 314.804 154.931C315.361 156.051 317.035 155.069 316.48 153.953Z" fill="#00072D"/>
</g>
<defs>
<clipPath id="clip0_967_1202">
<rect width="443" height="312" fill="white" transform="translate(58.7031)"/>
</clipPath>
</defs>
</svg>
