<svg width="343" height="340" viewBox="0 0 343 340" fill="none" xmlns="http://www.w3.org/2000/svg">
<g clip-path="url(#clip0_974_36521)">
<path d="M0 0H343V324C343 332.837 335.837 340 327 340H16C7.16345 340 0 332.837 0 324V0Z" fill="#F7F9FD"/>
<g clip-path="url(#clip1_974_36521)">
<path d="M216.596 183.277C204.87 178.908 204.427 169.894 192.702 165.535L179.053 171.44C190.777 175.808 191.222 184.822 202.946 189.191L216.596 183.277Z" fill="#F0F0F0"/>
<path d="M180.717 171.458C191.294 175.891 192.127 184.119 202.713 188.543L214.928 183.258C204.351 178.835 203.518 170.598 192.932 166.173L180.717 171.458ZM181.522 171.458L193.025 166.479C203.074 170.912 204.073 178.788 214.114 183.221L202.621 188.201C192.617 183.786 191.571 175.91 181.512 171.477L181.522 171.458Z" fill="#F2D5F8"/>
<path d="M197.023 181.601C195.499 181.378 194.101 180.629 193.071 179.482C192.632 179.023 192.316 178.458 192.155 177.844C191.993 177.228 191.99 176.582 192.146 175.966C192.326 175.414 192.625 174.911 193.022 174.489C193.418 174.066 193.903 173.736 194.441 173.522C197.217 172.374 201.012 173.318 202.584 175.234C203.023 175.694 203.339 176.258 203.501 176.873C203.662 177.489 203.665 178.135 203.51 178.751C203.319 179.297 203.015 179.798 202.619 180.219C202.222 180.64 201.74 180.973 201.205 181.195C199.874 181.705 198.428 181.846 197.023 181.601ZM198.559 173.356C197.194 173.123 195.791 173.261 194.496 173.753C194.006 173.967 193.567 174.279 193.203 174.67C192.84 175.062 192.562 175.526 192.387 176.03C192.242 176.601 192.244 177.199 192.394 177.768C192.542 178.338 192.833 178.861 193.238 179.287C194.765 181.139 198.485 182.065 201.15 180.963C201.666 180.728 202.127 180.39 202.504 179.968C202.882 179.546 203.168 179.049 203.343 178.51C203.447 177.962 203.418 177.396 203.257 176.861C203.096 176.325 202.808 175.838 202.418 175.438C201.412 174.317 200.048 173.579 198.559 173.356Z" fill="#F2D5F8"/>
<path d="M197.346 180.223C196.173 180.011 195.099 179.426 194.284 178.557C194.011 178.252 193.808 177.891 193.692 177.499C193.575 177.107 193.547 176.694 193.607 176.289C193.73 175.945 193.928 175.633 194.186 175.374C194.443 175.114 194.755 174.915 195.098 174.79C196.116 174.394 197.226 174.291 198.3 174.494C199.468 174.72 200.537 175.302 201.362 176.159C201.637 176.465 201.839 176.829 201.955 177.222C202.073 177.616 202.101 178.031 202.037 178.436C201.916 178.78 201.719 179.092 201.461 179.35C201.204 179.607 200.891 179.805 200.548 179.927C199.533 180.34 198.419 180.442 197.346 180.223Z" fill="#F2D5F8"/>
<path d="M201.428 186.063C202.032 185.848 202.698 185.881 203.278 186.156C203.537 186.285 203.705 186.359 203.926 186.452L210.006 183.842C209.875 183.778 209.762 183.681 209.678 183.561C209.594 183.441 209.541 183.302 209.525 183.157C209.516 182.998 209.554 182.841 209.636 182.704C209.716 182.567 209.835 182.458 209.979 182.388C208.182 181.255 206.532 179.906 205.064 178.373C205.064 178.52 205.009 178.678 204.972 178.835C204.683 179.629 204.224 180.351 203.628 180.95C203.032 181.55 202.313 182.012 201.52 182.305C199.952 182.963 198.241 183.206 196.551 183.009C197.878 184.259 199.34 185.358 200.91 186.285L201.428 186.063Z" fill="#F2D5F8"/>
<path d="M204.149 184.498C203.719 184.472 203.303 184.338 202.937 184.11C202.795 184.03 202.677 183.914 202.594 183.774C202.512 183.635 202.467 183.476 202.465 183.314C202.493 183.173 202.558 183.043 202.652 182.937C202.745 182.829 202.867 182.749 203.001 182.703C203.369 182.58 203.759 182.543 204.142 182.594C204.525 182.645 204.892 182.784 205.213 182.999C205.356 183.075 205.478 183.186 205.57 183.319C205.662 183.453 205.721 183.606 205.741 183.767C205.727 183.903 205.673 184.032 205.585 184.137C205.498 184.243 205.381 184.32 205.251 184.359C204.9 184.494 204.522 184.542 204.149 184.498Z" fill="#F0F0F0"/>
<path d="M190.611 176.373C190.641 176.108 190.687 175.846 190.75 175.587C191.073 174.3 192.258 173.171 194.081 172.403C195.662 171.755 197.383 171.529 199.078 171.746C197.761 170.51 196.312 169.423 194.756 168.506L194.248 168.719C193.643 168.934 192.977 168.901 192.397 168.626C192.138 168.506 191.98 168.423 191.749 168.33L185.688 170.913C185.815 170.982 185.923 171.08 186.005 171.199C186.086 171.318 186.14 171.454 186.16 171.597C186.168 171.755 186.129 171.913 186.049 172.05C185.968 172.187 185.849 172.296 185.706 172.365C187.497 173.498 189.143 174.845 190.611 176.373Z" fill="#F2D5F8"/>
<path d="M191.536 172.301C191.124 172.258 190.73 172.115 190.388 171.885C190.245 171.807 190.124 171.696 190.035 171.56C189.947 171.424 189.893 171.269 189.879 171.107C189.889 170.97 189.94 170.841 190.026 170.735C190.113 170.629 190.229 170.552 190.36 170.515C190.74 170.385 191.143 170.342 191.542 170.387C191.939 170.431 192.323 170.564 192.665 170.774C192.808 170.85 192.928 170.965 193.01 171.105C193.092 171.246 193.132 171.407 193.127 171.57C193.097 171.711 193.031 171.842 192.935 171.951C192.84 172.059 192.717 172.142 192.581 172.19C192.248 172.318 191.888 172.356 191.536 172.301Z" fill="#F0F0F0"/>
<path d="M188.713 44.4873C198.66 52.0764 206.517 47.634 216.474 55.2324C217.245 60.1253 218.007 65.0274 218.76 69.9388C208.812 62.3404 200.955 66.7827 190.998 59.1843C190.227 54.2915 189.466 49.3924 188.713 44.4873Z" fill="#F0F0F0"/>
<path d="M215.809 55.3809C206.416 48.7821 199.013 52.4748 189.621 45.8853C190.305 50.2721 190.988 54.656 191.666 59.0366C201.058 65.6356 208.461 61.9427 217.854 68.5324L215.809 55.3809ZM191.989 58.9441C191.373 54.8164 190.731 50.6886 190.065 46.5608C199.171 52.6969 206.37 49.3373 215.476 55.4735C216.093 59.6013 216.734 63.729 217.401 67.8568C208.295 61.7206 201.095 65.0802 191.989 58.9441Z" fill="#F2D5F8"/>
<path d="M198.689 56.39C198.59 55.8204 198.614 55.2364 198.756 54.6764C198.9 54.1166 199.161 53.5934 199.522 53.1414C199.961 52.6813 200.509 52.3405 201.117 52.1511C201.724 51.9616 202.369 51.9298 202.992 52.0586C205.453 52.3641 208.303 55.1035 208.785 58.0282C208.892 58.5982 208.873 59.1851 208.727 59.7467C208.581 60.3083 208.314 60.8309 207.942 61.2767C207.505 61.737 206.958 62.0786 206.353 62.2696C205.748 62.4607 205.104 62.4948 204.481 62.3688C202.963 62.1045 201.584 61.323 200.576 60.1568C199.624 59.0908 198.972 57.7908 198.689 56.39ZM202.917 52.2993C202.37 52.1841 201.802 52.2022 201.263 52.3521C200.723 52.5018 200.227 52.7789 199.818 53.16C199.451 53.5922 199.18 54.0963 199.02 54.6398C198.861 55.1835 198.817 55.7545 198.892 56.316C199.364 59.1757 202.14 61.869 204.537 62.1189C205.114 62.2342 205.709 62.2013 206.269 62.0232C206.829 61.8452 207.335 61.5278 207.739 61.1009C208.075 60.6849 208.32 60.2032 208.458 59.6867C208.597 59.1703 208.626 58.6306 208.543 58.1022C208.265 56.7263 207.627 55.4489 206.693 54.4001C205.707 53.2942 204.377 52.5538 202.917 52.2993Z" fill="#F2D5F8"/>
<path d="M200.113 56.2788C200.031 55.922 200.03 55.5515 200.11 55.1943C200.19 54.8372 200.35 54.5025 200.575 54.2148C200.885 53.9461 201.252 53.7494 201.647 53.6389C202.042 53.5286 202.457 53.5072 202.862 53.5763C204.026 53.8148 205.086 54.41 205.897 55.2792C206.644 56.0785 207.152 57.0731 207.359 58.1483C207.436 58.5038 207.434 58.8718 207.354 59.2267C207.275 59.5816 207.118 59.9147 206.895 60.2029C206.586 60.4717 206.22 60.6684 205.825 60.7788C205.429 60.8892 205.015 60.9107 204.61 60.8415C203.492 60.6134 202.468 60.0576 201.667 59.2451C200.866 58.4324 200.325 57.3998 200.113 56.2788Z" fill="#F2D5F8"/>
<path d="M194.467 58.805C194.326 58.1764 193.944 57.628 193.404 57.278C193.154 57.1299 193.005 57.028 192.802 56.8892L191.766 50.4107C191.895 50.4758 192.037 50.5097 192.182 50.5097C192.327 50.5097 192.469 50.4758 192.598 50.4107C192.736 50.3322 192.849 50.215 192.921 50.0736C192.993 49.9322 193.023 49.7726 193.005 49.6147C194.926 50.5247 196.948 51.199 199.03 51.6231C198.91 51.7249 198.798 51.836 198.688 51.947C198.169 52.6159 197.803 53.3896 197.615 54.2144C197.426 55.0392 197.419 55.8951 197.595 56.7226C197.864 58.4184 198.571 60.014 199.65 61.3502C197.884 60.8905 196.175 60.2387 194.551 59.4066L194.467 58.805Z" fill="#F2D5F8"/>
<path d="M193.85 54.6595C193.813 54.5289 193.816 54.3902 193.859 54.2615C193.902 54.1327 193.982 54.0198 194.09 53.9376C194.233 53.8637 194.392 53.8252 194.553 53.8252C194.714 53.8252 194.872 53.8637 195.015 53.9376C195.374 54.0976 195.691 54.3391 195.94 54.6427C196.188 54.9464 196.363 55.3039 196.45 55.6869C196.484 55.8253 196.481 55.9705 196.44 56.1072C196.4 56.244 196.323 56.3674 196.218 56.4642C196.081 56.5524 195.92 56.5992 195.756 56.5992C195.592 56.5992 195.432 56.5524 195.294 56.4642C194.904 56.2735 194.567 55.9908 194.312 55.6405C194.085 55.3535 193.926 55.0178 193.85 54.6595Z" fill="#F0F0F0"/>
<path d="M208.423 62.7848C208.631 62.6167 208.825 62.4342 209.006 62.2388C209.932 61.3133 210.246 59.6844 209.932 57.7316C209.643 56.0316 208.916 54.4365 207.822 53.104C209.569 53.5657 211.263 54.211 212.875 55.0291L212.958 55.5752C213.1 56.2031 213.483 56.7507 214.022 57.1022C214.271 57.2503 214.42 57.3521 214.623 57.4909L215.679 63.9695C215.549 63.9044 215.406 63.8705 215.261 63.8705C215.117 63.8705 214.975 63.9044 214.845 63.9695C214.706 64.0471 214.594 64.1641 214.522 64.3057C214.449 64.4474 214.42 64.6074 214.438 64.7655C212.52 63.8681 210.5 63.2032 208.423 62.7848Z" fill="#F2D5F8"/>
<path d="M210.885 58.8882C210.855 58.7496 210.859 58.6055 210.899 58.4694C210.941 58.3334 211.015 58.2099 211.116 58.1108C211.257 58.0295 211.417 57.9868 211.579 57.9868C211.742 57.9868 211.901 58.0295 212.042 58.1108C212.406 58.2914 212.724 58.5516 212.975 58.8719C213.224 59.1923 213.399 59.5648 213.486 59.9618C213.525 60.0937 213.522 60.2343 213.479 60.3649C213.437 60.4956 213.355 60.61 213.244 60.6929C213.103 60.7683 212.943 60.8077 212.782 60.8077C212.621 60.8077 212.462 60.7683 212.32 60.6929C211.94 60.5242 211.607 60.2671 211.348 59.9433C211.1 59.6408 210.94 59.2757 210.885 58.8882Z" fill="#F0F0F0"/>
<path d="M329.334 97.8799C341.771 96.5194 344.409 87.8845 356.846 86.5332L368.634 95.6031C356.198 96.9637 353.56 105.599 341.124 106.959L329.334 97.8799Z" fill="#F0F0F0"/>
<path d="M356.466 87.0986C345.121 88.7924 342.298 96.5758 330.953 98.2603L341.502 106.386C352.847 104.683 355.67 96.9091 367.015 95.2061L356.466 87.0986ZM341.66 106.099C338.359 103.545 335.05 100.997 331.73 98.4546C342.557 96.6036 345.454 89.1996 356.281 87.3948L366.21 95.0303C355.393 96.872 352.497 104.267 341.67 106.099H341.66Z" fill="#F2D5F8"/>
<path d="M343.361 104.304C343.094 104.122 342.792 103.995 342.474 103.932C342.155 103.868 341.829 103.869 341.511 103.933L340.807 104.063L335.561 100.046C335.701 100.011 335.831 99.943 335.94 99.8481C336.049 99.7533 336.135 99.6341 336.19 99.5002C336.238 99.3482 336.24 99.1852 336.196 99.0319C336.151 98.8787 336.062 98.7421 335.94 98.6396C337.958 97.9807 339.889 97.0762 341.687 95.9463C341.687 96.1037 341.687 96.261 341.687 96.4184C341.772 97.2596 342.04 98.0721 342.472 98.7993C342.903 99.5266 343.487 100.151 344.185 100.629C345.537 101.653 347.131 102.31 348.812 102.536C347.219 103.418 345.534 104.123 343.788 104.637L343.361 104.304Z" fill="#F2D5F8"/>
<path d="M340.068 101.712C339.953 101.644 339.862 101.543 339.805 101.423C339.75 101.302 339.731 101.167 339.753 101.036C339.809 100.884 339.902 100.747 340.023 100.639C340.143 100.531 340.29 100.454 340.447 100.416C340.811 100.287 341.2 100.244 341.583 100.289C341.966 100.334 342.335 100.466 342.659 100.675C342.781 100.75 342.879 100.857 342.944 100.985C343.009 101.112 343.039 101.254 343.029 101.397C342.988 101.554 342.907 101.697 342.793 101.812C342.679 101.927 342.537 102.011 342.381 102.054C341.969 102.19 341.53 102.218 341.104 102.137C340.73 102.081 340.374 101.935 340.068 101.712Z" fill="#F0F0F0"/>
<path d="M1.06524 58.6018C-0.470882 43.3679 -18.2566 57.6763 -19.7927 42.4609L-26.7793 51.5032C-25.2432 66.7185 -7.45743 52.4286 -5.92131 67.6348L1.06524 58.6018Z" fill="#F0F0F0"/>
<path d="M-26.3906 52.0675C-23.67 65.7835 -8.392 52.3821 -5.67143 66.1167L0.584101 58.037C-2.13647 44.3024 -17.4422 57.7037 -20.1351 43.9785C-22.2141 46.681 -24.2992 49.3773 -26.3906 52.0675ZM-15.8414 58.8514C-18.3676 58.5645 -25.1783 58.8514 -26.1408 52.3081L-20.2184 44.7004C-19.2929 51.2623 -12.4545 50.9569 -9.91893 51.2437C-7.59618 51.5121 -0.387556 51.2437 0.371317 57.7871L-5.51416 65.3947C-6.33774 58.8977 -13.5186 59.1198 -15.8414 58.8514Z" fill="#F2D5F8"/>
<path d="M-44.5742 113.678C-30.1569 111.827 -27.2789 101.748 -12.8615 99.9067L1.06535 110.198C-13.352 112.049 -16.2299 122.128 -30.6473 123.97L-44.5742 113.678Z" fill="#F0F0F0"/>
<path d="M-42.6191 239.397C-28.2018 237.545 -25.3239 227.467 -10.9064 225.625L3.02042 235.917C-11.3969 237.767 -14.2748 247.846 -28.6922 249.688L-42.6191 239.397Z" fill="#F0F0F0"/>
<path d="M-11.3313 226.292C-24.4809 228.504 -27.5901 237.601 -40.7305 239.813L-28.3026 249.069C-15.1623 246.857 -12.0438 237.758 1.09661 235.537L-11.3313 226.292ZM-28.1083 248.68L-39.8051 240.008C-27.2754 237.648 -24.0737 228.994 -11.5256 226.634L0.171185 235.297C-12.3676 237.657 -15.5695 246.31 -28.1083 248.68Z" fill="#F2D5F8"/>
<path d="M144.814 94.947C160.222 92.6239 163.063 81.74 178.47 79.4077L193.618 90.1066C178.201 92.4296 175.37 103.314 159.954 105.664L144.814 94.947Z" fill="#BA68C8"/>
<path opacity="0.6" d="M144.814 94.947C160.222 92.6239 163.063 81.74 178.47 79.4077L193.618 90.1066C178.201 92.4296 175.37 103.314 159.954 105.664L144.814 94.947Z" fill="white"/>
<path d="M178.034 80.1294C163.997 82.8319 160.878 92.707 146.85 95.354L160.397 104.915C174.435 102.221 177.544 92.3923 191.583 89.6992L178.034 80.1294ZM160.6 104.544L147.849 95.5391C161.221 92.707 164.45 83.3502 177.813 80.5089L190.564 89.5141C177.202 92.3554 173.972 101.703 160.6 104.544Z" fill="#BA68C8"/>
<path d="M164.108 96.3347C163.513 95.9279 163.012 95.4002 162.636 94.7862C162.259 94.1722 162.017 93.4857 161.924 92.7714C161.891 91.9827 162.057 91.1983 162.409 90.4912C162.76 89.7841 163.284 89.1772 163.932 88.727C166.338 86.7927 171.252 86.6076 174.296 88.727C174.899 89.1244 175.408 89.6496 175.785 90.2654C176.162 90.8811 176.4 91.5725 176.48 92.2902C176.516 93.0823 176.347 93.8703 175.99 94.5785C175.634 95.2867 175.102 95.8914 174.444 96.3347C172.897 97.469 171.002 98.0287 169.087 97.9173C167.316 97.841 165.597 97.2947 164.108 96.3347ZM164.108 89.0139C163.53 89.4033 163.054 89.9261 162.721 90.5382C162.387 91.1504 162.206 91.8339 162.193 92.5309C162.268 93.2314 162.489 93.9084 162.842 94.5186C163.194 95.1289 163.669 95.6592 164.238 96.0755C167.198 98.1302 171.983 97.9265 174.315 96.0755C174.907 95.6614 175.386 95.1059 175.71 94.4594C176.033 93.8128 176.19 93.0959 176.165 92.3735C176.092 91.7051 175.878 91.0597 175.539 90.4794C175.199 89.899 174.741 89.3965 174.195 89.0047C172.74 88.0727 171.062 87.5485 169.336 87.4868C167.471 87.3748 165.624 87.911 164.108 89.0047V89.0139Z" fill="#BA68C8"/>
<g opacity="0.5">
<path d="M165.238 94.965C164.852 94.7254 164.523 94.4039 164.276 94.0233C164.028 93.6426 163.866 93.2122 163.803 92.7623C163.831 92.2528 163.97 91.7555 164.211 91.306C164.453 90.8564 164.791 90.4658 165.2 90.1617C166.428 89.3287 167.882 88.8926 169.364 88.9123C170.726 88.9313 172.053 89.3427 173.186 90.0969C173.574 90.3331 173.904 90.6523 174.155 91.0316C174.404 91.4109 174.566 91.8407 174.63 92.2903C174.598 92.804 174.453 93.3042 174.203 93.7541C173.953 94.2041 173.605 94.5926 173.186 94.891C171.97 95.7402 170.515 96.1781 169.032 96.1405C167.68 96.1188 166.365 95.7109 165.238 94.965Z" fill="#BA68C8"/>
</g>
<path opacity="0.5" d="M162.608 102.221C161.921 101.802 161.096 101.672 160.313 101.86C159.961 101.944 159.74 101.999 159.443 102.055L152.697 97.3345C152.873 97.2876 153.033 97.1979 153.166 97.0736C153.298 96.9493 153.398 96.7942 153.456 96.6219C153.508 96.431 153.502 96.2291 153.439 96.0415C153.377 95.854 153.26 95.6889 153.105 95.5668C155.581 94.6382 157.936 93.4138 160.119 91.9204C160.119 92.1147 160.119 92.3091 160.119 92.5127C160.183 94.2341 161.451 96.2148 163.441 97.6215C165.188 98.8246 167.214 99.5576 169.326 99.7502C167.386 100.93 165.323 101.895 163.172 102.628L162.608 102.221Z" fill="#BA68C8"/>
<g opacity="0.4">
<path d="M158.379 99.1852C158.227 99.1078 158.104 98.9849 158.026 98.8339C157.949 98.6829 157.92 98.5112 157.944 98.343C158.006 98.1517 158.112 97.9784 158.256 97.8381C158.399 97.6978 158.575 97.5946 158.768 97.5378C159.215 97.3558 159.697 97.2787 160.178 97.3124C160.659 97.346 161.126 97.4896 161.544 97.7322C161.703 97.8271 161.833 97.9632 161.921 98.1261C162.009 98.289 162.051 98.4727 162.043 98.6576C162.008 98.8588 161.916 99.0458 161.778 99.1967C161.642 99.3474 161.464 99.4558 161.266 99.5091C160.76 99.6928 160.217 99.75 159.684 99.6758C159.217 99.616 158.77 99.448 158.379 99.1852Z" fill="white"/>
</g>
<path opacity="0.5" d="M178.265 93.1599C178.283 92.827 178.283 92.4933 178.265 92.1605C178.192 90.5223 177.034 88.8378 175.017 87.4311C173.252 86.2414 171.208 85.5274 169.086 85.3579C171.021 84.1993 173.075 83.2499 175.211 82.5259L175.776 82.9238C176.462 83.3384 177.282 83.4681 178.062 83.2848L178.932 83.0811L185.668 87.7827C185.494 87.8296 185.334 87.9193 185.203 88.0437C185.072 88.1683 184.974 88.3235 184.919 88.4954C184.866 88.6863 184.87 88.8888 184.933 89.0769C184.996 89.2651 185.113 89.43 185.27 89.5505C182.797 90.464 180.445 91.6761 178.265 93.1599Z" fill="#BA68C8"/>
<g opacity="0.4">
<path d="M176.888 87.5794C176.729 87.4845 176.599 87.3484 176.511 87.1854C176.423 87.0225 176.38 86.8389 176.388 86.6538C176.422 86.4541 176.511 86.2678 176.646 86.1158C176.78 85.9638 176.953 85.852 177.147 85.7932C177.617 85.6242 178.12 85.5614 178.617 85.6094C179.115 85.6574 179.596 85.815 180.025 86.0708C180.173 86.1518 180.294 86.275 180.374 86.4249C180.453 86.5746 180.486 86.7444 180.469 86.913C180.409 87.1068 180.302 87.2832 180.159 87.4267C180.016 87.5702 179.839 87.6766 179.645 87.7367C179.166 87.9252 178.649 87.9982 178.137 87.9496C177.695 87.9358 177.265 87.8083 176.888 87.5794Z" fill="white"/>
</g>
<path d="M116.598 62.1589C101.197 57.7757 99.7238 46.3187 84.2756 41.9355L67.5059 50.8539C82.9062 55.2371 84.3802 66.6941 99.8284 71.0772L116.598 62.1589Z" fill="#7D32DF"/>
<path opacity="0.6" d="M116.598 62.1589C101.197 57.7757 99.7238 46.3187 84.2756 41.9355L67.5059 50.8539C82.9062 55.2371 84.3802 66.6941 99.8284 71.0772L116.598 62.1589Z" fill="white"/>
<path d="M69.625 50.7112C83.5807 55.2845 85.472 65.7052 99.4189 70.2785L114.467 62.3013C100.512 57.7281 98.6204 47.3074 84.6735 42.7246L69.625 50.7112ZM70.6708 50.6542L84.8357 43.1334C98.0974 47.7923 100.208 57.7281 113.431 62.3584C108.716 64.8938 103.994 67.3976 99.2664 69.8696C86.0047 65.2393 83.9326 55.2845 70.6708 50.6447V50.6542Z" fill="#7D32DF"/>
<path d="M91.4516 62.0539C89.485 61.9124 87.6279 61.0964 86.1941 59.7435C85.5822 59.2048 85.1199 58.5178 84.8501 57.7486C84.5803 56.9793 84.5129 56.1537 84.6536 55.3508C84.8296 54.6298 85.1619 53.9561 85.6262 53.3777C86.0914 52.7994 86.6779 52.3303 87.3445 52.004C90.7098 50.2546 95.7005 51.0533 97.9066 53.3637C98.5126 53.9063 98.9719 54.5937 99.2417 55.3618C99.5105 56.1298 99.5809 56.9536 99.446 57.7563C99.2583 58.4722 98.9221 59.1403 98.4578 59.7169C97.9945 60.2937 97.4149 60.766 96.7561 61.1031C95.1033 61.8838 93.2726 62.2119 91.4516 62.0539ZM92.6011 51.3195C90.83 51.1719 89.0511 51.5002 87.4491 52.2703C86.844 52.5913 86.3133 53.0354 85.8911 53.5742C85.4688 54.113 85.1638 54.7345 84.9967 55.3984C84.8667 56.1389 84.9273 56.9004 85.1736 57.6108C85.4199 58.3212 85.8432 58.9571 86.4032 59.4583C88.533 61.6927 93.3811 62.5198 96.6701 60.8084C97.3152 60.4582 97.8792 59.9757 98.3249 59.3924C98.7706 58.8091 99.0883 58.1381 99.2564 57.4235C99.3268 56.7159 99.2271 56.0016 98.9651 55.3401C98.7041 54.6786 98.2887 54.0891 97.7541 53.6204C96.3554 52.2784 94.5344 51.465 92.6011 51.3195Z" fill="#7D32DF"/>
<g opacity="0.5">
<path d="M91.7281 60.2097C90.2141 60.0494 88.79 59.4137 87.6591 58.3937C87.276 58.0301 86.9788 57.5852 86.7892 57.0916C86.5996 56.598 86.5233 56.0683 86.5664 55.5413C86.6895 55.0928 86.9094 54.6769 87.2124 54.3235C87.5145 53.9701 87.8917 53.6879 88.3159 53.4971C89.5749 52.8833 90.9824 52.6394 92.3752 52.7935C93.8746 52.9722 95.2821 53.6098 96.4051 54.619C96.7893 54.9826 97.0864 55.4275 97.276 55.921C97.4656 56.4147 97.5409 56.9445 97.4989 57.4714C97.3767 57.9217 97.1568 58.3394 96.8547 58.6946C96.5517 59.0496 96.1744 59.3333 95.7493 59.5251C94.503 60.1353 93.1063 60.3731 91.7281 60.2097Z" fill="#7D32DF"/>
</g>
<path opacity="0.5" d="M97.5263 67.2455C98.2818 66.9087 99.14 66.8848 99.9122 67.1789L100.768 67.4927L108.259 63.547C108.086 63.4758 107.933 63.3632 107.814 63.2189C107.694 63.0746 107.612 62.9032 107.575 62.7198C107.548 62.5179 107.581 62.3125 107.671 62.1297C107.76 61.9468 107.903 61.7948 108.079 61.6929C105.68 60.426 103.446 58.8711 101.424 57.0625C101.424 57.2622 101.424 57.4618 101.348 57.6616C101.063 59.411 99.5134 61.246 97.2985 62.4154C95.3642 63.4208 93.2021 63.9057 91.0234 63.8226C92.8454 65.2806 94.8217 66.5337 96.9183 67.5593L97.5263 67.2455Z" fill="#7D32DF"/>
<g opacity="0.4">
<path d="M100.845 64.9734C100.293 64.9839 99.7471 64.8564 99.2565 64.6026C99.0668 64.523 98.9026 64.3918 98.7834 64.2237C98.6641 64.0557 98.5947 63.8576 98.582 63.6518C98.6006 63.4697 98.6671 63.2958 98.7756 63.1486C98.885 63.0013 99.0307 62.8861 99.1998 62.8151C99.6552 62.6218 100.149 62.5349 100.643 62.5613C101.138 62.5877 101.62 62.7265 102.052 62.9672C102.243 63.0529 102.412 63.1844 102.542 63.3502C102.671 63.516 102.757 63.711 102.794 63.918C102.791 64.0908 102.737 64.2588 102.638 64.4009C102.541 64.5431 102.403 64.653 102.242 64.7167C101.803 64.9118 101.324 64.9998 100.845 64.9734Z" fill="white"/>
</g>
<path opacity="0.5" d="M82.7453 55.9687C82.7609 55.6279 82.7961 55.2883 82.8499 54.9514C83.1343 53.2875 84.532 51.7282 86.7762 50.5588C88.7291 49.5753 90.9029 49.1104 93.0884 49.2087C91.2782 47.7715 89.3175 46.5346 87.2415 45.5195L86.614 45.8428C85.8623 46.1781 85.009 46.2054 84.2378 45.9189L83.3816 45.5956L75.9102 49.5034C76.0802 49.5763 76.2298 49.6898 76.3451 49.834C76.4614 49.9783 76.5406 50.1488 76.5748 50.3305C76.6051 50.5315 76.5738 50.7367 76.4849 50.9197C76.3969 51.1027 76.2562 51.2552 76.0812 51.3574C78.4769 52.6252 80.7142 54.1731 82.7453 55.9687Z" fill="#7D32DF"/>
<g opacity="0.4">
<path d="M83.5127 50.7213C82.9859 50.6988 82.4708 50.5522 82.0114 50.2934C81.8218 50.2052 81.6566 50.0729 81.5295 49.9074C81.4015 49.7419 81.3155 49.5482 81.2793 49.3426C81.2803 49.1673 81.335 48.9964 81.4347 48.8522C81.5354 48.7081 81.6761 48.5973 81.8403 48.5345C82.3105 48.3293 82.8207 48.2314 83.3339 48.2479C83.847 48.2643 84.3494 48.3947 84.8059 48.6295C84.9935 48.7114 85.1548 48.8435 85.2721 49.0112C85.3903 49.179 85.4588 49.376 85.4715 49.5804C85.451 49.7643 85.3825 49.9395 85.2721 50.0882C85.1616 50.2369 85.014 50.3536 84.844 50.4266C84.4325 50.6363 83.975 50.7376 83.5127 50.7213Z" fill="white"/>
</g>
<path d="M340.057 63.005C324.049 62.9005 319.562 52.2611 303.552 52.147L289.721 65.2108C305.739 65.3249 310.216 75.9642 326.226 76.0783L340.057 63.005Z" fill="#7D32DF"/>
<path opacity="0.6" d="M340.057 63.005C324.049 62.9005 319.562 52.2611 303.552 52.147L289.721 65.2108C305.739 65.3249 310.216 75.9642 326.226 76.0783L340.057 63.005Z" fill="white"/>
<path d="M291.736 64.5077C306.406 65.1923 311.006 74.7192 325.675 75.4037L338.033 63.6901C323.383 63.0055 318.773 53.4976 304.105 52.7939L291.736 64.5077ZM292.687 64.1749L304.332 53.1458C318.345 54.0965 323.003 63.1005 337.025 64.0228L325.418 75.052C311.396 74.1297 306.748 65.0972 292.725 64.1749H292.687Z" fill="#7D32DF"/>
<path d="M315.789 69.5561C313.849 69.9485 311.833 69.6561 310.084 68.729C309.353 68.3755 308.724 67.8403 308.259 67.1745C307.792 66.5087 307.505 65.7344 307.423 64.9258C307.397 64.1831 307.536 63.444 307.83 62.7617C308.125 62.0793 308.566 61.4708 309.125 60.9801C311.9 58.3939 316.929 57.8519 319.658 59.4778C320.387 59.8349 321.014 60.3711 321.479 61.0363C321.944 61.7014 322.234 62.4737 322.32 63.2809C322.329 64.0203 322.182 64.7532 321.891 65.4327C321.599 66.1122 321.169 66.7232 320.628 67.2268C319.245 68.4113 317.577 69.2142 315.789 69.5561ZM314.03 58.9644C312.272 59.2752 310.631 60.0535 309.277 61.2178C308.783 61.6938 308.394 62.268 308.135 62.9033C307.876 63.5386 307.754 64.2212 307.775 64.9068C307.849 65.6564 308.112 66.375 308.539 66.9954C308.966 67.6157 309.544 68.1172 310.218 68.4532C312.87 70.0316 317.766 69.5277 320.475 67.0081C320.992 66.4999 321.396 65.8902 321.665 65.2176C321.933 64.545 322.059 63.8241 322.034 63.1003C321.916 62.3928 321.63 61.7241 321.2 61.15C320.77 60.576 320.209 60.1134 319.562 59.8011C317.87 58.8945 315.916 58.599 314.03 58.9644Z" fill="#7D32DF"/>
<g opacity="0.5">
<path d="M315.569 67.7591C314.066 68.0111 312.522 67.7815 311.158 67.1031C310.695 66.854 310.293 66.5058 309.981 66.0834C309.669 65.661 309.454 65.1747 309.352 64.6595C309.349 64.1932 309.45 63.7323 309.648 63.3098C309.845 62.8873 310.134 62.5138 310.492 62.216C311.585 61.2468 312.941 60.6236 314.387 60.4255C315.834 60.2276 317.308 60.4635 318.621 61.1035C319.083 61.3526 319.485 61.7008 319.796 62.1232C320.109 62.5457 320.324 63.0319 320.427 63.5471C320.429 64.0134 320.327 64.4744 320.13 64.8969C319.933 65.3194 319.645 65.6929 319.285 65.9907C318.245 66.9295 316.953 67.5441 315.569 67.7591Z" fill="#7D32DF"/>
</g>
<path opacity="0.5" d="M323.031 72.9884C323.669 72.4607 324.488 72.2047 325.312 72.2753L326.263 72.3514L332.424 66.5516C332.239 66.5298 332.062 66.4628 331.91 66.3568C331.757 66.2506 331.633 66.1086 331.549 65.9431C331.468 65.7549 331.444 65.5471 331.482 65.3457C331.519 65.1443 331.615 64.9585 331.758 64.8116C329.101 64.2365 326.523 63.336 324.086 62.1304C324.086 62.3301 324.153 62.5297 324.181 62.7389C324.372 64.4978 323.364 66.6752 321.548 68.4437C319.943 69.9341 317.976 70.9796 315.844 71.4767C317.981 72.3932 320.213 73.0723 322.498 73.5019L323.031 72.9884Z" fill="#7D32DF"/>
<g opacity="0.4">
<path d="M325.628 69.907C325.097 70.0654 324.535 70.0883 323.992 69.9736C323.787 69.9452 323.594 69.8597 323.433 69.727C323.274 69.5942 323.155 69.4194 323.089 69.2224C323.063 69.0454 323.083 68.8646 323.148 68.6977C323.213 68.5309 323.321 68.3841 323.46 68.2717C323.846 67.9617 324.297 67.7448 324.781 67.6375C325.264 67.5304 325.765 67.5359 326.245 67.6536C326.449 67.6876 326.64 67.769 326.806 67.8913C326.971 68.0136 327.105 68.1732 327.196 68.3572C327.246 68.5297 327.242 68.7135 327.185 68.8836C327.127 69.0537 327.018 69.2019 326.873 69.308C326.51 69.6017 326.084 69.8068 325.628 69.907Z" fill="white"/>
</g>
<path opacity="0.5" d="M305.779 66.0669C305.705 65.7341 305.648 65.3977 305.608 65.0591C305.436 63.3762 306.368 61.5032 308.221 59.7822C309.834 58.3122 311.799 57.2838 313.926 56.7967C311.787 55.8887 309.556 55.2161 307.271 54.7905L306.757 55.285C306.119 55.8033 305.305 56.0553 304.486 55.9885C304.115 55.9885 303.887 55.922 303.535 55.903L297.375 61.6648C297.56 61.6899 297.736 61.7592 297.887 61.8667C298.04 61.9744 298.164 62.1171 298.25 62.2828C298.328 62.4697 298.35 62.6757 298.313 62.8751C298.276 63.0746 298.181 63.2587 298.041 63.4047C300.718 63.976 303.316 64.8699 305.779 66.0669Z" fill="#7D32DF"/>
<g opacity="0.4">
<path d="M305.12 60.7994C304.605 60.9229 304.067 60.9229 303.551 60.7994C303.348 60.7637 303.156 60.6805 302.991 60.5566C302.826 60.4327 302.692 60.2716 302.601 60.0862C302.549 59.9139 302.552 59.7296 302.61 59.5591C302.669 59.3888 302.778 59.2406 302.924 59.1355C303.321 58.819 303.78 58.5922 304.273 58.4707C304.765 58.3493 305.278 58.336 305.776 58.4319C305.981 58.4617 306.175 58.5489 306.332 58.6834C306.49 58.8181 306.608 58.9945 306.669 59.1926C306.695 59.3705 306.673 59.5519 306.607 59.7187C306.539 59.8856 306.431 60.032 306.289 60.1433C305.966 60.4629 305.562 60.6894 305.12 60.7994Z" fill="white"/>
</g>
<path d="M310.72 168.053C294.711 167.949 290.224 157.31 274.214 157.195L260.383 170.259C276.401 170.373 280.878 181.013 296.888 181.127L310.72 168.053Z" fill="#7D32DF"/>
<path opacity="0.6" d="M310.72 168.053C294.711 167.949 290.224 157.31 274.214 157.195L260.383 170.259C276.401 170.373 280.878 181.013 296.888 181.127L310.72 168.053Z" fill="white"/>
<path d="M262.398 169.556C277.068 170.24 281.668 179.768 296.338 180.452L308.696 168.739C294.047 168.053 289.436 158.546 274.767 157.843L262.398 169.556ZM263.349 169.224L274.996 158.194C289.008 159.145 293.666 168.149 307.688 169.071L296.081 180.1C282.058 179.178 277.41 170.145 263.388 169.224H263.349Z" fill="#7D32DF"/>
<path d="M286.451 174.605C284.511 174.997 282.495 174.705 280.747 173.777C280.015 173.424 279.386 172.888 278.92 172.222C278.454 171.557 278.166 170.783 278.085 169.974C278.059 169.231 278.198 168.492 278.492 167.81C278.786 167.127 279.229 166.519 279.787 166.029C282.563 163.442 287.592 162.9 290.32 164.526C291.049 164.883 291.675 165.42 292.141 166.084C292.606 166.75 292.895 167.522 292.981 168.329C292.99 169.069 292.843 169.801 292.552 170.481C292.261 171.161 291.831 171.772 291.289 172.275C289.906 173.459 288.239 174.263 286.451 174.605ZM284.692 164.013C282.934 164.324 281.292 165.102 279.938 166.266C279.445 166.742 279.056 167.316 278.797 167.952C278.539 168.587 278.416 169.269 278.436 169.956C278.51 170.704 278.773 171.424 279.2 172.044C279.628 172.664 280.205 173.166 280.88 173.501C283.532 175.08 288.428 174.575 291.138 172.056C291.653 171.548 292.058 170.939 292.326 170.265C292.595 169.593 292.72 168.872 292.697 168.149C292.578 167.441 292.292 166.773 291.862 166.199C291.432 165.624 290.87 165.162 290.225 164.85C288.531 163.943 286.577 163.647 284.692 164.013Z" fill="#7D32DF"/>
<g opacity="0.5">
<path d="M286.231 172.807C284.728 173.06 283.184 172.83 281.82 172.151C281.358 171.903 280.956 171.554 280.643 171.132C280.331 170.71 280.116 170.224 280.014 169.708C280.012 169.242 280.112 168.781 280.31 168.358C280.507 167.936 280.796 167.563 281.154 167.265C282.247 166.296 283.603 165.672 285.049 165.475C286.497 165.276 287.97 165.512 289.283 166.152C289.745 166.401 290.147 166.749 290.459 167.172C290.771 167.594 290.986 168.081 291.089 168.596C291.091 169.062 290.99 169.523 290.793 169.946C290.595 170.368 290.307 170.742 289.948 171.039C288.907 171.978 287.616 172.593 286.231 172.807Z" fill="#7D32DF"/>
</g>
<path opacity="0.5" d="M293.693 178.037C294.33 177.509 295.149 177.253 295.974 177.323L296.924 177.4L303.085 171.6C302.9 171.578 302.724 171.511 302.572 171.405C302.419 171.299 302.295 171.157 302.21 170.992C302.129 170.803 302.107 170.595 302.144 170.393C302.181 170.192 302.277 170.006 302.419 169.86C299.762 169.285 297.185 168.385 294.748 167.178C294.748 167.379 294.814 167.578 294.842 167.787C295.033 169.546 294.025 171.723 292.209 173.492C290.604 174.982 288.639 176.028 286.506 176.525C288.643 177.442 290.874 178.12 293.16 178.55L293.693 178.037Z" fill="#7D32DF"/>
<g opacity="0.4">
<path d="M296.288 174.956C295.757 175.114 295.195 175.137 294.653 175.022C294.447 174.994 294.254 174.908 294.094 174.776C293.934 174.643 293.815 174.468 293.749 174.272C293.723 174.094 293.744 173.913 293.809 173.747C293.874 173.58 293.981 173.433 294.121 173.32C294.506 173.011 294.959 172.794 295.441 172.686C295.924 172.58 296.426 172.584 296.907 172.703C297.109 172.736 297.3 172.818 297.466 172.94C297.631 173.062 297.765 173.222 297.857 173.407C297.907 173.579 297.903 173.762 297.845 173.932C297.787 174.103 297.679 174.251 297.533 174.357C297.17 174.651 296.744 174.855 296.288 174.956Z" fill="white"/>
</g>
<path opacity="0.5" d="M276.439 171.115C276.365 170.783 276.308 170.446 276.268 170.107C276.097 168.425 277.028 166.552 278.883 164.83C280.494 163.361 282.459 162.333 284.586 161.845C282.447 160.938 280.216 160.264 277.932 159.839L277.418 160.334C276.779 160.852 275.966 161.104 275.146 161.037C274.776 161.037 274.547 160.971 274.196 160.951L268.035 166.713C268.22 166.739 268.396 166.808 268.548 166.915C268.701 167.023 268.825 167.166 268.91 167.331C268.988 167.519 269.011 167.724 268.974 167.923C268.936 168.123 268.842 168.308 268.701 168.453C271.378 169.024 273.977 169.919 276.439 171.115Z" fill="#7D32DF"/>
<g opacity="0.4">
<path d="M275.782 165.848C275.267 165.971 274.729 165.971 274.214 165.848C274.01 165.812 273.818 165.729 273.653 165.605C273.488 165.481 273.354 165.32 273.263 165.134C273.211 164.962 273.214 164.778 273.273 164.607C273.331 164.437 273.44 164.289 273.587 164.184C273.983 163.867 274.443 163.641 274.936 163.519C275.427 163.397 275.94 163.385 276.438 163.48C276.644 163.51 276.837 163.598 276.995 163.732C277.152 163.866 277.27 164.042 277.332 164.241C277.358 164.419 277.335 164.601 277.269 164.767C277.202 164.934 277.093 165.081 276.952 165.192C276.628 165.512 276.224 165.738 275.782 165.848Z" fill="white"/>
</g>
<path d="M341.421 273.604C345.993 258.258 357.468 256.936 362.05 241.591L353.351 224.647C348.769 239.993 337.295 241.315 332.713 256.661C335.622 262.308 338.525 267.956 341.421 273.604Z" fill="#7D32DF"/>
<path opacity="0.6" d="M341.421 273.604C345.993 258.258 357.468 256.936 362.05 241.591L353.351 224.647C348.769 239.993 337.295 241.315 332.713 256.661C335.622 262.308 338.525 267.956 341.421 273.604Z" fill="white"/>
<path d="M353.465 226.776C348.712 240.668 338.255 242.426 333.502 256.317L341.297 271.473C346.05 257.581 356.508 255.823 361.261 241.932L353.465 226.776ZM353.513 227.813L360.843 242.074C356.033 255.29 346.05 257.229 341.297 270.427C338.863 265.673 336.423 260.919 333.977 256.165C338.73 242.959 348.712 241.019 353.513 227.813Z" fill="#7D32DF"/>
<path d="M341.897 248.455C342.063 246.49 342.902 244.643 344.274 243.226C344.82 242.621 345.512 242.167 346.285 241.907C347.057 241.647 347.883 241.591 348.684 241.742C349.402 241.927 350.07 242.267 350.642 242.739C351.213 243.21 351.675 243.802 351.993 244.471C353.704 247.866 352.811 252.847 350.49 255.015C349.945 255.619 349.254 256.071 348.484 256.331C347.712 256.591 346.888 256.649 346.089 256.498C345.376 256.304 344.713 255.96 344.143 255.489C343.572 255.018 343.108 254.433 342.781 253.77C342.016 252.109 341.711 250.274 341.897 248.455ZM352.563 249.729C352.758 247.957 352.479 246.166 351.755 244.538C351.443 243.93 351.008 243.393 350.478 242.963C349.948 242.532 349.334 242.217 348.675 242.037C347.934 241.9 347.171 241.954 346.456 242.192C345.742 242.429 345.099 242.844 344.587 243.397C342.334 245.508 341.45 250.338 343.104 253.656C343.451 254.291 343.925 254.847 344.495 255.292C345.065 255.737 345.721 256.061 346.422 256.242C347.134 256.327 347.855 256.24 348.526 255.986C349.195 255.733 349.794 255.321 350.272 254.788C351.593 253.414 352.402 251.628 352.563 249.729Z" fill="#7D32DF"/>
<path opacity="0.5" d="M336.543 254.454C336.875 255.213 336.891 256.071 336.591 256.842C336.448 257.184 336.363 257.403 336.259 257.697L340.061 265.237C340.135 265.066 340.25 264.915 340.396 264.799C340.542 264.683 340.714 264.604 340.898 264.571C341.101 264.544 341.307 264.578 341.49 264.669C341.674 264.761 341.825 264.906 341.924 265.084C343.232 262.681 344.828 260.446 346.677 258.429L346.079 258.353C344.329 258.039 342.523 256.452 341.326 254.236C340.351 252.286 339.897 250.119 340.004 247.942C338.529 249.748 337.255 251.708 336.201 253.79L336.543 254.454Z" fill="#7D32DF"/>
<g opacity="0.4">
<path d="M338.796 257.849C338.8 257.295 338.937 256.751 339.196 256.262C339.279 256.074 339.411 255.914 339.578 255.797C339.747 255.679 339.943 255.61 340.146 255.596C340.329 255.62 340.501 255.691 340.647 255.802C340.791 255.915 340.905 256.063 340.974 256.233C341.162 256.691 341.243 257.187 341.21 257.681C341.177 258.176 341.031 258.656 340.784 259.085C340.696 259.275 340.563 259.44 340.398 259.567C340.232 259.695 340.039 259.78 339.833 259.817C339.659 259.815 339.489 259.761 339.347 259.66C339.205 259.56 339.096 259.419 339.034 259.256C338.85 258.811 338.768 258.33 338.796 257.849Z" fill="white"/>
</g>
<path d="M-6.31957 164.51C-8.71515 141.909 21.4777 157.302 19.082 134.711L32.0109 145.712C34.4161 168.302 4.21376 152.91 6.60934 175.519L-6.31957 164.51Z" fill="#7D32DF"/>
<path opacity="0.6" d="M-6.31957 164.51C-8.71515 141.909 21.4777 157.302 19.082 134.711L32.0109 145.712C34.4161 168.302 4.21376 152.91 6.60934 175.519L-6.31957 164.51Z" fill="white"/>
<path d="M19.9753 136.832C20.2035 157.597 -6.08212 142.775 -5.85399 163.559L5.68697 173.4C5.46832 152.615 31.7445 167.438 31.5258 146.672L19.9753 136.832ZM5.29717 172.382L-5.56878 163.122C-6.44338 153.442 4.10892 151.579 7.39815 150.486C10.9821 149.287 20.9735 147.633 20.3746 137.84L31.231 147.11C31.8395 156.932 21.8481 158.519 18.2641 159.746C14.9654 160.839 4.44163 162.741 5.29717 172.382Z" fill="#7D32DF"/>
<path d="M5.15476 158.273C4.60632 157.861 4.19854 157.291 3.98752 156.639C3.77639 155.987 3.77238 155.285 3.97598 154.631C4.86964 152.311 6.95156 151.779 8.39649 151.218C12.0566 149.877 17.4182 149.62 20.5174 151.95C21.0763 152.353 21.4912 152.926 21.7016 153.583C21.912 154.24 21.9068 154.947 21.6867 155.601C20.7931 157.911 18.7397 158.453 17.2661 159.005C14.9531 159.777 12.5135 160.1 10.0792 159.955C8.37753 159.708 6.65687 159.528 5.15476 158.273ZM8.71024 151.531C7.35084 152.036 5.24986 152.483 4.4038 154.603C4.18173 155.198 4.15798 155.849 4.33616 156.459C4.51435 157.069 4.88489 157.605 5.39247 157.987C8.2444 160.126 13.5016 159.812 17.2092 158.625C18.5875 158.073 20.5744 157.673 21.4205 155.573C21.5956 154.976 21.5828 154.34 21.3838 153.751C21.1847 153.163 20.8092 152.65 20.3083 152.282C18.8851 151.25 17.1882 150.661 15.4314 150.59C13.1492 150.413 10.8559 150.734 8.71024 151.531Z" fill="#7D32DF"/>
<g opacity="0.5">
<path d="M9.19696 157.692C8.22491 157.565 7.30535 157.177 6.53514 156.571C6.28922 156.412 6.09696 156.183 5.98328 155.913C5.86961 155.643 5.83999 155.346 5.89825 155.059C6.19108 154.574 6.58137 154.154 7.04438 153.827C7.50738 153.5 8.03314 153.272 8.58851 153.157L8.85476 153.063C10.8579 152.364 12.9929 152.126 15.1005 152.369C15.5569 152.369 16.0512 152.473 16.498 152.558C17.471 152.695 18.3899 153.089 19.1599 153.699C19.404 153.857 19.5952 154.085 19.7088 154.353C19.8223 154.621 19.853 154.916 19.7968 155.201C19.5118 155.684 19.1298 156.103 18.6749 156.429C18.22 156.757 17.702 156.987 17.154 157.103L16.8213 157.227C14.8083 157.911 12.6703 158.148 10.5565 157.921H10.4708C10.0335 157.826 9.60572 157.769 9.19696 157.692Z" fill="#7D32DF"/>
</g>
<path opacity="0.5" d="M-2.78184 163.359C-2.76375 163.015 -2.72564 162.672 -2.66777 162.333C-2.59085 161.965 -2.59085 161.587 -2.66777 161.22C-2.75515 160.821 -2.96843 160.461 -3.27622 160.193L-3.66602 159.86C-3.21435 158.553 -2.47756 157.364 -1.50903 156.376C-0.540598 155.39 0.635345 154.631 1.93337 154.155C1.3345 156.628 3.01714 158.7 4.07237 159.718C5.25515 160.811 6.73282 161.531 8.32183 161.79C8.54048 161.838 8.76861 161.866 8.99674 161.895C7.00045 163.052 5.44291 164.837 4.56675 166.972C4.4562 166.915 4.33754 166.877 4.21498 166.858C4.04041 166.824 3.86046 166.826 3.68697 166.866C3.51338 166.905 3.34995 166.98 3.20725 167.086C2.91842 167.307 2.71111 167.618 2.61786 167.97L-2.78184 163.359Z" fill="#7D32DF"/>
<g opacity="0.4">
<path d="M0.638897 163.407C0.307354 163.088 0.0957434 162.665 0.0400301 162.209C-0.0535096 161.665 0.058308 161.106 0.353686 160.64C0.464038 160.463 0.609772 160.31 0.781799 160.191C0.953924 160.073 1.14862 159.99 1.35379 159.95C1.55895 159.909 1.77017 159.912 1.97435 159.957C2.17844 160.003 2.37109 160.089 2.54019 160.212C2.68886 160.347 2.80536 160.513 2.88111 160.7C2.95677 160.886 2.98971 161.086 2.97749 161.287C2.96596 161.802 2.81475 162.305 2.54019 162.741C2.323 163.121 1.9898 163.421 1.58954 163.598C1.43022 163.664 1.25458 163.682 1.08509 163.647C0.915705 163.614 0.760293 163.53 0.638897 163.407Z" fill="white"/>
</g>
<path opacity="0.5" d="M23.6449 156.085C23.6885 155.979 23.7204 155.867 23.7399 155.753C24.2914 153.157 22.4471 151.389 21.563 150.533C20.4155 149.479 18.9783 148.794 17.4371 148.565L16.5625 148.432C18.5468 147.314 20.0995 145.563 20.9735 143.459C21.0908 143.518 21.2156 143.559 21.3444 143.583C21.5183 143.616 21.6974 143.614 21.8705 143.576C22.0437 143.539 22.2075 143.467 22.352 143.364C22.6455 143.145 22.8565 142.833 22.951 142.479L28.3316 146.986C28.3104 147.324 28.2691 147.662 28.2081 147.994C28.1316 148.358 28.1316 148.734 28.2081 149.098C28.2959 149.494 28.5053 149.852 28.807 150.124L29.2062 150.466C28.7439 151.752 28.0067 152.92 27.0462 153.891C26.0856 154.861 24.9249 155.61 23.6449 156.085Z" fill="#7D32DF"/>
<g opacity="0.4">
<path d="M23.1802 150.381C23.0313 150.248 22.9144 150.083 22.8386 149.899C22.7629 149.714 22.7301 149.515 22.7429 149.315C22.7709 148.808 22.9386 148.317 23.2278 147.899C23.7792 147.1 24.5587 146.739 25.1291 147.243C25.4584 147.557 25.6642 147.978 25.709 148.432C25.7934 148.968 25.6747 149.518 25.3763 149.971C25.2441 150.164 25.0721 150.325 24.872 150.445C24.6718 150.565 24.4483 150.64 24.2165 150.665C24.0334 150.694 23.8465 150.682 23.6681 150.633C23.4896 150.584 23.3234 150.498 23.1802 150.381Z" fill="white"/>
</g>
<path d="M115.299 202.833C112.135 189.14 120.668 175.56 121.691 161.544C123.246 140.205 107.477 121.269 105.216 99.9935C104.16 90.049 106.191 79.7973 110.959 71.006C113.728 65.902 117.507 61.1943 122.53 58.2828C127.554 55.3733 134.23 53.7345 139.529 56.1074C141.342 49.1198 146.51 43.2704 152.813 39.7558C159.117 36.2412 166.47 34.9116 173.687 35.0045C194.728 35.2758 215.119 48.1639 224.393 67.0552C233.575 85.7587 231.919 107.941 227.41 128.285C224.516 141.341 220.523 154.841 223.665 167.841C225.271 174.494 228.671 180.571 230.793 187.079C232.915 193.586 233.617 201.12 230.031 206.951C216.602 207.459 202.983 207.465 189.555 207.973C164.237 208.929 140.037 208.316 115.299 202.833Z" fill="#00072D"/>
<path d="M240.178 416.204C241.847 424.663 243.706 433.103 245.735 441.525C233.408 453.247 216.606 457.665 199.784 460.189C181.635 462.92 163.144 464.285 144.882 462.199C126.638 460.132 108.584 454.518 93.3746 444.218C95.783 436.024 98.0018 427.735 99.9928 419.371C100.164 418.746 100.297 418.139 100.448 417.512C103.615 404.141 106.233 390.579 108.242 376.979C108.337 376.373 108.432 375.747 108.527 375.139C109.115 371.081 109.646 367.022 110.101 362.944C111.201 353.498 111.979 344.033 112.433 334.588C112.472 333.962 112.49 333.317 112.528 332.692V332.559C106.858 326.376 102.383 318.03 99.7279 310.083C87.4387 310.936 75.3392 306.972 65.0605 300.163C65.6861 295.611 66.4641 291.001 67.3741 286.392C67.4885 285.786 67.6019 285.16 67.7534 284.534C70.1813 272.395 73.5378 260.218 77.7671 248.496C77.9753 247.909 78.1835 247.301 78.4112 246.714C80.8196 240.151 83.4938 233.74 86.4144 227.576C88.3868 223.422 90.4922 219.287 92.9954 215.437C93.3932 214.792 93.8106 214.166 94.2465 213.54C96.086 210.884 98.1347 208.381 100.486 206.124C106.707 200.168 115.563 195.446 124.078 196.602C124.761 202.084 125.633 207.85 127.112 213.389C127.264 214.033 127.454 214.659 127.643 215.285C128.857 219.419 130.45 223.422 132.593 226.988C139.572 238.615 152.506 246.277 166.008 247.301C179.511 248.344 193.279 242.863 202.743 233.19C207.824 227.993 211.731 221.601 214.234 214.716C214.462 214.071 214.69 213.426 214.88 212.762C216.624 207.376 217.497 201.742 217.421 196.147C226.884 196.147 236.651 199.713 243.307 206.466C244.767 207.945 246.001 209.595 247.081 211.358C247.48 211.947 247.821 212.554 248.162 213.18C249.224 215.076 250.154 217.03 251.045 219.003C254.705 226.988 258.061 235.125 261.077 243.376C261.286 243.983 261.514 244.57 261.722 245.177C265.97 256.994 269.554 269.038 272.456 281.252C272.607 281.879 272.759 282.505 272.892 283.112C274.277 289.105 275.509 295.118 276.552 301.168C265.154 305.683 252.96 309.096 240.747 310.31C239.002 317.233 235.816 323.814 231.568 329.561C231.075 330.245 230.582 330.89 230.033 331.534C229.862 331.762 229.672 332.008 229.482 332.236C230.26 345.058 231.417 357.804 232.953 370.512C233.028 371.138 233.105 371.764 233.181 372.39C234.527 383.39 236.177 394.353 238.131 405.279C238.68 408.295 239.23 411.329 239.818 414.345C239.932 414.952 240.065 415.577 240.178 416.204Z" fill="#F4DAA7"/>
<path d="M127.113 213.388C127.265 214.033 127.454 214.659 127.644 215.284C116.095 215.322 104.545 215.379 92.9961 215.436C93.3949 214.791 93.8113 214.165 94.2482 213.539C105.229 213.483 116.151 213.444 127.113 213.388Z" fill="#FFEFCF"/>
<path d="M248.164 213.18C240.768 213.692 233.371 214.09 225.975 214.356C222.068 214.507 218.143 214.621 214.236 214.715C214.464 214.071 214.692 213.426 214.881 212.762C225.616 212.496 236.349 212.042 247.083 211.358C247.482 211.947 247.823 212.554 248.164 213.18Z" fill="#FFEFCF"/>
<path d="M261.723 245.176C251.084 247.149 240.368 248.609 229.597 249.652C203.843 252.194 177.919 252.517 152.051 252.479C127.341 252.441 102.156 253.142 77.7676 248.496C77.9758 247.907 78.1849 247.301 78.4127 246.713C91.6304 249.198 105.076 250.032 118.503 250.336C131.38 250.62 144.257 250.582 157.115 250.582C169.84 250.564 182.565 250.449 195.271 249.995C217.327 249.178 239.382 247.358 261.078 243.375C261.286 243.982 261.514 244.57 261.723 245.176Z" fill="#FFEFCF"/>
<path d="M272.893 283.112C261.533 285.311 250.022 286.64 238.491 287.568C209.267 289.902 179.872 290.641 150.553 290.376C122.789 290.13 95.0254 288.801 67.375 286.392C67.4894 285.785 67.6027 285.16 67.7542 284.534C82.3003 285.805 96.9031 286.753 111.506 287.417C140.805 288.744 170.162 288.877 199.481 287.816C214.009 287.304 228.573 286.582 243.043 285.274C252.904 284.383 262.747 283.15 272.457 281.252C272.608 281.879 272.76 282.505 272.893 283.112Z" fill="#FFEFCF"/>
<path d="M231.57 329.562C231.077 330.244 230.584 330.889 230.034 331.534C226.014 331.742 221.993 331.932 217.972 332.122C198.079 333.051 178.167 333.715 158.235 334.113C142.987 334.417 127.721 334.587 112.436 334.587C112.474 333.962 112.492 333.316 112.53 332.691C119.016 332.691 125.52 332.653 132.007 332.596C151.938 332.426 171.87 331.989 191.783 331.287C205.039 330.832 218.314 330.263 231.57 329.562Z" fill="#FFEFCF"/>
<path d="M108.897 236.107C108.587 234.927 106.759 235.428 107.07 236.612C109.637 246.373 105.759 256.102 102.389 265.144C99.0548 274.09 96.4529 283.358 96.1723 292.959C96.0189 298.209 96.5995 303.473 98.0519 308.524C98.3892 309.694 100.22 309.197 99.8797 308.019C97.1967 298.685 97.7255 288.838 99.9051 279.458C100.999 274.749 102.531 270.174 104.219 265.646C105.928 261.061 107.722 256.478 108.792 251.689C109.938 246.562 110.244 241.227 108.897 236.107Z" fill="#DBBC7F"/>
<path d="M244.482 280.147C243.445 275.384 241.929 270.739 240.272 266.161C238.645 261.666 236.834 257.184 236.049 252.443C235.237 247.548 235.743 242.308 238.627 238.148C239.325 237.143 237.681 236.192 236.991 237.19C231.692 244.836 234.042 254.497 236.943 262.557C240.289 271.849 243.754 281.232 243.989 291.225C244.114 296.58 243.304 301.906 241.243 306.864C240.777 307.991 242.61 308.482 243.071 307.369C246.653 298.746 246.441 289.137 244.482 280.147Z" fill="#DBBC7F"/>
<path d="M199.549 339.207C196.582 347.111 192.16 354.359 187.343 361.257C182.861 367.672 178.049 373.855 172.923 379.768C162.731 391.523 151.286 402.234 138.681 411.364C131.638 416.464 124.241 421.066 116.541 425.104C115.46 425.671 116.418 427.308 117.499 426.741C131.416 419.444 144.313 410.283 155.983 399.771C167.681 389.235 178.139 377.351 187.316 364.564C192.883 356.811 198.011 348.686 201.379 339.712C201.807 338.568 199.975 338.073 199.549 339.207Z" fill="#DBBC7F"/>
<path d="M229.278 200.896C223.921 222.43 212.301 244.725 190.715 253.633C180.602 257.808 169.206 258.573 158.55 256.219C153.324 255.063 148.27 253.177 143.599 250.563C138.27 247.581 133.855 243.672 130.234 238.756C122.509 228.267 117.624 215.739 116.152 202.8C116.015 201.601 114.117 201.588 114.255 202.8C115.611 214.714 119.686 226.262 126.244 236.315C129.542 241.372 133.381 246.003 138.342 249.504C143.052 252.83 148.403 255.31 153.917 256.97C164.624 260.193 176.348 260.306 187.044 256.966C197.738 253.626 206.946 246.734 213.972 238.09C222.605 227.473 227.827 214.579 231.107 201.396C231.4 200.216 229.572 199.71 229.278 200.896Z" fill="#DBBC7F"/>
<path d="M133.832 85.4604C134.716 97.2446 135.6 109.029 136.484 120.813C137.064 128.557 137.654 136.355 139.666 143.855C141.678 151.354 145.224 158.624 150.923 163.897C156.283 168.857 163.445 171.835 170.741 172.093C178.038 172.351 185.408 169.88 191.045 165.238C196.594 160.671 200.346 154.208 202.655 147.401C204.96 140.594 205.912 133.41 206.62 126.259C207.976 112.562 208.486 98.7829 208.147 85.0241C197.395 77.4146 184.254 73.1299 171.083 73.0882C157.914 73.0464 144.633 77.9209 133.832 85.4604Z" fill="#996150"/>
<path d="M217.421 196.147C217.611 209.69 212.224 223.498 202.742 233.189C193.279 242.863 179.511 248.345 166.009 247.302C152.506 246.277 139.572 238.614 132.593 226.988C127.283 218.149 125.367 206.844 124.078 196.602C131.493 195.198 138.51 193.663 145.698 191.349C147.158 186.853 148.314 182.244 149.149 177.578C149.964 172.97 150.458 168.304 150.648 163.618C150.742 163.713 150.837 163.808 150.932 163.903C156.279 168.853 163.448 171.831 170.749 172.097C177.899 172.362 185.124 169.972 190.719 165.477C190.832 165.401 190.927 165.325 191.042 165.23C191.838 164.586 192.597 163.884 193.299 163.163C193.962 172.457 195.612 181.675 198.192 190.627C204.43 192.903 210.897 194.914 217.421 196.147Z" fill="#996150"/>
<path d="M204.599 133.677C207.265 134.682 210.369 134.008 212.721 132.4C215.073 130.79 216.747 128.351 217.953 125.767C219.873 121.657 220.716 117.052 220.383 112.53C220.216 110.262 219.655 107.834 217.917 106.366C215.706 104.5 212.236 104.873 209.837 106.491C207.438 108.109 205.887 110.69 204.518 113.238L204.599 133.677Z" fill="#996150"/>
<path d="M138.465 134.376C133.483 135.126 128.493 131.896 126.041 127.495C123.588 123.095 123.295 117.784 123.937 112.788C124.152 111.121 124.475 109.435 125.264 107.95C126.054 106.465 127.376 105.192 129.013 104.805C130.716 104.405 132.533 105.016 133.949 106.044C135.365 107.072 136.45 108.481 137.505 109.879L138.465 134.376Z" fill="#996150"/>
<path d="M270.205 331.748C249.593 312.753 227.137 299.161 202.769 282.172C196.517 274.876 189.972 266.615 180.514 264.92C171.575 263.317 162.121 264.552 153.858 268.323C153.809 278.186 156.612 288.034 162.222 296.147C171.095 298.714 180.223 300.402 189.429 301.181C209.04 326.935 230.638 347.156 254.004 369.556C263.922 358.198 269.02 346.782 270.205 331.748Z" fill="#996150"/>
<path d="M281.426 362.603C278.999 367.231 274.296 370.36 269.289 371.897C268.36 372.2 267.412 372.428 266.464 372.637C259.219 374.192 251.974 370.076 249.509 363.096C244.162 347.866 240.653 331.877 239.041 315.83V315.773C239.705 313.99 240.274 312.17 240.748 310.31C250.989 309.287 261.21 306.726 270.958 303.255C272.285 304.601 273.291 306.271 273.917 308.148C278.108 320.989 281.844 333.982 283.19 347.373C283.721 352.531 283.816 357.994 281.426 362.603Z" fill="#996150"/>
<path d="M179.564 308.366H154.836C152.113 308.366 149.906 306.159 149.906 303.435V243.591C149.906 240.868 152.113 238.66 154.836 238.66H179.564C182.287 238.66 184.495 240.868 184.495 243.591V303.435C184.495 306.159 182.287 308.366 179.564 308.366Z" fill="#00072D"/>
<path d="M72.332 331.748C92.945 312.753 115.4 299.161 139.769 282.172C146.021 274.876 152.565 266.615 162.023 264.92C170.963 263.317 180.417 264.552 188.679 268.323C188.729 278.186 185.926 288.034 180.316 296.147C171.442 298.714 162.315 300.402 153.109 301.181C133.498 326.935 111.9 347.156 88.5339 369.556C78.6149 358.198 73.5176 346.782 72.332 331.748Z" fill="#996150"/>
<path d="M103.218 318.562C101.492 333.678 98.0784 348.72 93.0143 363.097C90.5678 370.077 83.3241 374.192 76.0794 372.637C75.1118 372.429 74.1832 372.201 73.2537 371.897C68.2473 370.361 63.5254 367.231 61.116 362.603C58.7076 357.994 58.822 352.531 59.3341 347.373C60.6996 333.982 64.4353 320.989 68.6265 308.149C69.1759 306.479 70.0301 305 71.1297 303.729C79.9666 308.301 89.7908 310.766 99.7283 310.084C100.676 312.91 101.833 315.774 103.218 318.562Z" fill="#996150"/>
<path d="M174.307 246.322C174.307 247.99 175.658 249.342 177.325 249.342C178.992 249.342 180.344 247.99 180.344 246.322C180.344 244.655 178.992 243.302 177.325 243.302C175.658 243.301 174.307 244.655 174.307 246.322Z" fill="white"/>
<path d="M175.523 253.179C175.523 254.175 176.331 254.982 177.327 254.982C178.322 254.982 179.13 254.175 179.13 253.179C179.13 252.182 178.322 251.375 177.327 251.375C176.331 251.375 175.523 252.182 175.523 253.179Z" fill="white"/>
<path d="M212.188 95.0717C211.467 99.2634 209.988 103.512 208.49 107.571C208.262 107.799 208.054 108.007 207.845 108.235C207.504 101.824 206.233 95.1286 201.796 90.5385C197.453 86.0433 190.853 84.4311 184.613 84.3932C178.355 84.3363 172.173 85.6261 165.934 85.9864C159.694 86.3279 152.886 84.6777 147.765 81.0929C146.988 90.9748 142.531 100.515 135.534 107.495C135.06 106.964 134.528 106.471 133.941 106.054C133.505 105.731 133.011 105.447 132.499 105.219C130.944 101.122 129.256 97.0443 128.82 92.7387C128.271 87.0866 129.01 81.1498 131.968 76.2943C136.311 69.1437 144.693 65.464 152.848 63.6053C164.151 61.0257 176.041 61.0636 187.306 63.757C192.237 64.9329 197.092 66.6211 201.36 69.3712C205.608 72.1215 209.248 75.9908 211.126 80.7136C212.909 85.2277 213.004 90.273 212.188 95.0717Z" fill="#00072D"/>
<path d="M173.188 107.838C173.327 112.959 173.465 118.078 173.604 123.199C171.851 122.391 169.584 122.911 168.358 124.404C167.133 125.895 167.063 128.22 168.196 129.783C169.328 131.346 171.558 132.004 173.358 131.304" stroke="#25262B" stroke-miterlimit="10" stroke-linecap="round" stroke-linejoin="round"/>
<path d="M191.542 108.722C188.983 109.807 187.004 112.17 186.385 114.878C189.063 112.919 192.795 112.504 195.836 113.826" stroke="#25262B" stroke-miterlimit="10" stroke-linecap="round" stroke-linejoin="round"/>
<path d="M155.267 109.085C156.889 110.631 158.162 112.545 158.96 114.641C155.604 113.325 151.72 113.418 148.432 114.891" stroke="#25262B" stroke-miterlimit="10" stroke-linecap="round" stroke-linejoin="round"/>
<path d="M200.398 105.656C199.543 101.592 195.795 98.318 191.654 98.0164C187.512 97.7129 183.33 100.408 181.893 104.304" stroke="#25262B" stroke-miterlimit="10" stroke-linecap="round" stroke-linejoin="round"/>
<path d="M161.125 106.142C160.844 103.278 159.049 100.607 156.503 99.2683C153.958 97.9274 150.74 97.9595 148.222 99.348C145.703 100.736 143.958 103.441 143.732 106.309" stroke="#25262B" stroke-miterlimit="10" stroke-linecap="round" stroke-linejoin="round"/>
<path d="M158.393 151.083C166.416 146.799 177.757 146.13 186.814 149.406C185.46 153.889 179.67 157.683 173.471 158.122C167.273 158.563 161.12 155.277 158.393 151.083Z" fill="white"/>
<path d="M216.13 120.633C214.599 121.066 213.149 121.745 211.82 122.614C213.162 120.076 215.021 117.811 217.295 116.055C217.699 115.742 217.917 115.239 217.634 114.757C217.401 114.359 216.745 114.103 216.337 114.418C212.701 117.225 209.996 121.039 208.592 125.411C208.268 125.798 208.226 126.361 208.602 126.737C208.873 127.008 209.335 127.082 209.688 126.915C209.895 126.851 210.067 126.712 210.187 126.492C211.937 124.569 214.143 123.167 216.632 122.464C217.806 122.13 217.308 120.3 216.13 120.633Z" fill="#713D31"/>
<path d="M136.406 125.314C136.006 122.79 134.825 120.468 133.377 118.387C131.836 116.17 130.045 114.116 128.139 112.206C127.276 111.341 125.934 112.682 126.798 113.547C129.573 116.328 132.545 119.615 133.924 123.416C132.605 122.718 131.155 122.287 129.646 122.24C129.148 122.225 128.674 122.687 128.697 123.188C128.72 123.715 129.114 124.119 129.646 124.136C129.896 124.144 130.146 124.163 130.396 124.19C130.415 124.191 130.427 124.193 130.442 124.195C130.499 124.205 130.554 124.212 130.61 124.222C130.733 124.243 130.858 124.267 130.981 124.294C131.225 124.347 131.469 124.411 131.709 124.485C131.828 124.523 131.947 124.561 132.066 124.605C132.124 124.626 132.183 124.647 132.242 124.669C132.255 124.675 132.371 124.721 132.401 124.732C132.51 124.778 132.822 124.925 133 125.02C133.222 125.138 133.44 125.263 133.651 125.4C133.825 125.512 134.115 125.715 134.208 125.788C134.15 125.741 134.284 125.851 134.295 125.861C134.343 125.9 134.392 125.94 134.44 125.982C134.545 126.075 134.65 126.17 134.753 126.266C135.058 126.555 135.545 126.612 135.905 126.395C136.312 126.194 136.477 125.764 136.406 125.314Z" fill="#713D31"/>
<path d="M190.718 165.477C186.736 171.376 180.25 175.568 173.328 177.483C165.496 179.665 157.152 179.229 149.148 177.579C149.965 172.97 150.457 168.304 150.647 163.618C150.742 163.713 150.836 163.808 150.931 163.903C156.28 168.853 163.448 171.832 170.75 172.097C177.898 172.362 185.125 169.972 190.718 165.477Z" fill="#713D31"/>
<path d="M177.52 200.687C177.029 203.223 174.829 204.5 172.362 204.483C170.001 204.467 167.473 203.344 166.832 200.889C166.525 199.709 164.694 200.209 165.004 201.393C165.861 204.675 169.163 206.355 172.364 206.38C175.618 206.404 178.704 204.538 179.353 201.19C179.579 199.999 177.752 199.489 177.52 200.687Z" fill="#713D31"/>
<path d="M101.458 307.662C95.8241 311.617 90.1892 315.57 84.5553 319.525C79.3613 323.17 74.1018 326.789 69.5978 331.292C68.7328 332.157 70.0738 333.497 70.9388 332.633C75.4428 328.131 80.7033 324.538 85.8964 320.893L102.416 309.3C103.406 308.606 102.46 306.959 101.458 307.662Z" fill="#713D31"/>
<path d="M189.246 269.779C188.847 267.004 186.076 266.071 183.713 265.28C182.552 264.892 182.055 266.724 183.209 267.109C184.369 267.497 185.712 267.934 186.686 268.703C187.671 269.479 187.511 271.232 187.466 272.378C187.366 274.916 186.77 277.466 186.079 279.902C184.764 284.55 182.701 288.938 180.018 292.955C179.34 293.973 180.982 294.923 181.658 293.913C184.805 289.194 187.126 283.929 188.427 278.404C189.084 275.622 189.66 272.638 189.246 269.779Z" fill="#713D31"/>
<path d="M270.035 330.993C261.889 322.747 253.611 314.44 243.577 308.486C242.524 307.862 241.569 309.501 242.619 310.125C252.518 315.995 260.663 324.202 268.694 332.333C269.553 333.204 270.893 331.863 270.035 330.993Z" fill="#713D31"/>
<path d="M139.412 78.4808C136.901 84.6053 133.035 90.1133 128.183 94.6086C127.286 95.4393 128.628 96.7784 129.524 95.9495C134.629 91.221 138.604 85.419 141.242 78.9853C141.702 77.8549 139.869 77.3637 139.412 78.4808Z" fill="#FAFAC6"/>
<path d="M136.892 64.3175C122.025 71.0868 112.936 86.6114 112.655 102.722C112.498 111.764 115.026 120.316 119.141 128.297C123.158 136.084 128.064 143.545 129.524 152.346C131.339 163.281 128.433 174.378 125.691 184.899C125.384 186.08 127.212 186.585 127.519 185.404C129.884 176.335 132.268 167.027 131.926 157.578C131.765 153.12 130.942 148.719 129.38 144.537C127.89 140.55 125.889 136.785 123.852 133.056C121.792 129.282 119.668 125.515 118.058 121.518C116.395 117.387 115.272 113.016 114.808 108.585C113.906 100.002 115.327 91.1844 119.393 83.5331C123.471 75.8589 129.923 69.5656 137.848 65.9562C138.959 65.4498 137.995 63.8148 136.892 64.3175Z" fill="#00072D"/>
<path d="M140.615 156.601C140.417 155.401 138.59 155.909 138.786 157.106C140.034 164.7 139.31 172.488 136.767 179.745C136.363 180.898 138.193 181.395 138.595 180.249C141.255 172.657 141.92 164.531 140.615 156.601Z" fill="#00072D"/>
<path d="M200.036 75.7915C196.268 73.7032 192.153 72.5954 187.869 72.2654C182.482 71.85 177.102 72.5423 171.718 72.6429C166.226 72.7453 160.571 72.2067 155.759 69.3407C154.708 68.7148 153.753 70.3536 154.802 70.9776C163.321 76.0494 173.432 74.2304 182.816 74.0446C187.525 73.9516 192.242 74.3538 196.613 76.2182C200.223 77.7583 203.485 80.097 206.095 83.0274C209.033 86.3258 210.992 90.3733 211.623 94.7509C211.798 95.9534 213.624 95.4433 213.451 94.2464C212.311 86.3486 206.916 79.6057 200.036 75.7915Z" fill="#FAFAC6"/>
<path d="M203.864 55.9627C194.439 49.1383 182.409 46.6764 171.027 48.85C163.938 50.2024 157.256 53.0645 150.65 55.8811C149.531 56.3591 150.497 57.9922 151.607 57.5199C162.546 52.8578 173.9 48.4043 186 50.5059C196.595 52.3475 206.157 58.3468 212.243 67.2367C215.525 72.0317 217.742 77.4581 218.76 83.1767C218.975 84.3755 220.803 83.869 220.589 82.6722C218.694 72.0335 212.618 62.3034 203.864 55.9627Z" fill="#00072D"/>
<path d="M220.896 134.966C221.395 133.862 219.761 132.897 219.259 134.008C213.375 147.018 211.74 161.736 214.543 175.738C215.343 179.732 216.517 183.639 218.036 187.42C218.486 188.539 220.321 188.049 219.864 186.915C214.704 174.069 213.706 159.707 217.002 146.261C217.952 142.384 219.252 138.6 220.896 134.966Z" fill="#00072D"/>
<path d="M207.384 185.499C205.797 182.295 205.498 178.515 205.072 175.013C204.627 171.347 204.316 167.668 204.122 163.981C204.06 162.766 202.162 162.76 202.226 163.981C202.432 167.952 202.779 171.914 203.28 175.86C203.737 179.457 204.115 183.166 205.746 186.455C206.29 187.55 207.927 186.59 207.384 185.499Z" fill="#00072D"/>
</g>
</g>
<defs>
<clipPath id="clip0_974_36521">
<path d="M0 0H343V324C343 332.837 335.837 340 327 340H16C7.16345 340 0 332.837 0 324V0Z" fill="white"/>
</clipPath>
<clipPath id="clip1_974_36521">
<rect width="433" height="305" fill="white" transform="translate(-44.5742 35)"/>
</clipPath>
</defs>
</svg>
