<svg width="560" height="323" viewBox="0 0 560 323" fill="none" xmlns="http://www.w3.org/2000/svg">
<path d="M0 0H536C549.255 0 560 10.7452 560 24V299C560 312.255 549.255 323 536 323H0V0Z" fill="#F7F9FD"/>
<g clip-path="url(#clip0_967_1200)">
<path d="M40 245.373H200.848V0.0117188H40V245.373Z" fill="#EBEBEB"/>
<path d="M132.861 118.963H200.849V9.82422H132.861V118.963Z" fill="white"/>
<path d="M57.4492 118.963H125.436V9.82422H57.4492V118.963Z" fill="white"/>
<path d="M132.861 235.538H200.849V126.399H132.861V235.538Z" fill="white"/>
<path d="M57.4492 235.538H125.436V126.399H57.4492V235.538Z" fill="white"/>
<path d="M102.053 0H40V351.036H75.9146L50.8524 172.409L102.053 0Z" fill="#F1F1F1"/>
<path d="M91.307 9.49292L81.4712 50.2899L71.4582 91.0514L51.4203 172.551L51.4321 172.35L60.7004 257.526L65.3345 300.12L69.7677 342.725L64.7552 300.179L59.9201 257.609L50.2617 172.48V172.374L50.2854 172.267L70.7016 90.8623L80.9156 50.1599L91.307 9.49292Z" fill="#EBEBEB"/>
<path d="M43.7005 16.6924L43.9842 51.8977L44.1497 87.1029L44.2915 157.513L44.1497 227.912L43.9842 263.118L43.7005 298.323L43.4049 263.118L43.2394 227.912L43.1094 157.513L43.2512 87.1029L43.4167 51.8977L43.7005 16.6924Z" fill="#EBEBEB"/>
<path d="M55.2984 23.2891L53.3715 60.705L51.279 98.121L47.1177 172.929C47.5315 186.832 47.8034 200.722 48.1462 214.613L49.1274 256.296L50.1086 297.98L50.9007 339.676L49.4821 298.016L48.2999 256.332L47.1177 214.66C46.7394 200.758 46.2784 186.867 45.9355 172.977L50.5224 98.1801L52.8277 60.7878L55.2984 23.2891Z" fill="#EBEBEB"/>
<path d="M63.3718 334.225L59.3051 293.842L55.3921 253.435C52.8741 226.493 50.2496 199.563 47.8262 172.61V172.456L59.3288 109.552L65.1569 78.1301L71.0678 46.7078L65.6416 78.2246L60.1208 109.706L48.9256 172.704V172.551C51.5027 199.493 53.8789 226.446 56.3615 253.4L59.908 293.83L63.3718 334.225Z" fill="#EBEBEB"/>
<path d="M40 177.658H54.0088V169.477H40V177.658Z" fill="#DBDBDB"/>
<path d="M138.807 0H200.859V351.036H164.945L190.007 172.409L138.807 0Z" fill="#F1F1F1"/>
<path d="M149.553 9.49292L159.944 50.1599L170.158 90.8623L190.574 172.267L190.61 172.374L190.598 172.48L180.94 257.609L176.104 300.179L171.092 342.725L175.525 300.12L180.159 257.526L189.428 172.35L189.439 172.551L169.402 91.0514L159.388 50.2899L149.553 9.49292Z" fill="#EBEBEB"/>
<path d="M197.159 16.6924L197.455 51.8977L197.62 87.1029L197.751 157.513L197.62 227.912L197.455 263.118L197.159 298.323L196.876 263.118L196.71 227.912L196.568 157.513L196.71 87.1029L196.876 51.8977L197.159 16.6924Z" fill="#EBEBEB"/>
<path d="M185.574 23.2891L188.033 60.6814L190.398 98.0737L194.89 172.87C194.582 186.761 194.121 200.651 193.708 214.554L192.525 256.226L191.343 298.016L189.96 339.687L190.752 297.992L191.733 256.308L192.715 214.625C193.069 200.734 193.329 186.843 193.743 172.941L189.535 98.1328L187.442 60.7168L185.574 23.2891Z" fill="#EBEBEB"/>
<path d="M177.487 334.226L180.928 293.783L184.474 253.353C186.957 226.399 189.333 199.446 191.91 172.504V172.705L180.703 109.706L175.182 78.2132L169.744 46.6963L175.655 78.1186L181.495 109.553L192.998 172.456V172.61C190.562 199.564 187.95 226.494 185.432 253.436L181.495 293.843L177.487 334.226Z" fill="#EBEBEB"/>
<path d="M200.847 169.465H186.838V177.646H200.847V169.465Z" fill="#DBDBDB"/>
<path d="M382.678 269.856V432.134H480.799V269.856H382.678ZM471.861 372.244H391.58V329.993H471.861V372.244ZM471.861 319.933H391.58V277.694H471.861V319.933Z" fill="#EBEBEB"/>
<path d="M520 269.856H480.775V432.122H520V269.856Z" fill="#DBDBDB"/>
<path d="M410.66 277.694H391.58V319.933H410.66V277.694Z" fill="#DBDBDB"/>
<path d="M479.687 201.845C490.918 212.839 492.798 229.839 490.433 244.734C490.374 245.077 489.854 244.983 489.854 244.663C489.854 241.271 489.949 237.913 489.937 234.568L489.771 234.118C486.747 232.128 484.246 229.44 482.477 226.281C480.598 222.592 479.865 218.431 478.422 214.577C478.292 214.211 478.682 214.317 478.942 214.506C485.775 219.542 487.951 224.968 489.913 232.239C489.876 228.451 489.481 224.674 488.731 220.961C487.253 214.092 484.333 207.271 479.404 202.176C479.382 202.157 479.364 202.135 479.351 202.109C479.338 202.084 479.33 202.056 479.328 202.027C479.326 201.999 479.329 201.97 479.338 201.943C479.347 201.916 479.361 201.89 479.38 201.869C479.399 201.847 479.421 201.829 479.447 201.816C479.472 201.803 479.5 201.795 479.529 201.793C479.557 201.791 479.586 201.794 479.613 201.803C479.64 201.812 479.666 201.826 479.687 201.845Z" fill="#A6A6A6"/>
<path d="M477.572 203.122C475.645 203.193 474.44 206.278 472.926 207.177C472.769 207.306 472.587 207.401 472.391 207.454C472.194 207.508 471.989 207.519 471.788 207.488C471.587 207.457 471.395 207.384 471.225 207.273C471.054 207.162 470.909 207.017 470.798 206.846C469.309 204.765 471.354 202.188 473.281 200.757C471.898 201.325 470.763 202.318 469.273 202.602C469.083 202.662 468.882 202.681 468.684 202.658C468.486 202.634 468.295 202.569 468.124 202.466C467.952 202.363 467.805 202.225 467.692 202.061C467.578 201.897 467.501 201.71 467.465 201.514C466.815 198.677 470.373 197.412 472.82 197.353C471.638 196.525 468.233 194.291 470.042 193.192C471.851 192.092 475.846 195.284 477.135 196.336C479.05 197.885 481.332 200.202 481.414 202.625C481.533 205.463 479.062 203.713 477.572 203.122Z" fill="#DBDBDB"/>
<path d="M478.138 203.595C475.668 202.472 470.915 204.091 470.513 203.157C469.698 201.254 473.492 199.954 475.538 199.694C473.646 199.185 470.04 198.369 470.147 196.561C470.289 194.338 475.691 196.242 478.422 198.346C481.874 200.982 481.85 203.536 481.283 204.044C480.503 204.741 478.54 203.784 478.138 203.595Z" fill="#EBEBEB"/>
<path d="M505.259 200.758C493.626 211.314 491.073 228.231 492.893 243.21C492.893 243.552 493.461 243.481 493.472 243.21C493.602 239.817 493.626 236.459 493.768 233.114C493.839 232.96 493.886 232.818 493.957 232.665C497.059 230.795 499.663 228.203 501.547 225.11C503.556 221.493 504.455 217.367 506.039 213.572C506.181 213.206 505.779 213.3 505.519 213.49C498.508 218.218 496.12 223.597 493.886 230.761C494.069 226.975 494.611 223.214 495.506 219.531C497.244 212.721 500.412 206.018 505.542 201.112C505.732 200.876 505.46 200.568 505.259 200.758Z" fill="#A6A6A6"/>
<path d="M507.315 202.117C509.242 202.259 510.341 205.38 511.807 206.338C511.958 206.475 512.137 206.578 512.331 206.64C512.525 206.703 512.731 206.723 512.933 206.699C513.136 206.676 513.331 206.609 513.506 206.504C513.681 206.399 513.831 206.257 513.947 206.089C515.519 204.068 513.58 201.361 511.701 199.906C513.06 200.533 514.16 201.562 515.637 201.904C515.825 201.973 516.025 202.001 516.224 201.986C516.423 201.97 516.616 201.913 516.791 201.816C516.966 201.72 517.118 201.587 517.237 201.427C517.356 201.267 517.44 201.083 517.482 200.888C518.238 198.074 514.739 196.679 512.292 196.525C513.474 195.757 517.021 193.641 515.224 192.482C513.427 191.324 509.313 194.35 508.001 195.355C506.038 196.833 503.674 199.055 503.496 201.479C503.272 204.292 505.802 202.649 507.315 202.117Z" fill="#DBDBDB"/>
<path d="M506.748 202.566C509.254 201.538 513.935 203.335 514.373 202.413C515.259 200.545 511.524 199.103 509.49 198.772C511.393 198.334 515.035 197.66 514.987 195.84C514.987 193.605 509.467 195.308 506.712 197.306C503.166 199.812 503.095 202.365 503.638 202.897C504.336 203.618 506.322 202.744 506.748 202.566Z" fill="#EBEBEB"/>
<path d="M493.355 228.634C492.569 234.283 491.364 239.867 489.749 245.338C489.727 245.446 489.663 245.541 489.571 245.602C489.479 245.663 489.367 245.685 489.258 245.663C489.15 245.641 489.055 245.577 488.994 245.485C488.933 245.393 488.911 245.28 488.933 245.172C489.69 240.018 491.085 234.97 491.853 229.804C492.704 224.609 493.021 219.34 492.799 214.081C492.302 205.416 489.95 196.195 484.299 189.409C484.169 189.243 484.429 189.019 484.559 189.172C495.884 202.377 494.088 218.561 494.076 220.015C495.683 214.554 497.327 208.288 503.391 202.72C503.651 202.472 503.864 202.59 503.817 203.004C502.729 213.135 499.916 218.431 494.04 223.858C493.816 225.465 493.615 227.085 493.355 228.634Z" fill="#A6A6A6"/>
<path d="M484.144 190.922C482.111 190.023 479.297 192.612 477.276 192.79C477.048 192.845 476.811 192.851 476.581 192.808C476.35 192.764 476.132 192.673 475.94 192.539C475.747 192.404 475.586 192.231 475.466 192.03C475.346 191.828 475.269 191.604 475.243 191.371C474.734 188.463 478.151 186.832 480.87 186.3C479.156 186.205 477.477 186.654 475.798 186.205C475.57 186.173 475.352 186.093 475.157 185.969C474.963 185.846 474.797 185.683 474.67 185.491C474.544 185.298 474.46 185.081 474.424 184.854C474.388 184.626 474.401 184.394 474.462 184.172C475.219 180.897 479.546 181.382 482.111 182.54C481.295 181.098 478.895 177.067 481.319 176.83C483.742 176.594 486.296 181.926 487.112 183.675C488.294 186.241 489.476 189.799 488.388 192.352C487.076 195.343 485.386 192.293 484.144 190.922Z" fill="#DBDBDB"/>
<path d="M484.523 191.702C482.525 189.338 476.779 188.581 476.838 187.411C476.945 185.046 481.567 185.578 483.79 186.347C482.087 184.869 478.753 182.209 479.782 180.436C481.035 178.201 485.693 182.906 487.466 186.453C489.712 190.933 488.412 193.546 487.561 193.806C486.355 194.078 484.818 192.104 484.523 191.702Z" fill="#EBEBEB"/>
<path d="M500.813 231.695L505.802 269.856H475.408C476.035 266.475 481.697 231.648 481.697 231.648L500.813 231.695Z" fill="#EBEBEB"/>
<path d="M326.433 79.6756C324.099 89.2146 318.409 97.9033 310.602 103.871C302.794 109.823 292.915 113.024 283.098 112.761C279.975 112.683 276.682 112.189 274.285 110.194C271.719 108.061 270.668 104.659 269.879 101.428C268.565 96.1099 267.576 90.7142 266.88 85.2877C266.478 82.0101 266.169 78.7325 265.968 75.4394C265.21 63.6587 265.751 51.7697 267.236 40.0507C276.744 36.2166 288.215 34.4386 298.465 34.6551C303.83 34.7787 309.257 35.1498 314.405 36.6804C319.553 38.2264 324.361 41.0556 327.639 45.3072C327.546 56.686 329.139 68.6214 326.433 79.6756Z" fill="#D47F6C"/>
<path d="M329.494 134.529C324.732 140.311 319.074 145.398 312.086 148.088C305.098 150.763 297.136 151.18 290.117 148.583C283.098 145.97 277.176 139.894 275.043 132.705C276.233 130.123 277.269 127.464 278.12 124.758C279.387 120.8 280.284 116.719 280.763 112.606C281.552 112.699 282.325 112.746 283.098 112.761C292.915 113.024 302.794 109.824 310.602 103.871C313.817 101.398 316.693 98.4757 319.089 95.1981C321.888 91.4412 324.068 87.236 325.521 82.7989C325.536 82.7989 325.536 82.7989 325.552 82.7834C324.346 99.6971 324.315 118.389 329.494 134.529Z" fill="#D47F6C"/>
<path d="M323.948 82.678C328.39 83.2361 333.062 81.3777 335.908 77.9224C338.755 74.467 339.682 69.5259 338.283 65.2727C337.713 63.5381 336.72 61.8591 335.159 60.9114C333.306 59.7874 330.895 59.8724 328.906 60.7336C326.918 61.5947 325.301 63.1423 323.938 64.8244L323.948 82.678Z" fill="#D47F6C"/>
<path d="M335.664 48.5384C334.906 52.4035 333.7 56.315 332.386 60.0873C331.211 60.0254 329.99 60.2573 328.908 60.7366C326.975 61.556 325.414 63.0557 324.068 64.6635C318.657 58.6649 315.241 50.8729 314.529 42.8181C314.066 37.7162 318.827 32.5215 322.863 29.3831C324.455 28.1617 326.326 27.1259 328.32 27.1877C330.144 27.265 331.845 28.2699 333.035 29.6613C334.226 31.0373 334.953 32.7689 335.447 34.5314C336.715 39.0612 336.56 43.9158 335.664 48.5384Z" fill="#00072D"/>
<path d="M316.348 40.9921C311.43 45.3319 305.218 48.0575 298.792 49.367C292.365 50.6765 285.718 50.6208 279.206 49.8432C274.421 49.2727 269.542 48.26 265.538 45.5777C261.518 42.8845 258.68 38.6654 257.022 34.12C255.365 29.5747 254.815 24.6954 254.682 19.8579C260.852 24.2331 269.323 25.6648 276.617 23.6627C282.459 22.0594 287.51 18.4664 292.801 15.5151C298.091 12.5637 304.135 10.1627 310.09 11.2789C314.425 12.0906 318.34 14.8085 320.737 18.5097C323.135 22.2109 324.018 26.8351 323.293 31.1857C322.642 35.1064 319.329 38.3608 316.348 40.9921Z" fill="#00072D"/>
<path d="M265.737 70.8318C260.403 62.0658 259.212 50.888 262.567 41.1943C264.005 41.519 265.551 41.9983 266.912 42.7094C265.86 52.032 265.397 61.4628 265.737 70.8318Z" fill="#00072D"/>
<path d="M284.251 62.6584C284.022 67.0507 283.795 71.4415 283.566 75.8338C282.313 74.651 280.147 74.6155 278.856 75.7564C277.565 76.8974 277.334 79.0526 278.355 80.4409C279.375 81.8293 281.501 82.2529 282.976 81.3624" stroke="#25262B" stroke-miterlimit="10" stroke-linecap="round" stroke-linejoin="round"/>
<path d="M298.725 64.4182C298.676 65.5638 298.628 66.7094 298.578 67.8566" stroke="#25262B" stroke-width="2" stroke-miterlimit="10" stroke-linecap="round" stroke-linejoin="round"/>
<path d="M273.574 64.5879C273.633 65.7335 273.693 66.8791 273.752 68.0247" stroke="#25262B" stroke-width="2" stroke-miterlimit="10" stroke-linecap="round" stroke-linejoin="round"/>
<path d="M305.166 58.456C304.557 55.8943 302.035 53.9246 299.404 53.9524C296.771 53.9787 294.292 56.0009 293.734 58.5735" stroke="#25262B" stroke-miterlimit="10" stroke-linecap="round" stroke-linejoin="round"/>
<path d="M280.017 59.2974C280.15 57.3695 279.212 55.403 277.629 54.296C276.047 53.1875 273.876 52.9788 272.111 53.7626C270.345 54.5465 269.047 56.2981 268.809 58.2152" stroke="#25262B" stroke-miterlimit="10" stroke-linecap="round" stroke-linejoin="round"/>
<path d="M295.556 89.3474C295.235 87.956 294.12 87.0314 292.718 86.8707C289.442 86.4981 286.928 88.9702 285.301 91.5706C284.128 91.1501 282.839 90.8362 281.685 91.1686C280.28 91.5737 279.505 92.8955 279.798 94.3241C280.413 97.3404 284.403 98.3608 287.005 98.0021C289.966 97.5939 292.772 95.6181 294.545 93.2589C295.389 92.1333 295.881 90.7527 295.556 89.3474Z" fill="white"/>
<path d="M296.422 80.3046C296.422 83.072 299.733 85.3153 303.817 85.3153C307.901 85.3153 311.211 83.072 311.211 80.3046C311.211 77.5372 307.9 75.2939 303.817 75.2939C299.733 75.2939 296.422 77.5372 296.422 80.3046Z" fill="#BA6450"/>
<path d="M275.042 80.3092C275.042 83.0766 271.733 85.3183 267.652 85.3183C267.389 85.3183 267.126 85.3029 266.879 85.2874C266.477 82.0098 266.168 78.7322 265.967 75.4392C266.508 75.3464 267.08 75.3 267.652 75.3C271.733 75.3 275.042 77.5418 275.042 80.3092Z" fill="#BA6450"/>
<path d="M331.951 66.6628C328.216 68.8751 325.389 72.4264 324.052 76.5527C323.799 77.335 324.8 77.7803 325.345 77.3041C327.203 75.6777 329.42 74.195 331.952 74.0049C332.939 73.9307 332.946 72.3846 331.952 72.4588C330.001 72.6057 328.242 73.3555 326.642 74.3914C328.041 71.76 330.153 69.526 332.732 67.9985C333.587 67.4914 332.81 66.1541 331.951 66.6628Z" fill="#BA6450"/>
<path d="M319.089 95.1978C317.296 103.778 311.854 111.57 304.649 116.672C296.981 122.099 287.534 124.65 278.119 124.758C279.387 120.8 280.284 116.719 280.763 112.606C281.551 112.699 282.324 112.745 283.097 112.761C292.915 113.024 302.794 109.823 310.601 103.871C313.817 101.397 316.693 98.4753 319.089 95.1978Z" fill="#BA6450"/>
<path d="M310.741 37.4125C304.173 41.5002 296.485 43.7049 288.855 44.702C281.587 45.6513 273.814 45.1318 267.681 40.7365C264.76 38.6431 262.424 35.7381 261.31 32.2998C261.004 31.3582 259.51 31.7602 259.819 32.711C261.919 39.1873 267.758 43.7188 274.16 45.5323C282.156 47.7987 290.99 46.4274 298.846 44.2089C303.289 42.955 307.595 41.1895 311.522 38.7467C312.364 38.2226 311.59 36.8838 310.741 37.4125Z" fill="#050F4A"/>
<path d="M318.18 20.4803C314.422 14.7414 305.903 16.3153 300.517 18.2895C297.009 19.5758 293.687 21.3105 290.186 22.6169C286.541 23.9789 282.741 24.619 278.894 25.1137C277.922 25.239 277.909 26.7865 278.894 26.6598C282.385 26.2114 285.881 25.7074 289.231 24.5912C292.563 23.4811 295.704 21.8964 298.945 20.556C302.119 19.2434 305.483 18.1179 308.949 18.0545C311.832 18.002 315.156 18.6822 316.845 21.2595C317.389 22.0897 318.728 21.3151 318.18 20.4803Z" fill="#050F4A"/>
<path d="M316.964 31.8279C315.551 29.4857 312.932 28.3478 310.358 27.7742C307.396 27.1125 304.336 27.2053 301.361 27.7371C294.891 28.8936 289.338 32.5778 283.005 34.1253C279.822 34.903 275.189 35.4132 272.61 32.8931C271.899 32.1974 270.804 33.2889 271.517 33.9862C273.554 35.9775 276.667 36.3779 279.397 36.2326C282.559 36.0625 285.592 35.087 288.505 33.9043C294.406 31.5079 300.197 28.6168 306.745 28.8611C309.824 28.9755 313.898 29.7408 315.628 32.6087C316.142 33.459 317.479 32.6829 316.964 31.8279Z" fill="#050F4A"/>
<path d="M324.485 57.1303C321.506 53.0302 319.83 48.1231 319.728 43.0536C319.708 42.0595 318.162 42.0564 318.182 43.0536C318.289 48.3782 320.019 53.5991 323.151 57.911C323.729 58.7072 325.071 57.9373 324.485 57.1303Z" fill="#050F4A"/>
<path d="M328.244 36.955C327.888 36.0382 326.391 36.4371 326.753 37.3663C328.961 43.0479 329.709 49.2212 328.828 55.26C328.686 56.234 330.176 56.653 330.318 55.6713C331.24 49.3542 330.558 42.9119 328.244 36.955Z" fill="#050F4A"/>
<path d="M393.608 261.025C393.531 261.535 393.453 262.03 393.376 262.525C392.789 265.818 391.768 268.987 390.068 271.878C384.579 281.17 371.84 285.359 361.914 281.154C362.193 282.793 362.455 284.447 362.718 286.086C363.321 289.967 363.862 293.847 364.357 297.743C364.419 298.238 364.481 298.748 364.543 299.243C365.671 308.287 366.46 317.331 366.893 326.438C366.908 326.963 366.939 327.504 366.954 328.03C367.155 332.606 367.248 337.198 367.248 341.821C354.401 350.571 339.497 355.348 324.114 357.59C308.746 359.832 293.116 359.6 277.594 358.966C258.454 358.178 238.556 356.57 222.045 346.861C220.823 340.506 219.834 334.075 219.061 327.613C218.999 327.087 218.937 326.561 218.86 326.02C217.824 317.007 217.19 307.916 216.943 298.841C216.927 298.3 216.912 297.774 216.896 297.248C216.896 296.986 216.881 296.707 216.881 296.445C216.742 290.26 216.788 284.107 216.989 277.969C208.996 279.979 200.725 274.012 196.303 267.039C196.118 266.745 195.948 266.467 195.778 266.173C195.499 265.709 195.236 265.246 195.005 264.766C191.603 258.288 190.444 250.806 189.346 243.508C189.006 241.282 188.681 239.056 188.341 236.829C188.264 236.335 188.202 235.825 188.125 235.33C186.656 225.621 185.203 215.912 183.749 206.203C183.672 205.677 183.595 205.167 183.517 204.641C182.42 197.282 181.307 189.938 180.209 182.579C187.012 184.295 195.236 183.167 200.849 178.961C203.647 186.243 208.625 196.725 211.423 204.007C213.495 197.05 215.984 189.351 218.612 181.899V181.883C218.813 181.327 218.999 180.786 219.2 180.229C220.591 176.333 222.014 172.53 223.436 168.943C225.353 164.135 227.935 159.327 231.089 154.921C231.522 154.287 231.97 153.668 232.449 153.065C236.067 148.335 240.35 144.145 245.096 141.006C253.522 135.456 264.978 133.369 275.043 132.704C277.176 139.893 283.098 145.969 290.117 148.582C297.136 151.179 305.098 150.762 312.086 148.087C319.074 145.397 324.732 140.311 329.494 134.528C343.625 134.528 358.853 139.151 369.134 148.845C369.969 149.649 370.773 150.483 371.515 151.349C371.886 151.767 372.242 152.184 372.582 152.617C376.462 157.441 379.214 163.176 381.503 168.974C382.616 171.819 383.636 174.679 384.564 177.585C384.718 178.08 384.873 178.575 385.027 179.085C387.625 187.542 389.465 196.215 390.779 204.997C390.856 205.569 390.949 206.125 391.011 206.697C392.325 215.881 393.067 225.188 393.515 234.495C393.546 235.036 393.577 235.562 393.593 236.103C393.778 240.03 393.917 243.957 394.025 247.868C394.149 252.228 394.195 256.711 393.608 261.025Z" fill="#7D32DF"/>
<path d="M214.67 239.612C218.458 240.045 222.184 239.72 225.91 238.947C229.682 238.159 233.377 237.015 237.165 236.304C241.123 235.562 244.972 235.546 248.899 236.427C252.625 237.247 256.228 238.545 259.984 239.179C263.509 239.767 266.942 239.566 270.42 238.793C274.007 238.004 277.486 236.783 281.088 236.025C284.937 235.237 288.586 235.314 292.358 236.458C295.961 237.556 299.439 239.117 303.242 239.38C306.922 239.628 310.586 238.808 314.157 237.973C317.868 237.092 321.64 236.134 325.505 236.319C329.401 236.505 333.112 237.865 336.915 238.545C340.734 239.226 344.351 238.855 348.108 238.051C352.128 237.185 356.024 236.304 360.136 236.984C363.862 237.602 367.48 238.916 371.299 239.071C375.21 239.226 379.029 238.082 382.801 237.185C386.388 236.335 389.99 236.041 393.593 236.103C393.577 235.562 393.546 235.036 393.515 234.495C392.186 234.448 390.841 234.479 389.511 234.572C385.43 234.85 381.58 235.979 377.607 236.845C375.597 237.278 373.556 237.587 371.5 237.525C369.505 237.479 367.542 237.046 365.594 236.597C361.775 235.701 358.08 234.835 354.122 235.33C350.149 235.809 346.299 237.169 342.295 237.386C338.291 237.618 334.488 236.381 330.623 235.531C326.897 234.711 323.279 234.588 319.491 235.237C315.765 235.871 312.148 237.015 308.391 237.571C304.294 238.19 300.583 237.618 296.687 236.288C293.07 235.067 289.529 233.784 285.664 233.907C282.077 234.016 278.583 234.99 275.166 235.964C271.533 236.984 267.838 238.051 264.02 238.02C260.139 237.989 256.398 236.798 252.672 235.778C248.992 234.773 245.266 233.985 241.417 234.217C237.582 234.433 233.841 235.407 230.13 236.35C226.327 237.309 222.493 238.267 218.551 238.283C214.345 238.329 210.233 237.355 206.152 236.427C200.323 235.098 194.015 233.815 188.125 235.33C188.202 235.824 188.264 236.335 188.341 236.829C193.057 235.623 198.329 236.304 202.982 237.309C206.863 238.143 210.728 239.164 214.67 239.612ZM382.09 262.277C378.689 263.406 375.458 265.014 371.995 265.972C368.377 266.992 364.836 266.838 361.172 266.065C357.709 265.338 354.292 264.287 350.752 263.978C347.366 263.684 344.104 264.349 340.919 265.446C337.765 266.544 334.72 267.951 331.473 268.755C329.834 269.157 328.134 269.389 326.433 269.311C324.5 269.219 322.614 268.755 320.744 268.337C317.219 267.564 313.817 267.317 310.231 267.812C306.721 268.307 303.289 269.265 299.841 270.054C296.378 270.873 292.822 271.522 289.251 271.259C285.401 270.997 281.753 269.605 277.98 268.94C270.559 267.657 263.463 270.332 256.104 270.641C252.378 270.811 248.961 269.992 245.483 268.739C242.267 267.58 239.051 266.266 235.603 265.972C231.847 265.647 228.26 266.884 224.611 267.456C220.669 268.09 216.804 267.41 212.985 266.436C207.203 264.967 200.91 262.973 195.005 264.766C195.237 265.245 195.499 265.709 195.778 266.173C200.215 264.952 205.348 266.034 209.676 267.178C213.31 268.121 216.958 269.172 220.746 269.265C224.41 269.373 227.873 268.229 231.476 267.688C235.14 267.132 238.541 267.889 241.989 269.11C245.235 270.255 248.42 271.584 251.837 272.032C259.165 272.976 266.261 270.069 273.559 270.084C277.362 270.1 280.949 271.244 284.628 272.079C288.045 272.852 291.4 273.037 294.863 272.574C301.758 271.646 308.437 268.739 315.472 269.08C319.136 269.25 322.599 270.626 326.247 270.842C329.479 271.043 332.633 270.162 335.647 269.064C338.786 267.936 341.847 266.544 345.124 265.848C348.665 265.091 352.174 265.57 355.668 266.374C359.054 267.147 362.425 268.121 365.903 268.276C369.351 268.43 372.644 267.518 375.844 266.312C379.091 265.075 382.276 263.607 385.692 262.911C388.212 262.385 390.81 262.246 393.376 262.524C393.454 262.03 393.531 261.535 393.608 261.025C389.758 260.638 385.847 261.04 382.09 262.277ZM207.744 210.377C211.686 210.949 215.227 210.315 218.906 208.908C220.669 208.243 222.431 207.517 224.286 207.145C226.219 206.774 228.198 206.929 230.115 207.3C233.748 208.027 237.242 209.434 240.968 209.604C244.694 209.758 247.833 208.119 251.157 206.697C254.929 205.089 258.655 204.996 262.644 205.754C266.354 206.465 269.972 207.609 273.744 207.965C277.625 208.336 281.382 207.501 285.077 206.403C288.833 205.29 292.606 203.93 296.564 203.744C300.614 203.574 304.603 204.517 308.53 205.414C312.349 206.295 316.214 207.145 320.141 207.037C324.067 206.944 327.933 206.017 331.736 205.136C335.585 204.239 339.497 203.342 343.47 203.466C347.474 203.59 351.169 205.074 354.973 206.156C358.652 207.192 362.208 207.47 365.965 206.682C369.799 205.893 373.479 204.347 377.39 203.992C381.673 203.574 385.553 205.182 389.588 206.326C390.052 206.465 390.532 206.573 391.011 206.697C390.949 206.125 390.856 205.569 390.779 204.996C387.872 204.193 385.028 203.141 382.059 202.631C378.271 201.997 374.623 202.755 370.974 203.775C367.109 204.857 363.229 206.063 359.178 205.507C355.282 204.966 351.664 203.311 347.846 202.476C344.073 201.642 340.27 201.873 336.498 202.538C332.555 203.249 328.706 204.378 324.748 205.027C320.651 205.708 316.662 205.538 312.596 204.734C308.669 203.945 304.819 202.832 300.846 202.384C296.95 201.935 293.224 202.415 289.483 203.466C285.649 204.548 281.861 206.017 277.887 206.419C273.883 206.836 270.003 205.847 266.153 204.935C262.628 204.115 258.98 203.342 255.346 203.852C251.528 204.394 248.374 206.666 244.694 207.656C240.86 208.691 237.041 207.455 233.331 206.481C229.821 205.553 226.327 204.966 222.74 205.924C218.86 206.975 215.412 209.016 211.284 209.078C207.002 209.155 202.874 207.733 198.839 206.465C194.031 204.95 188.558 203.543 183.518 204.641C183.595 205.167 183.672 205.677 183.749 206.202C187.63 205.337 192.067 206.063 195.762 207.145C199.735 208.305 203.631 209.789 207.744 210.377ZM228.368 182.254C231.522 182.981 234.614 184.063 237.861 184.434C241.076 184.805 244.169 184.11 247.276 183.306C250.384 182.517 253.63 181.667 256.815 182.533C259.675 183.321 262.149 185.115 264.947 186.058C270.807 188.021 276.063 184.573 281.474 182.873C284.566 181.899 287.612 181.883 290.781 182.502C293.92 183.12 296.981 184.125 300.15 184.589C303.196 185.037 306.134 184.774 309.102 184.017C312.07 183.244 314.93 182.115 317.945 181.528C321.099 180.894 324.037 181.218 326.99 182.517C329.68 183.708 332.261 185.192 335.245 185.516C341.368 186.181 346.933 182.44 353.025 182.687C356.395 182.811 359.534 184.295 362.919 184.295C366.181 184.295 369.351 183.367 372.412 182.316C376.401 180.956 380.714 179.193 385.028 179.085C384.873 178.575 384.718 178.08 384.564 177.585C382.569 177.678 380.575 178.049 378.704 178.559C375.535 179.441 372.489 180.77 369.32 181.682C365.934 182.672 362.595 183.058 359.116 182.27C357.477 181.899 355.869 181.435 354.184 181.234C352.685 181.048 351.169 181.141 349.67 181.358C346.593 181.837 343.671 182.919 340.626 183.568C337.425 184.264 334.426 184.156 331.396 182.857C328.628 181.667 326.031 180.105 323.001 179.734C316.724 178.961 311.081 182.641 304.974 183.228C298.434 183.847 292.389 180.275 285.88 180.507C282.866 180.616 280.052 181.682 277.269 182.795C274.564 183.878 271.734 185.114 268.75 185.13C265.581 185.145 262.937 183.46 260.154 182.177C257.372 180.878 254.62 180.368 251.559 180.801C248.327 181.249 245.235 182.455 242.004 182.873C238.572 183.321 235.263 182.486 231.986 181.59C228.832 180.739 225.709 179.997 222.431 179.997C221.349 179.997 220.282 180.074 219.2 180.229C218.999 180.786 218.814 181.327 218.613 181.883C221.828 181.389 225.137 181.512 228.368 182.254ZM239.391 155.415C241.973 156.343 244.447 157.641 247.152 158.167C249.765 158.677 252.424 158.507 255.037 158.074C260.526 157.162 266.045 155.013 271.657 156.126C277.084 157.209 281.969 160.378 287.658 160.069C293.286 159.775 298.45 156.868 304.124 156.838C309.829 156.791 315.224 159.079 320.836 159.821C323.495 160.162 326.124 160.1 328.737 159.543C331.334 159.002 333.823 158.059 336.312 157.147C338.817 156.235 341.337 155.307 343.965 154.828C346.732 154.318 349.376 154.565 352.066 155.338C354.741 156.111 357.385 157.039 360.214 156.791C362.842 156.559 365.3 155.585 367.727 154.565C369.335 153.869 370.943 153.173 372.582 152.617C372.242 152.184 371.886 151.767 371.515 151.349C366.491 153.143 361.806 156.204 356.271 154.936C353.504 154.287 350.891 153.173 348.031 153.003C345.449 152.864 342.852 153.374 340.394 154.117C335.23 155.663 330.252 158.337 324.763 158.492C319.012 158.662 313.585 156.374 307.973 155.585C305.206 155.183 302.485 155.214 299.748 155.771C296.935 156.343 294.214 157.317 291.4 157.966C288.524 158.615 285.68 158.739 282.788 158.028C280.052 157.332 277.47 156.188 274.78 155.353C272.167 154.534 269.523 154.132 266.787 154.318C264.004 154.518 261.268 155.183 258.547 155.786C255.779 156.405 252.965 157.008 250.121 156.946C247.261 156.868 244.679 155.879 242.066 154.812C239.546 153.776 236.964 152.818 234.197 152.895C233.609 152.911 233.022 152.972 232.45 153.065C231.97 153.668 231.522 154.287 231.089 154.92C233.934 154.147 236.655 154.426 239.391 155.415ZM366.181 326.654C363.028 327.643 359.874 328.834 356.519 328.045C353.535 327.35 350.891 325.695 347.985 324.752C341.522 322.65 334.967 325.278 328.999 327.69C322.893 330.148 315.966 332.482 309.767 329.066C307.216 327.659 304.881 326.02 301.944 325.572C299.563 325.201 297.151 325.525 294.832 326.159C289.792 327.535 285.247 330.272 280.176 331.586C277.594 332.251 274.935 332.482 272.322 331.849C269.4 331.153 266.725 329.7 263.973 328.54C261.237 327.411 258.438 326.7 255.47 326.87C252.548 327.056 249.719 327.875 246.936 328.741C244.091 329.638 241.216 330.627 238.232 330.967C235.078 331.323 232.156 330.674 229.249 329.483C225.956 328.123 222.431 326.345 218.86 326.02C218.937 326.561 218.999 327.087 219.061 327.612C221.766 327.953 224.58 329.128 226.807 330.102C229.543 331.307 232.326 332.436 235.341 332.606C238.185 332.761 241.015 332.127 243.736 331.354C249.363 329.73 255.006 327.288 260.912 329.066C263.726 329.916 266.323 331.369 269.075 332.436C271.611 333.425 274.254 333.951 276.975 333.719C282.093 333.271 286.715 330.782 291.431 328.942C293.719 328.045 296.115 327.226 298.589 327.009C301.294 326.778 303.753 327.396 306.118 328.726C308.824 330.241 311.282 331.833 314.42 332.235C317.574 332.652 320.774 332.096 323.789 331.199C330.082 329.329 336.034 325.603 342.759 325.51C346.068 325.463 348.897 326.7 351.865 327.999C354.602 329.205 357.369 330.148 360.399 329.777C362.656 329.499 364.79 328.71 366.954 328.03C366.939 327.504 366.908 326.963 366.893 326.437C366.661 326.499 366.413 326.577 366.181 326.654ZM225.059 298.995C227.858 299.737 230.486 300.974 233.238 301.825C235.897 302.644 238.572 302.953 241.339 302.551C246.889 301.763 252.069 298.702 257.789 299.073C263.463 299.444 268.457 302.799 274.1 303.417C279.727 304.02 285.216 302.026 290.596 300.696C293.363 300.016 296.193 299.475 299.068 299.552C302.114 299.645 305.067 300.526 308.004 301.268C310.833 301.979 313.755 302.582 316.677 302.335C319.46 302.103 322.089 301.206 324.64 300.155C327.268 299.088 329.834 297.851 332.555 297.016C335.477 296.135 338.523 295.81 341.569 296.073C344.692 296.336 347.552 297.326 350.381 298.593C352.839 299.691 355.282 300.572 358.003 300.464C360.229 300.387 362.378 299.815 364.543 299.243C364.481 298.748 364.419 298.238 364.357 297.743C363.785 297.898 363.213 298.037 362.656 298.176C360.121 298.794 357.446 299.258 354.865 298.624C351.973 297.929 349.407 296.29 346.562 295.455C340.687 293.723 334.689 294.388 329.077 296.63C326.387 297.697 323.789 298.964 321.037 299.846C318.115 300.789 315.178 301.067 312.132 300.572C309.102 300.078 306.18 299.088 303.165 298.501C300.336 297.944 297.522 297.882 294.662 298.3C288.911 299.134 283.453 301.562 277.64 301.933C274.687 302.118 271.873 301.593 269.075 300.665C266.339 299.768 263.679 298.624 260.866 297.99C258.114 297.372 255.393 297.387 252.641 297.975C249.827 298.562 247.137 299.583 244.385 300.34C241.525 301.113 238.634 301.5 235.712 300.866C232.836 300.263 230.161 299.011 227.379 298.083C223.931 296.924 220.344 296.584 216.896 297.248C216.912 297.774 216.927 298.3 216.943 298.841C219.587 298.253 222.385 298.284 225.059 298.995Z" fill="#B9FFB7"/>
<path d="M234.539 167.507C233.492 170.434 232.611 173.408 231.796 176.404C230.972 173.346 230.747 170.163 231.153 166.995C231.207 166.578 230.759 166.227 230.38 166.222C229.918 166.218 229.66 166.582 229.607 166.995C229.08 171.097 229.582 175.299 231.057 179.163L231.06 179.167C230.236 182.417 229.49 185.685 228.778 188.961C227.2 196.231 225.767 203.531 224.477 210.856C221.899 225.513 219.896 240.273 218.477 255.087C217.672 263.496 217.058 271.921 216.628 280.358C216.577 281.352 218.123 281.349 218.174 280.358C218.93 265.501 220.266 250.674 222.189 235.922C224.111 221.178 226.626 206.507 229.714 191.962C231.433 183.856 233.237 175.735 236.031 167.92C236.365 166.98 234.871 166.575 234.539 167.507Z" fill="#4E4494"/>
<path d="M216.533 218.07C214.347 210.876 212.048 203.718 209.635 196.597C209.317 195.66 207.823 196.062 208.145 197.008C210.558 204.128 212.859 211.287 215.045 218.481C215.332 219.43 216.824 219.025 216.533 218.07Z" fill="#4E4494"/>
<path d="M372.52 243.793C368.879 241.104 364.817 239.102 360.678 237.304C357.959 236.121 355.223 234.98 352.483 233.843C352.483 233.836 352.485 233.832 352.485 233.826C350.802 220.44 349.958 206.954 349.978 193.463C349.985 189.6 350.063 185.738 350.207 181.877C350.244 180.882 348.698 180.885 348.661 181.877C348.567 184.396 348.531 186.916 348.496 189.437C347.114 186.486 346.251 183.307 345.993 180.047C345.915 179.062 344.368 179.053 344.447 180.047C344.795 184.451 346.123 188.718 348.367 192.526C348.389 192.563 348.42 192.582 348.445 192.613C348.403 202.521 348.811 212.432 349.694 222.305C350.019 225.933 350.411 229.554 350.858 233.169C349.858 232.753 348.858 232.338 347.859 231.921C339.141 228.274 330.415 224.616 321.463 221.572C316.36 219.837 311.187 218.311 305.933 217.097C304.966 216.873 304.551 218.364 305.522 218.588C314.665 220.7 323.546 223.772 332.272 227.193C341.115 230.661 349.876 234.367 358.615 238.088C363.191 240.038 367.716 242.162 371.734 245.127C372.541 245.719 373.313 244.377 372.52 243.793Z" fill="#4E4494"/>
<path d="M362.26 280.015C344.962 269.623 327.963 258.711 311.362 247.235C306.918 244.164 302.546 240.966 298.797 237.053C298.107 236.332 297.014 237.427 297.704 238.146C300.974 241.558 304.725 244.447 308.576 247.168C312.679 250.069 316.852 252.872 321.026 255.668C329.526 261.366 338.117 266.928 346.795 272.352C351.664 275.394 356.558 278.394 361.479 281.35C362.334 281.864 363.114 280.527 362.26 280.015Z" fill="#4E4494"/>
<path d="M336.161 136.506C333.722 141.396 329.671 145.175 325.24 148.267C320.54 151.546 315.401 154.333 309.925 156.07C304.514 157.786 298.749 158.42 293.14 157.357C287.702 156.328 282.522 153.86 278.482 150.051C274.164 145.98 271.248 140.577 270.322 134.71C270.167 133.729 268.677 134.145 268.832 135.121C270.617 146.424 279.457 155.365 290.363 158.307C302.249 161.513 314.356 157.245 324.323 150.745C329.62 147.291 334.629 143.033 337.497 137.285C337.939 136.398 336.607 135.614 336.161 136.506Z" fill="#4E4494"/>
<path d="M365.094 331.566C362.678 333.067 360.193 334.454 357.664 335.746C357.05 321.274 355.816 306.829 353.882 292.471C353.256 287.824 352.56 283.186 351.798 278.558C351.637 277.58 350.147 277.994 350.308 278.97C352.995 295.285 354.828 311.736 355.787 328.245C355.946 330.994 356.075 333.744 356.186 336.495C350.702 339.183 344.98 341.38 339.087 343.022C329.797 345.61 320.134 347.086 310.578 348.303C292.21 350.644 273.424 351.227 255.095 348.223C244.825 346.541 234.73 343.719 225.189 339.542C224.286 339.146 223.498 340.479 224.408 340.876C241.589 348.397 260.295 351.53 278.974 351.783C288.439 351.912 297.907 351.326 307.308 350.243C316.946 349.133 326.649 347.696 336.081 345.4C343.04 343.705 349.799 341.267 356.245 338.167C356.296 339.543 356.353 340.919 356.392 342.297C356.419 343.289 357.965 343.294 357.938 342.297C357.891 340.675 357.797 339.056 357.735 337.435C360.512 336.043 363.234 334.539 365.875 332.897C366.718 332.377 365.941 331.039 365.094 331.566Z" fill="#4E4494"/>
<path d="M332.176 313.95C317.669 311.458 304.049 305.213 292.146 296.635C279.9 287.808 269.58 276.516 260.995 264.151C256.097 257.098 251.742 249.68 247.8 242.055C247.342 241.171 246.008 241.951 246.465 242.836C253.524 256.486 261.949 269.514 272.323 280.893C282.424 291.973 294.439 301.418 308.028 307.845C315.568 311.41 323.541 314.027 331.766 315.441C332.739 315.607 333.156 314.119 332.176 313.95Z" fill="#4E4494"/>
<path d="M301.751 318.534C286.46 318.823 271.221 314.309 258.479 305.868C254.838 303.456 251.427 300.726 248.267 297.711C247.547 297.024 246.452 298.116 247.174 298.804C258.5 309.609 273.16 316.783 288.623 319.184C292.966 319.858 297.357 320.162 301.752 320.08C302.745 320.06 302.748 318.514 301.751 318.534Z" fill="#4E4494"/>
<path d="M305.27 217.543C306.353 220.957 306.289 224.799 305.158 228.197C304.026 231.595 301.795 234.616 298.881 236.699C293.425 234.854 288.901 230.448 286.939 225.032C285.803 226.447 284.147 227.469 282.366 227.815C282.256 228.506 282.369 229.18 282.259 229.87C283.445 229.851 284.841 230.456 285.616 231.356C286.39 232.255 286.74 233.505 286.543 234.675C286.396 235.55 285.515 235.988 284.654 236.201C283.205 235.79 281.854 235.182 280.532 234.459C279.212 233.735 278.026 232.668 277.442 231.28C276.884 229.952 276.8 228.256 276.797 226.815C276.508 227.942 275.987 228.958 275.696 230.085C275.417 231.176 276.006 232.371 275.526 233.39C275.047 234.411 274.011 235.23 272.887 235.174C271.701 235.116 270.729 234.114 270.33 232.996C269.931 231.877 269.985 230.654 270.046 229.468C270.103 228.341 270.073 227.069 270.104 225.941C270.547 226.869 269.35 228.222 268.336 228.4C267.323 228.577 266.298 227.956 265.72 227.106C265.142 226.255 264.927 225.213 264.778 224.196C264.178 220.104 264.444 215.906 265.338 211.868C265.924 209.221 269.475 208.258 272.105 207.609C270.472 205.685 269.098 203.351 268.294 200.959C265.655 199.817 263.589 197.626 262.442 194.988C259.786 194.333 257.445 192.569 256.037 190.225C255.698 189.662 255.408 189.044 255.388 188.388C255.368 187.733 255.675 187.031 256.267 186.748C256.897 186.446 257.64 186.675 258.296 186.916C275.778 193.342 291.107 205.447 305.27 217.543Z" fill="#D47F6C"/>
<path d="M281.152 214.902C279.119 216.069 277.092 217.416 276.428 219.802C276.067 221.091 276.005 222.493 275.961 223.823C275.91 225.33 275.973 226.836 276.134 228.334C276.239 229.313 277.786 229.324 277.68 228.334C277.411 225.834 277.284 223.107 277.816 220.632C278.292 218.416 280.093 217.294 281.933 216.236C282.796 215.742 282.018 214.406 281.152 214.902Z" fill="#BA6450"/>
<path d="M274.905 211.534C273.7 212.04 272.494 212.556 271.493 213.414C270.429 214.326 269.843 215.603 269.63 216.971C269.395 218.473 269.415 220.014 269.388 221.529C269.359 223.25 269.361 224.972 269.39 226.693C269.407 227.687 270.953 227.69 270.936 226.693C270.888 223.842 270.834 220.952 271.046 218.106C271.136 216.905 271.397 215.683 272.27 214.798C273.102 213.957 274.243 213.473 275.316 213.023C276.219 212.646 275.822 211.149 274.905 211.534Z" fill="#BA6450"/>
<path d="M277.484 206.169C277.366 205.739 276.944 205.552 276.533 205.629C273.634 206.177 270.825 207.064 268.124 208.247C267.742 208.414 267.654 208.973 267.847 209.304C268.077 209.698 268.521 209.75 268.905 209.581C271.479 208.454 274.184 207.639 276.944 207.12C277.354 207.042 277.587 206.548 277.484 206.169Z" fill="#BA6450"/>
<path d="M213.053 172.018H189.756C186.995 172.018 184.201 169.78 183.518 167.019L169.908 112.018C169.225 109.257 170.91 107.019 173.671 107.019H196.968C199.729 107.019 202.523 109.257 203.206 112.018L216.816 167.019C217.499 169.78 215.814 172.018 213.053 172.018Z" fill="#00072D"/>
<path d="M193.87 114.877C194.286 116.559 195.988 117.924 197.67 117.924C199.352 117.924 200.379 116.56 199.963 114.877C199.547 113.193 197.845 111.83 196.163 111.83C194.48 111.83 193.454 113.193 193.87 114.877Z" fill="white"/>
<path d="M187.264 114.877C187.555 116.054 188.745 117.008 189.923 117.008C191.1 117.008 191.819 116.054 191.526 114.877C191.236 113.701 190.045 112.745 188.867 112.745C187.689 112.745 186.973 113.699 187.264 114.877Z" fill="white"/>
<path d="M202.997 172.02C202.688 174.417 202.023 176.767 200.848 178.962C195.236 183.167 187.011 184.296 180.209 182.58C174.813 173.149 168.258 162.791 166.264 153.777C171.01 153.576 175.787 153.854 180.456 154.658L183.517 167.011C184.198 169.779 186.996 172.02 189.763 172.02H202.997Z" fill="#D47F6C"/>
<path d="M195.156 150.542C194.048 150.029 192.823 150.236 191.679 150.502C190.178 150.851 188.68 151.221 187.18 151.58C186.483 151.747 185.784 151.914 185.087 152.081C185.707 151.821 186.325 151.559 186.945 151.3C188.664 150.578 190.384 149.856 192.103 149.134C193.363 148.603 194.682 148.084 195.652 147.084C196.487 146.224 197.067 145.009 196.866 143.791C196.667 142.582 195.742 141.793 194.507 141.897C192.894 142.033 191.229 142.608 189.672 143.035C189.065 143.202 188.47 143.407 187.865 143.588C188.383 143.344 188.899 143.095 189.419 142.854C190.881 142.174 192.511 141.611 193.861 140.722C194.869 140.057 195.668 139 195.592 137.736C195.519 136.537 194.524 135.682 193.403 135.439C191.92 135.119 190.295 135.788 188.885 136.172C187.279 136.608 185.676 137.058 184.085 137.549C183.08 137.86 182.083 138.194 181.092 138.545C182.585 137.304 183.955 135.877 185.684 134.957C187.434 134.026 189.267 133.854 190.529 132.166C191.593 130.742 191.93 128.89 191.444 127.183C191.327 126.772 190.903 126.546 190.493 126.644C186.491 127.598 182.602 128.986 178.904 130.79C177.153 131.645 175.372 132.559 173.773 133.678C172.131 134.827 171.231 136.302 170.418 138.1C168.704 141.884 166.938 145.749 166.177 149.862C165.814 151.827 165.998 153.568 166.831 155.389C167.558 156.977 168.606 158.436 169.855 159.655C172.184 161.924 176.607 164.327 179.254 161.517C181.999 160.658 184.745 159.798 187.493 158.94C190.023 158.149 192.947 157.448 195.11 155.842C196.903 154.506 197.562 151.657 195.156 150.542Z" fill="#D47F6C"/>
<path d="M183.211 160.214C183.109 159.841 182.652 159.523 182.261 159.674C179.908 160.582 177.488 161.301 175.022 161.825C174.614 161.911 174.376 162.391 174.482 162.776C174.598 163.198 175.024 163.403 175.433 163.315C177.899 162.791 180.32 162.072 182.672 161.165C183.06 161.015 183.33 160.645 183.211 160.214Z" fill="#BA6450"/>
<path d="M185.402 151.129C181.744 152.527 178.075 153.898 174.397 155.242C173.47 155.58 173.87 157.075 174.809 156.732C178.487 155.389 182.155 154.017 185.813 152.62C186.733 152.269 186.333 150.772 185.402 151.129Z" fill="#BA6450"/>
<path d="M187.803 143.092C185.236 143.792 182.611 144.392 180.086 145.236C177.642 146.054 175.445 147.504 173.228 148.787C172.367 149.285 173.145 150.623 174.009 150.123C176.18 148.866 178.335 147.416 180.74 146.649C183.199 145.865 185.725 145.264 188.212 144.585C189.172 144.321 188.766 142.827 187.803 143.092Z" fill="#BA6450"/>
<path d="M181.892 138.304C181.792 137.936 181.331 137.608 180.941 137.764C177.608 139.101 173.647 139.653 171.249 142.605C170.986 142.928 170.932 143.381 171.249 143.698C171.521 143.97 172.078 144.024 172.342 143.698C174.559 140.969 178.268 140.491 181.352 139.254C181.741 139.098 182.013 138.738 181.892 138.304Z" fill="#BA6450"/>
<path opacity="0.15" d="M366.954 328.031C366.939 327.505 366.908 326.964 366.892 326.438C366.46 317.332 365.671 308.288 364.542 299.244C364.481 298.749 364.419 298.239 364.357 297.744C363.862 293.848 363.321 289.967 362.718 286.087C354.694 292.116 345.99 297.249 336.853 301.424C326.247 306.278 315.054 309.819 303.613 311.998C292.451 314.132 281.01 315.013 269.678 314.395C259.026 313.807 248.389 311.875 238.355 308.211C230.656 305.397 223.328 301.501 216.881 296.445C216.881 296.708 216.896 296.986 216.896 297.249C216.912 297.775 216.927 298.301 216.943 298.842C217.19 307.917 217.824 317.008 218.86 326.021C218.937 326.562 218.999 327.088 219.061 327.613C219.834 334.076 220.823 340.507 222.045 346.861C238.556 356.571 258.454 358.178 277.594 358.967C293.116 359.601 308.746 359.833 324.114 357.591C339.497 355.349 354.401 350.572 367.248 341.821C367.248 337.199 367.155 332.607 366.954 328.031Z" fill="#522840"/>
</g>
<defs>
<clipPath id="clip0_967_1200">
<rect width="480" height="323" fill="white" transform="translate(40)"/>
</clipPath>
</defs>
</svg>
