<svg width="343" height="340" viewBox="0 0 343 340" fill="none" xmlns="http://www.w3.org/2000/svg">
<g clip-path="url(#clip0_974_36423)">
<path d="M0 0H343V324C343 332.837 335.837 340 327 340H16C7.16345 340 0 332.837 0 324V0Z" fill="#F7F9FD"/>
<g clip-path="url(#clip1_974_36423)">
<path d="M-51.5742 267.66H98.2151V39.0107H-51.5742V267.66Z" fill="#EBEBEB"/>
<path d="M34.9023 149.86H98.2156V48.1548H34.9023V149.86Z" fill="white"/>
<path d="M-35.3262 149.86H27.9867V48.1548H-35.3262V149.86Z" fill="white"/>
<path d="M34.9023 258.495H98.2156V156.79H34.9023V258.495Z" fill="white"/>
<path d="M-35.3262 258.495H27.9867V156.79H-35.3262V258.495Z" fill="white"/>
<path d="M6.21227 39H-51.5742V366.126H-18.1287L-41.4679 199.666L6.21227 39Z" fill="#F1F1F1"/>
<path d="M40.4395 39H98.2257V366.126H64.7808L88.1198 199.666L40.4395 39Z" fill="#F1F1F1"/>
<path d="M50.4473 47.8462L60.1239 85.7433L69.6357 123.673L88.6481 199.533L88.6816 199.633L88.6704 199.732L79.6764 279.063L75.1729 318.733L70.5055 358.381L74.6337 318.678L78.9491 278.985L87.5809 199.611L87.5911 199.798L68.9316 123.85L59.6061 85.8644L50.4473 47.8462Z" fill="#EBEBEB"/>
<path d="M94.7808 54.5557L95.0565 87.3631L95.2101 120.17L95.3322 185.785L95.2101 251.389L95.0565 284.197L94.7808 317.004L94.5173 284.197L94.3627 251.389L94.2305 185.785L94.3627 120.17L94.5173 87.3631L94.7808 54.5557Z" fill="#EBEBEB"/>
<path d="M83.9922 60.7026L86.2821 95.5481L88.4845 130.394L92.6677 200.095C92.3809 213.04 91.9516 225.984 91.567 238.94L90.4653 277.774L89.3646 316.717L88.0767 355.55L88.8142 316.695L89.7278 277.85L90.6422 239.006C90.9719 226.062 91.214 213.117 91.5996 200.162L87.6809 130.449L85.7318 95.5811L83.9922 60.7026Z" fill="#EBEBEB"/>
<path d="M76.4607 350.461L79.6651 312.773L82.9673 275.097C85.2796 249.979 87.4923 224.861 89.8921 199.754V199.942L79.4556 141.234L74.3141 111.886L69.25 82.5156L74.7546 111.798L80.1931 141.091L90.9053 199.71V199.853C88.6368 224.971 86.2043 250.067 83.8595 275.174L80.1931 312.829L76.4607 350.461Z" fill="#EBEBEB"/>
<path d="M98.2139 196.922H85.168V204.546H98.2139V196.922Z" fill="#DBDBDB"/>
<path d="M267.545 290.476V441.701H358.92V290.476H267.545ZM350.597 385.89H275.835V346.517H350.597V385.89ZM350.597 337.142H275.835V297.78H350.597V337.142Z" fill="#EBEBEB"/>
<path d="M293.602 297.78H275.834V337.142H293.602V297.78Z" fill="#DBDBDB"/>
<path d="M215.167 113.249C212.993 122.138 207.694 130.235 200.424 135.796C193.153 141.343 183.953 144.326 174.811 144.081C171.903 144.008 168.836 143.548 166.604 141.689C164.214 139.701 163.236 136.531 162.501 133.52C161.277 128.564 160.356 123.536 159.708 118.479C159.334 115.424 159.046 112.37 158.859 109.301C158.153 98.3229 158.657 87.2436 160.04 76.3228C168.894 72.7499 179.576 71.093 189.122 71.2947C194.118 71.4099 199.172 71.7557 203.966 73.1821C208.76 74.6228 213.237 77.2593 216.29 81.2213C216.203 91.8251 217.687 102.948 215.167 113.249Z" fill="#D47F6C"/>
<path d="M218.016 164.366C213.581 169.754 208.312 174.495 201.805 177.002C195.297 179.494 187.883 179.883 181.346 177.463C174.81 175.028 169.295 169.366 167.309 162.666C168.417 160.26 169.382 157.782 170.174 155.261C171.354 151.572 172.189 147.769 172.635 143.936C173.37 144.023 174.09 144.067 174.81 144.081C183.952 144.326 193.152 141.344 200.423 135.796C203.417 133.492 206.095 130.768 208.326 127.714C210.933 124.213 212.963 120.294 214.316 116.159C214.33 116.159 214.33 116.159 214.345 116.145C213.222 131.907 213.193 149.325 218.016 164.366Z" fill="#D47F6C"/>
<path d="M212.853 116.047C216.99 116.567 221.34 114.835 223.991 111.615C226.642 108.395 227.505 103.791 226.203 99.8271C225.672 98.2106 224.747 96.646 223.293 95.7628C221.568 94.7154 219.322 94.7946 217.47 95.5971C215.619 96.3996 214.113 97.8418 212.844 99.4093L212.853 116.047Z" fill="#D47F6C"/>
<path d="M223.762 84.2324C223.056 87.8343 221.933 91.4793 220.709 94.9947C219.615 94.937 218.478 95.1531 217.47 95.5998C215.67 96.3634 214.217 97.7609 212.963 99.2592C207.924 93.6692 204.743 86.4079 204.08 78.9017C203.649 74.1473 208.082 69.3065 211.841 66.3818C213.324 65.2436 215.066 64.2784 216.923 64.3359C218.621 64.408 220.205 65.3444 221.314 66.6411C222.423 67.9233 223.1 69.537 223.56 71.1795C224.741 75.4007 224.596 79.9247 223.762 84.2324Z" fill="#00072D"/>
<path d="M205.774 77.2003C201.194 81.2445 195.409 83.7844 189.425 85.0048C183.44 86.2251 177.25 86.1732 171.186 85.4485C166.73 84.9169 162.186 83.9732 158.457 81.4735C154.714 78.9638 152.071 75.0321 150.527 70.7962C148.984 66.5605 148.472 62.0136 148.348 57.5056C154.093 61.5828 161.982 62.9169 168.775 61.0512C174.215 59.5571 178.919 56.2088 183.846 53.4586C188.772 50.7082 194.401 48.4707 199.946 49.5109C203.983 50.2673 207.629 52.8001 209.861 56.2492C212.095 59.6983 212.917 64.0075 212.242 68.0618C211.635 71.7155 208.55 74.7482 205.774 77.2003Z" fill="#00072D"/>
<path d="M158.644 105.008C153.677 96.8386 152.568 86.4221 155.692 77.3887C157.031 77.6913 158.471 78.1379 159.738 78.8006C158.759 87.4882 158.327 96.2767 158.644 105.008Z" fill="#00072D"/>
<path d="M175.884 97.3906C175.67 101.484 175.459 105.575 175.246 109.669C174.079 108.566 172.062 108.533 170.86 109.597C169.657 110.66 169.442 112.668 170.393 113.962C171.343 115.256 173.323 115.651 174.696 114.821" stroke="#25262B" stroke-miterlimit="10" stroke-linecap="round" stroke-linejoin="round"/>
<path d="M189.363 99.0308C189.318 100.098 189.273 101.166 189.227 102.235" stroke="#25262B" stroke-width="2" stroke-miterlimit="10" stroke-linecap="round" stroke-linejoin="round"/>
<path d="M165.941 99.1885C165.996 100.256 166.052 101.324 166.107 102.391" stroke="#25262B" stroke-width="2" stroke-miterlimit="10" stroke-linecap="round" stroke-linejoin="round"/>
<path d="M195.361 93.4745C194.794 91.0873 192.445 89.2517 189.995 89.2776C187.543 89.3021 185.234 91.1866 184.715 93.584" stroke="#25262B" stroke-miterlimit="10" stroke-linecap="round" stroke-linejoin="round"/>
<path d="M171.941 94.2585C172.065 92.4619 171.192 90.6294 169.718 89.5978C168.244 88.5648 166.223 88.3703 164.579 89.1007C162.934 89.8312 161.726 91.4635 161.504 93.25" stroke="#25262B" stroke-miterlimit="10" stroke-linecap="round" stroke-linejoin="round"/>
<path d="M186.412 122.262C186.113 120.965 185.074 120.104 183.769 119.954C180.718 119.607 178.377 121.91 176.862 124.334C175.769 123.942 174.569 123.649 173.494 123.959C172.186 124.336 171.464 125.568 171.737 126.9C172.31 129.71 176.025 130.661 178.448 130.327C181.206 129.947 183.819 128.105 185.47 125.907C186.256 124.858 186.714 123.571 186.412 122.262Z" fill="white"/>
<path d="M187.219 113.835C187.219 116.414 190.302 118.504 194.105 118.504C197.909 118.504 200.991 116.414 200.991 113.835C200.991 111.256 197.908 109.166 194.105 109.166C190.302 109.166 187.219 111.256 187.219 113.835Z" fill="#BA6450"/>
<path d="M167.309 113.839C167.309 116.418 164.227 118.507 160.427 118.507C160.182 118.507 159.937 118.493 159.707 118.479C159.332 115.424 159.045 112.37 158.857 109.301C159.361 109.215 159.894 109.171 160.427 109.171C164.227 109.171 167.309 111.26 167.309 113.839Z" fill="#BA6450"/>
<path d="M220.306 101.122C216.827 103.184 214.195 106.493 212.95 110.339C212.714 111.068 213.646 111.483 214.154 111.039C215.884 109.523 217.949 108.141 220.306 107.964C221.226 107.895 221.232 106.454 220.306 106.524C218.49 106.66 216.852 107.359 215.362 108.325C216.664 105.872 218.631 103.791 221.033 102.367C221.829 101.894 221.105 100.648 220.306 101.122Z" fill="#BA6450"/>
<path d="M208.327 127.714C206.657 135.71 201.59 142.971 194.88 147.725C187.739 152.783 178.942 155.16 170.174 155.261C171.355 151.572 172.19 147.769 172.636 143.936C173.37 144.023 174.09 144.066 174.81 144.081C183.953 144.326 193.152 141.343 200.423 135.796C203.418 133.491 206.096 130.768 208.327 127.714Z" fill="#BA6450"/>
<path d="M200.554 73.8644C194.437 77.6737 187.278 79.7283 180.172 80.6574C173.404 81.5421 166.166 81.058 160.454 76.962C157.734 75.0112 155.559 72.3041 154.521 69.1C154.236 68.2225 152.845 68.5971 153.133 69.4832C155.088 75.5184 160.526 79.7412 166.488 81.4312C173.934 83.5432 182.161 82.2653 189.477 80.1979C193.614 79.0294 197.624 77.3842 201.281 75.1078C202.065 74.6194 201.344 73.3717 200.554 73.8644Z" fill="#050F4A"/>
<path d="M207.481 58.0853C203.982 52.7373 196.048 54.204 191.033 56.0437C187.766 57.2424 184.672 58.859 181.412 60.0764C178.018 61.3456 174.479 61.9421 170.896 62.4031C169.991 62.5199 169.979 63.962 170.896 63.8439C174.147 63.4261 177.403 62.9564 180.523 61.9162C183.626 60.8817 186.551 59.405 189.569 58.1559C192.525 56.9327 195.657 55.8838 198.885 55.8247C201.57 55.7758 204.665 56.4097 206.238 58.8114C206.745 59.5851 207.992 58.8632 207.481 58.0853Z" fill="#050F4A"/>
<path d="M206.349 68.6599C205.033 66.4773 202.594 65.4169 200.197 64.8823C197.439 64.2657 194.589 64.3522 191.819 64.8478C185.793 65.9255 180.622 69.3588 174.725 70.8009C171.76 71.5256 167.446 72.001 165.044 69.6526C164.382 69.0043 163.362 70.0214 164.026 70.6712C165.923 72.5269 168.822 72.9 171.365 72.7646C174.309 72.6061 177.134 71.6971 179.846 70.5949C185.342 68.3617 190.735 65.6676 196.832 65.8952C199.7 66.0018 203.494 66.715 205.105 69.3876C205.583 70.1799 206.828 69.4567 206.349 68.6599Z" fill="#050F4A"/>
<path d="M213.352 92.2391C210.578 88.4182 209.017 83.8454 208.922 79.1212C208.904 78.1948 207.464 78.1919 207.483 79.1212C207.582 84.0831 209.193 88.9484 212.11 92.9666C212.648 93.7086 213.898 92.9911 213.352 92.2391Z" fill="#050F4A"/>
<path d="M216.853 73.4377C216.521 72.5834 215.127 72.9551 215.464 73.821C217.52 79.1156 218.217 84.8684 217.397 90.4959C217.264 91.4036 218.652 91.7941 218.784 90.8792C219.643 84.9924 219.008 78.9889 216.853 73.4377Z" fill="#050F4A"/>
<path d="M277.724 282.246C277.652 282.722 277.58 283.183 277.508 283.644C276.961 286.713 276.01 289.666 274.427 292.36C269.316 301.019 257.452 304.923 248.209 301.004C248.469 302.532 248.713 304.073 248.958 305.6C249.519 309.217 250.023 312.833 250.484 316.464C250.542 316.925 250.599 317.4 250.657 317.861C251.708 326.289 252.442 334.717 252.846 343.204C252.86 343.693 252.888 344.197 252.902 344.688C253.09 348.952 253.176 353.231 253.176 357.539C241.212 365.693 227.333 370.145 213.008 372.234C198.696 374.324 184.141 374.107 169.686 373.517C151.862 372.782 133.332 371.284 117.956 362.236C116.818 356.314 115.897 350.321 115.177 344.299C115.119 343.809 115.062 343.319 114.99 342.814C114.025 334.415 113.435 325.944 113.205 317.487C113.19 316.983 113.176 316.492 113.161 316.002C113.161 315.758 113.147 315.498 113.147 315.254C113.017 309.49 113.06 303.756 113.247 298.036C105.804 299.909 98.1016 294.349 93.9836 287.851C93.8113 287.577 93.653 287.318 93.4947 287.044C93.2349 286.611 92.99 286.18 92.7749 285.733C89.6068 279.696 88.5274 272.723 87.5049 265.923C87.1883 263.848 86.8856 261.774 86.569 259.698C86.4973 259.238 86.4396 258.763 86.3679 258.302C84.9999 249.254 83.6467 240.206 82.2927 231.158C82.221 230.668 82.1493 230.193 82.0767 229.703C81.0551 222.845 80.0186 216.001 78.9961 209.143C85.3314 210.743 92.99 209.691 98.2171 205.772C100.823 212.558 105.458 222.326 108.064 229.112C109.994 222.629 112.312 215.454 114.759 208.51V208.495C114.946 207.977 115.119 207.473 115.306 206.954C116.602 203.323 117.927 199.779 119.251 196.436C121.036 191.956 123.441 187.475 126.378 183.369C126.781 182.778 127.199 182.202 127.645 181.64C131.014 177.232 135.002 173.327 139.422 170.402C147.269 165.23 157.937 163.285 167.31 162.666C169.297 169.365 174.811 175.027 181.348 177.462C187.884 179.882 195.299 179.494 201.807 177.001C208.314 174.494 213.583 169.754 218.018 164.365C231.177 164.365 245.358 168.673 254.932 177.707C255.71 178.456 256.459 179.234 257.15 180.041C257.495 180.43 257.827 180.819 258.143 181.222C261.757 185.718 264.319 191.062 266.451 196.465C267.488 199.116 268.437 201.782 269.302 204.49C269.445 204.951 269.589 205.412 269.733 205.887C272.152 213.768 273.866 221.851 275.089 230.035C275.161 230.568 275.248 231.086 275.305 231.619C276.529 240.177 277.22 248.85 277.637 257.523C277.666 258.028 277.695 258.518 277.71 259.022C277.882 262.681 278.012 266.341 278.112 269.986C278.228 274.049 278.271 278.226 277.724 282.246Z" fill="#7D32DF"/>
<path d="M111.086 262.292C114.614 262.695 118.084 262.392 121.554 261.672C125.066 260.938 128.507 259.872 132.035 259.209C135.721 258.518 139.305 258.503 142.962 259.324C146.432 260.088 149.787 261.297 153.285 261.888C156.568 262.436 159.765 262.249 163.004 261.529C166.344 260.793 169.584 259.655 172.938 258.949C176.523 258.215 179.921 258.287 183.433 259.353C186.789 260.376 190.028 261.831 193.569 262.076C196.996 262.307 200.408 261.543 203.734 260.764C207.19 259.943 210.702 259.051 214.302 259.223C217.93 259.396 221.386 260.664 224.927 261.297C228.484 261.932 231.852 261.586 235.351 260.837C239.094 260.03 242.722 259.209 246.552 259.843C250.022 260.419 253.391 261.643 256.947 261.788C260.589 261.932 264.146 260.866 267.658 260.03C270.999 259.238 274.353 258.964 277.709 259.022C277.694 258.518 277.665 258.027 277.636 257.523C276.398 257.48 275.146 257.508 273.907 257.595C270.107 257.854 266.521 258.906 262.822 259.713C260.95 260.117 259.049 260.405 257.134 260.347C255.277 260.304 253.449 259.901 251.634 259.482C248.078 258.647 244.637 257.84 240.951 258.301C237.251 258.748 233.666 260.015 229.937 260.217C226.209 260.434 222.667 259.281 219.068 258.489C215.598 257.725 212.229 257.61 208.701 258.215C205.231 258.806 201.863 259.872 198.364 260.39C194.549 260.967 191.093 260.434 187.465 259.194C184.096 258.056 180.799 256.861 177.2 256.975C173.859 257.077 170.605 257.985 167.423 258.892C164.04 259.843 160.599 260.837 157.044 260.808C153.429 260.779 149.946 259.669 146.476 258.719C143.049 257.782 139.579 257.048 135.995 257.264C132.423 257.466 128.939 258.373 125.484 259.252C121.942 260.146 118.372 261.038 114.701 261.053C110.784 261.096 106.955 260.189 103.154 259.324C97.7258 258.085 91.8515 256.89 86.3664 258.301C86.4381 258.762 86.4959 259.238 86.5676 259.698C90.9594 258.574 95.8689 259.209 100.202 260.146C103.816 260.923 107.415 261.874 111.086 262.292ZM266.996 283.413C263.829 284.465 260.82 285.964 257.595 286.856C254.226 287.807 250.929 287.663 247.516 286.943C244.292 286.266 241.109 285.286 237.813 284.998C234.66 284.724 231.622 285.344 228.656 286.366C225.719 287.389 222.883 288.701 219.859 289.45C218.333 289.824 216.75 290.041 215.166 289.968C213.366 289.882 211.609 289.45 209.868 289.06C206.585 288.34 203.417 288.11 200.078 288.571C196.809 289.032 193.613 289.925 190.402 290.66C187.177 291.424 183.866 292.028 180.54 291.783C176.955 291.539 173.558 290.242 170.044 289.622C163.133 288.427 156.525 290.919 149.672 291.207C146.202 291.366 143.02 290.603 139.781 289.435C136.786 288.355 133.791 287.13 130.58 286.856C127.083 286.554 123.742 287.706 120.344 288.239C116.673 288.83 113.074 288.196 109.517 287.289C104.133 285.92 98.2725 284.062 92.7734 285.733C92.9895 286.179 93.2335 286.611 93.4933 287.044C97.6252 285.906 102.405 286.914 106.436 287.98C109.82 288.859 113.217 289.838 116.745 289.925C120.157 290.026 123.382 288.96 126.737 288.455C130.149 287.937 133.316 288.643 136.527 289.781C139.55 290.848 142.516 292.086 145.698 292.504C152.522 293.383 159.131 290.674 165.927 290.688C169.468 290.703 172.809 291.769 176.235 292.547C179.417 293.268 182.541 293.44 185.766 293.009C192.187 292.144 198.407 289.435 204.958 289.753C208.37 289.911 211.595 291.193 214.993 291.395C218.002 291.582 220.94 290.761 223.746 289.738C226.669 288.687 229.52 287.389 232.572 286.741C235.869 286.035 239.137 286.482 242.391 287.231C245.544 287.951 248.683 288.859 251.922 289.003C255.133 289.147 258.2 288.297 261.18 287.173C264.204 286.02 267.17 284.652 270.351 284.004C272.697 283.514 275.117 283.384 277.506 283.643C277.579 283.183 277.651 282.722 277.722 282.246C274.137 281.886 270.495 282.26 266.996 283.413ZM104.637 235.048C108.308 235.581 111.605 234.99 115.031 233.679C116.673 233.059 118.314 232.383 120.041 232.036C121.841 231.69 123.684 231.835 125.47 232.181C128.853 232.858 132.107 234.169 135.576 234.328C139.046 234.471 141.97 232.944 145.065 231.619C148.578 230.12 152.048 230.034 155.762 230.74C159.217 231.402 162.586 232.469 166.099 232.8C169.713 233.146 173.212 232.368 176.653 231.345C180.151 230.308 183.664 229.04 187.35 228.867C191.122 228.708 194.837 229.587 198.494 230.423C202.05 231.244 205.649 232.036 209.306 231.936C212.962 231.849 216.563 230.985 220.104 230.164C223.689 229.328 227.332 228.492 231.031 228.608C234.76 228.723 238.201 230.106 241.744 231.115C245.17 232.08 248.481 232.339 251.98 231.605C255.55 230.869 258.977 229.429 262.619 229.098C266.608 228.708 270.221 230.207 273.979 231.273C274.411 231.402 274.858 231.503 275.304 231.619C275.246 231.086 275.16 230.568 275.088 230.034C272.381 229.285 269.732 228.305 266.967 227.83C263.44 227.239 260.043 227.945 256.645 228.896C253.045 229.904 249.432 231.028 245.66 230.51C242.031 230.006 238.662 228.463 235.107 227.685C231.593 226.908 228.051 227.123 224.539 227.743C220.867 228.406 217.282 229.458 213.597 230.062C209.781 230.697 206.067 230.539 202.28 229.789C198.623 229.054 195.038 228.017 191.338 227.599C187.71 227.181 184.24 227.628 180.756 228.608C177.186 229.616 173.658 230.985 169.957 231.36C166.229 231.748 162.615 230.827 159.03 229.977C155.747 229.213 152.35 228.492 148.966 228.967C145.41 229.473 142.473 231.59 139.046 232.512C135.476 233.477 131.919 232.325 128.465 231.417C125.196 230.553 121.942 230.006 118.602 230.898C114.988 231.878 111.777 233.78 107.933 233.838C103.946 233.909 100.101 232.584 96.3439 231.402C91.8664 229.991 86.7697 228.68 82.0762 229.703C82.1479 230.193 82.2196 230.668 82.2913 231.157C85.9055 230.351 90.0374 231.028 93.4784 232.036C97.1782 233.117 100.806 234.5 104.637 235.048ZM123.843 208.841C126.78 209.518 129.659 210.526 132.683 210.872C135.677 211.218 138.557 210.57 141.451 209.821C144.345 209.086 147.368 208.294 150.334 209.101C152.997 209.835 155.301 211.507 157.907 212.385C163.364 214.215 168.259 211.002 173.298 209.417C176.177 208.51 179.014 208.495 181.965 209.072C184.888 209.648 187.739 210.584 190.69 211.017C193.526 211.434 196.262 211.189 199.026 210.483C201.79 209.763 204.454 208.711 207.261 208.164C210.198 207.573 212.934 207.875 215.684 209.086C218.19 210.196 220.593 211.578 223.372 211.88C229.074 212.5 234.256 209.014 239.93 209.244C243.068 209.36 245.991 210.743 249.143 210.743C252.181 210.743 255.133 209.878 257.984 208.898C261.698 207.631 265.715 205.988 269.732 205.887C269.588 205.412 269.444 204.951 269.3 204.49C267.442 204.576 265.586 204.922 263.843 205.397C260.892 206.219 258.055 207.458 255.104 208.308C251.951 209.23 248.842 209.59 245.602 208.855C244.075 208.51 242.578 208.077 241.009 207.89C239.613 207.717 238.201 207.803 236.805 208.006C233.94 208.452 231.219 209.46 228.383 210.065C225.402 210.714 222.609 210.613 219.788 209.402C217.21 208.294 214.791 206.838 211.97 206.492C206.124 205.772 200.869 209.201 195.182 209.748C189.092 210.325 183.462 206.996 177.401 207.213C174.594 207.314 171.973 208.307 169.382 209.345C166.863 210.354 164.227 211.506 161.448 211.521C158.497 211.535 156.035 209.964 153.443 208.769C150.853 207.558 148.29 207.083 145.439 207.487C142.43 207.904 139.55 209.028 136.541 209.417C133.345 209.835 130.264 209.057 127.212 208.222C124.275 207.429 121.367 206.737 118.314 206.737C117.306 206.737 116.313 206.809 115.305 206.953C115.118 207.473 114.946 207.977 114.758 208.495C117.752 208.034 120.834 208.149 123.843 208.841ZM134.108 183.83C136.512 184.694 138.816 185.904 141.335 186.394C143.769 186.869 146.245 186.711 148.678 186.307C153.79 185.458 158.929 183.455 164.156 184.492C169.21 185.501 173.759 188.455 179.057 188.167C184.298 187.893 189.107 185.184 194.391 185.156C199.703 185.112 204.727 187.244 209.954 187.935C212.43 188.253 214.878 188.195 217.311 187.676C219.73 187.172 222.048 186.294 224.366 185.444C226.698 184.594 229.045 183.729 231.492 183.283C234.069 182.807 236.531 183.037 239.037 183.758C241.528 184.478 243.99 185.343 246.624 185.112C249.072 184.896 251.361 183.988 253.621 183.037C255.118 182.389 256.616 181.74 258.142 181.222C257.825 180.819 257.494 180.43 257.148 180.041C252.47 181.712 248.107 184.565 242.952 183.383C240.376 182.778 237.942 181.74 235.279 181.582C232.874 181.452 230.456 181.928 228.167 182.62C223.358 184.061 218.722 186.553 213.611 186.697C208.255 186.855 203.201 184.723 197.975 183.988C195.398 183.613 192.864 183.642 190.315 184.161C187.696 184.694 185.162 185.602 182.541 186.207C179.863 186.812 177.215 186.927 174.521 186.265C171.973 185.616 169.569 184.55 167.064 183.772C164.631 183.009 162.168 182.634 159.62 182.807C157.029 182.994 154.481 183.613 151.947 184.175C149.369 184.752 146.749 185.314 144.1 185.256C141.437 185.184 139.032 184.262 136.599 183.268C134.252 182.302 131.848 181.409 129.271 181.481C128.723 181.496 128.177 181.553 127.644 181.64C127.197 182.202 126.78 182.778 126.377 183.368C129.026 182.648 131.56 182.908 134.108 183.83ZM252.181 343.405C249.245 344.327 246.308 345.437 243.183 344.702C240.405 344.054 237.942 342.512 235.236 341.633C229.217 339.674 223.113 342.123 217.555 344.371C211.869 346.661 205.418 348.836 199.646 345.653C197.27 344.342 195.095 342.814 192.36 342.397C190.143 342.051 187.897 342.353 185.737 342.944C181.044 344.226 176.811 346.777 172.089 348.001C169.684 348.621 167.208 348.836 164.775 348.246C162.054 347.598 159.563 346.244 157 345.163C154.452 344.111 151.845 343.448 149.081 343.607C146.36 343.78 143.726 344.543 141.134 345.35C138.485 346.186 135.807 347.108 133.029 347.424C130.091 347.756 127.37 347.151 124.663 346.042C121.597 344.774 118.314 343.117 114.988 342.814C115.06 343.319 115.118 343.809 115.176 344.298C117.695 344.616 120.315 345.711 122.389 346.618C124.937 347.741 127.529 348.793 130.336 348.952C132.985 349.096 135.62 348.505 138.154 347.785C143.394 346.272 148.649 343.996 154.149 345.653C156.77 346.445 159.188 347.799 161.751 348.793C164.113 349.715 166.574 350.205 169.108 349.989C173.874 349.572 178.178 347.252 182.57 345.537C184.701 344.701 186.932 343.938 189.236 343.736C191.755 343.521 194.045 344.097 196.247 345.336C198.767 346.748 201.056 348.231 203.979 348.606C206.916 348.995 209.896 348.477 212.704 347.641C218.564 345.898 224.107 342.426 230.369 342.339C233.451 342.295 236.085 343.448 238.849 344.659C241.398 345.782 243.975 346.661 246.797 346.316C248.898 346.056 250.886 345.321 252.901 344.688C252.887 344.197 252.858 343.693 252.844 343.203C252.628 343.261 252.397 343.333 252.181 343.405ZM120.761 317.63C123.368 318.322 125.815 319.474 128.378 320.267C130.854 321.031 133.345 321.319 135.922 320.944C141.09 320.21 145.914 317.357 151.241 317.703C156.525 318.049 161.176 321.175 166.431 321.751C171.671 322.313 176.782 320.455 181.793 319.215C184.369 318.582 187.005 318.077 189.682 318.149C192.519 318.236 195.269 319.057 198.004 319.748C200.638 320.411 203.359 320.973 206.08 320.743C208.672 320.526 211.12 319.691 213.496 318.711C215.943 317.717 218.333 316.564 220.867 315.786C223.588 314.965 226.425 314.662 229.261 314.907C232.169 315.152 234.833 316.075 237.467 317.255C239.756 318.279 242.031 319.1 244.565 318.999C246.638 318.927 248.64 318.394 250.656 317.861C250.598 317.4 250.54 316.925 250.482 316.463C249.95 316.608 249.417 316.737 248.898 316.867C246.538 317.443 244.047 317.875 241.643 317.284C238.95 316.637 236.56 315.109 233.911 314.331C228.44 312.717 222.854 313.337 217.628 315.426C215.123 316.421 212.704 317.601 210.141 318.423C207.42 319.302 204.685 319.561 201.848 319.1C199.026 318.639 196.305 317.717 193.497 317.17C190.863 316.651 188.242 316.593 185.579 316.982C180.223 317.76 175.141 320.022 169.727 320.368C166.977 320.54 164.357 320.051 161.751 319.186C159.203 318.35 156.726 317.284 154.106 316.694C151.544 316.118 149.01 316.132 146.447 316.68C143.826 317.227 141.321 318.178 138.759 318.884C136.095 319.604 133.403 319.965 130.682 319.374C128.004 318.812 125.512 317.645 122.922 316.78C119.711 315.7 116.37 315.383 113.159 316.002C113.174 316.492 113.188 316.982 113.203 317.487C115.665 316.939 118.271 316.968 120.761 317.63Z" fill="#B9FFB7"/>
<path d="M129.591 195.098C128.616 197.826 127.795 200.597 127.037 203.389C126.269 200.539 126.06 197.573 126.438 194.621C126.488 194.232 126.071 193.905 125.718 193.9C125.288 193.897 125.047 194.236 124.998 194.621C124.507 198.443 124.975 202.359 126.348 205.96L126.351 205.964C125.584 208.992 124.889 212.038 124.226 215.091C122.756 221.865 121.422 228.668 120.221 235.494C117.82 249.153 115.955 262.908 114.633 276.713C113.884 284.549 113.312 292.4 112.911 300.262C112.864 301.189 114.304 301.186 114.351 300.262C115.055 286.417 116.299 272.6 118.09 258.853C119.88 245.113 122.222 231.442 125.098 217.887C126.698 210.333 128.378 202.765 130.98 195.483C131.291 194.607 129.9 194.229 129.591 195.098Z" fill="#4E4494"/>
<path d="M112.822 242.217C110.786 235.513 108.645 228.842 106.398 222.206C106.102 221.333 104.711 221.708 105.011 222.589C107.258 229.224 109.401 235.896 111.436 242.6C111.704 243.484 113.093 243.107 112.822 242.217Z" fill="#4E4494"/>
<path d="M258.085 266.188C254.694 263.682 250.911 261.817 247.057 260.141C244.525 259.039 241.977 257.975 239.425 256.916C239.425 256.909 239.427 256.906 239.427 256.9C237.86 244.426 237.074 231.858 237.093 219.286C237.099 215.686 237.172 212.087 237.306 208.489C237.34 207.562 235.901 207.565 235.866 208.489C235.779 210.837 235.745 213.185 235.713 215.534C234.426 212.784 233.622 209.822 233.382 206.784C233.309 205.866 231.868 205.858 231.942 206.784C232.266 210.888 233.503 214.864 235.592 218.413C235.613 218.447 235.642 218.465 235.665 218.494C235.626 227.727 236.006 236.963 236.828 246.164C237.131 249.545 237.496 252.919 237.912 256.288C236.981 255.9 236.05 255.513 235.119 255.125C227.001 251.726 218.875 248.317 210.538 245.481C205.786 243.864 200.969 242.442 196.076 241.31C195.175 241.102 194.789 242.491 195.693 242.7C204.207 244.668 212.478 247.531 220.604 250.719C228.839 253.95 236.998 257.404 245.136 260.872C249.397 262.689 253.611 264.668 257.353 267.431C258.104 267.983 258.823 266.732 258.085 266.188Z" fill="#4E4494"/>
<path d="M248.53 299.943C232.421 290.259 216.59 280.09 201.131 269.395C196.992 266.534 192.921 263.553 189.43 259.907C188.787 259.235 187.769 260.255 188.412 260.925C191.457 264.105 194.95 266.797 198.536 269.333C202.357 272.036 206.243 274.648 210.13 277.254C218.046 282.564 226.046 287.747 234.128 292.802C238.662 295.636 243.22 298.432 247.802 301.187C248.598 301.666 249.325 300.42 248.53 299.943Z" fill="#4E4494"/>
<path d="M224.226 166.208C221.955 170.765 218.182 174.287 214.056 177.168C209.679 180.224 204.894 182.821 199.794 184.44C194.755 186.039 189.386 186.63 184.163 185.639C179.099 184.68 174.275 182.38 170.513 178.831C166.492 175.037 163.776 170.002 162.914 164.535C162.769 163.621 161.382 164.008 161.526 164.918C163.188 175.451 171.421 183.783 181.577 186.525C192.646 189.512 203.92 185.535 213.202 179.478C218.135 176.259 222.8 172.291 225.47 166.934C225.882 166.108 224.642 165.377 224.226 166.208Z" fill="#4E4494"/>
<path d="M251.169 347.983C248.919 349.381 246.605 350.674 244.25 351.878C243.678 338.392 242.529 324.93 240.728 311.55C240.145 307.22 239.497 302.898 238.787 298.585C238.638 297.674 237.25 298.059 237.4 298.969C239.902 314.173 241.609 329.503 242.502 344.888C242.65 347.449 242.77 350.012 242.874 352.576C237.767 355.081 232.438 357.128 226.95 358.658C218.299 361.07 209.3 362.445 200.401 363.58C183.296 365.761 165.802 366.304 148.733 363.505C139.169 361.938 129.768 359.308 120.883 355.415C120.042 355.046 119.308 356.288 120.156 356.658C136.155 363.667 153.575 366.587 170.97 366.822C179.784 366.943 188.601 366.397 197.356 365.387C206.332 364.353 215.367 363.014 224.151 360.874C230.632 359.295 236.926 357.023 242.929 354.134C242.976 355.416 243.029 356.698 243.066 357.983C243.091 358.907 244.53 358.912 244.505 357.983C244.462 356.471 244.374 354.962 244.316 353.452C246.902 352.155 249.437 350.753 251.897 349.223C252.682 348.738 251.958 347.491 251.169 347.983Z" fill="#4E4494"/>
<path d="M220.515 331.567C207.006 329.244 194.322 323.425 183.237 315.431C171.833 307.205 162.223 296.682 154.228 285.159C149.667 278.587 145.611 271.674 141.94 264.568C141.514 263.745 140.271 264.471 140.697 265.296C147.271 278.016 155.116 290.157 164.777 300.761C174.184 311.086 185.373 319.888 198.027 325.877C205.049 329.2 212.474 331.638 220.133 332.956C221.04 333.111 221.428 331.724 220.515 331.567Z" fill="#4E4494"/>
<path d="M192.182 335.838C177.942 336.108 163.751 331.901 151.885 324.035C148.494 321.787 145.318 319.243 142.375 316.434C141.704 315.793 140.685 316.811 141.357 317.452C151.904 327.521 165.556 334.206 179.956 336.444C184.001 337.072 188.09 337.355 192.183 337.279C193.107 337.26 193.11 335.82 192.182 335.838Z" fill="#4E4494"/>
<path d="M195.459 241.726C196.468 244.907 196.408 248.488 195.355 251.654C194.301 254.821 192.223 257.636 189.51 259.577C184.429 257.858 180.216 253.752 178.389 248.705C177.331 250.024 175.789 250.976 174.13 251.298C174.028 251.942 174.133 252.57 174.03 253.213C175.135 253.196 176.435 253.759 177.157 254.598C177.877 255.436 178.203 256.601 178.02 257.691C177.883 258.507 177.062 258.915 176.261 259.113C174.911 258.73 173.653 258.164 172.422 257.49C171.193 256.815 170.088 255.821 169.545 254.527C169.025 253.29 168.947 251.709 168.944 250.366C168.675 251.417 168.19 252.364 167.919 253.414C167.659 254.43 168.207 255.544 167.76 256.494C167.314 257.445 166.349 258.208 165.303 258.156C164.198 258.102 163.293 257.168 162.921 256.126C162.55 255.084 162.6 253.944 162.657 252.839C162.71 251.789 162.682 250.603 162.711 249.552C163.124 250.417 162.009 251.678 161.065 251.844C160.121 252.008 159.167 251.43 158.628 250.638C158.09 249.845 157.89 248.874 157.751 247.926C157.192 244.113 157.44 240.201 158.273 236.438C158.818 233.971 162.125 233.073 164.574 232.469C163.054 230.676 161.774 228.501 161.025 226.272C158.568 225.207 156.644 223.166 155.576 220.707C153.102 220.097 150.922 218.453 149.611 216.269C149.295 215.744 149.025 215.168 149.007 214.557C148.988 213.946 149.274 213.292 149.825 213.029C150.412 212.747 151.104 212.96 151.715 213.185C167.995 219.173 182.27 230.454 195.459 241.726Z" fill="#D47F6C"/>
<path d="M172.999 239.265C171.105 240.352 169.218 241.608 168.599 243.831C168.263 245.032 168.206 246.339 168.165 247.578C168.117 248.983 168.176 250.386 168.326 251.782C168.423 252.694 169.864 252.704 169.765 251.782C169.515 249.452 169.397 246.911 169.892 244.604C170.335 242.539 172.012 241.494 173.726 240.508C174.53 240.048 173.805 238.803 172.999 239.265Z" fill="#BA6450"/>
<path d="M167.18 236.126C166.058 236.597 164.935 237.078 164.003 237.878C163.012 238.728 162.467 239.918 162.268 241.193C162.049 242.592 162.068 244.028 162.043 245.44C162.016 247.044 162.018 248.649 162.045 250.252C162.06 251.179 163.5 251.181 163.484 250.252C163.44 247.596 163.389 244.902 163.587 242.25C163.671 241.131 163.914 239.992 164.727 239.168C165.501 238.384 166.564 237.933 167.563 237.513C168.404 237.162 168.034 235.767 167.18 236.126Z" fill="#BA6450"/>
<path d="M169.582 231.126C169.472 230.726 169.079 230.551 168.697 230.623C165.997 231.134 163.381 231.96 160.866 233.063C160.51 233.218 160.428 233.739 160.608 234.048C160.822 234.415 161.235 234.463 161.593 234.306C163.99 233.256 166.509 232.496 169.079 232.013C169.461 231.94 169.678 231.48 169.582 231.126Z" fill="#BA6450"/>
<path d="M109.582 199.302H87.8866C85.3154 199.302 82.7135 197.216 82.0775 194.643L69.4031 143.388C68.7671 140.816 70.3363 138.73 72.9074 138.73H94.6028C97.174 138.73 99.7759 140.816 100.412 143.388L113.086 194.643C113.722 197.216 112.153 199.302 109.582 199.302Z" fill="#00072D"/>
<path d="M91.717 146.052C92.1044 147.62 93.6894 148.892 95.2558 148.892C96.8221 148.892 97.7785 147.621 97.3911 146.052C97.0037 144.483 95.4187 143.213 93.8524 143.213C92.2851 143.213 91.3296 144.483 91.717 146.052Z" fill="white"/>
<path d="M85.5662 146.053C85.8372 147.15 86.9454 148.039 88.0424 148.039C89.1385 148.039 89.8081 147.15 89.5352 146.053C89.2651 144.957 88.156 144.066 87.059 144.066C85.962 144.066 85.2952 144.955 85.5662 146.053Z" fill="white"/>
<path d="M100.217 199.304C99.9296 201.537 99.3103 203.727 98.2161 205.773C92.9899 209.691 85.3304 210.743 78.996 209.144C73.971 200.356 67.8667 190.703 66.0098 182.303C70.4295 182.116 74.8781 182.375 79.2261 183.124L82.0766 194.636C82.7108 197.215 85.3164 199.304 87.8932 199.304H100.217Z" fill="#D47F6C"/>
<path d="M92.9153 179.289C91.8835 178.81 90.7427 179.003 89.6773 179.251C88.2795 179.576 86.8845 179.921 85.4876 180.256C84.8386 180.411 84.1876 180.567 83.5385 180.723C84.1159 180.48 84.6914 180.236 85.2688 179.995C86.8696 179.322 88.4714 178.649 90.0722 177.976C91.2456 177.482 92.4739 176.998 93.3772 176.066C94.1548 175.265 94.6949 174.132 94.5077 172.997C94.3224 171.871 93.461 171.135 92.3109 171.232C90.8088 171.359 89.2583 171.895 87.8083 172.293C87.243 172.448 86.689 172.64 86.1256 172.808C86.6079 172.581 87.0885 172.349 87.5727 172.124C88.9342 171.49 90.4521 170.966 91.7093 170.137C92.648 169.518 93.3921 168.533 93.3213 167.355C93.2533 166.237 92.3267 165.441 91.2828 165.214C89.9018 164.916 88.3885 165.539 87.0754 165.897C85.5798 166.304 84.0871 166.723 82.6054 167.181C81.6695 167.47 80.7411 167.782 79.8182 168.109C81.2085 166.952 82.4844 165.622 84.0945 164.765C85.7242 163.897 87.4312 163.737 88.6064 162.164C89.5973 160.837 89.9111 159.111 89.4585 157.521C89.3495 157.138 88.9547 156.927 88.5729 157.018C84.846 157.907 81.2244 159.201 77.7806 160.882C76.15 161.679 74.4914 162.53 73.0024 163.573C71.4733 164.644 70.6351 166.018 69.878 167.694C68.2819 171.22 66.6373 174.822 65.9286 178.655C65.5906 180.486 65.7619 182.108 66.5376 183.805C67.2147 185.285 68.1906 186.645 69.3537 187.781C71.5226 189.895 75.6415 192.135 78.1066 189.516C80.6628 188.716 83.22 187.914 85.7791 187.115C88.1352 186.377 90.8582 185.724 92.8725 184.228C94.5422 182.983 95.1559 180.328 92.9153 179.289Z" fill="#D47F6C"/>
<path d="M81.791 188.302C81.696 187.954 81.2704 187.658 80.9063 187.798C78.7151 188.645 76.4615 189.315 74.165 189.803C73.785 189.883 73.5634 190.33 73.6621 190.689C73.7701 191.082 74.1669 191.274 74.5477 191.191C76.8442 190.703 79.0988 190.033 81.2891 189.188C81.6504 189.048 81.9018 188.703 81.791 188.302Z" fill="#BA6450"/>
<path d="M83.8319 179.836C80.4254 181.138 77.0087 182.416 73.5835 183.668C72.7202 183.983 73.0928 185.377 73.9672 185.057C77.3923 183.805 80.8082 182.527 84.2147 181.225C85.0714 180.898 84.6989 179.503 83.8319 179.836Z" fill="#BA6450"/>
<path d="M86.0682 172.346C83.6777 172.998 81.2332 173.557 78.8817 174.344C76.6058 175.106 74.5598 176.457 72.4952 177.653C71.6934 178.117 72.4179 179.364 73.2225 178.898C75.2443 177.726 77.2511 176.375 79.4908 175.66C81.7807 174.93 84.1331 174.37 86.4491 173.737C87.3431 173.491 86.965 172.099 86.0682 172.346Z" fill="#BA6450"/>
<path d="M80.5635 167.884C80.4704 167.541 80.0411 167.235 79.6779 167.381C76.574 168.627 72.8853 169.141 70.6522 171.892C70.4073 172.193 70.357 172.615 70.6522 172.911C70.9055 173.164 71.4242 173.214 71.6701 172.911C73.7346 170.368 77.1887 169.922 80.0606 168.769C80.4229 168.624 80.6762 168.289 80.5635 167.884Z" fill="#BA6450"/>
<path opacity="0.15" d="M252.902 344.688C252.888 344.198 252.859 343.694 252.844 343.204C252.442 334.718 251.707 326.29 250.656 317.862C250.599 317.401 250.541 316.925 250.484 316.464C250.023 312.833 249.519 309.217 248.957 305.601C241.485 311.219 233.379 316.003 224.87 319.893C214.994 324.417 204.57 327.717 193.916 329.747C183.521 331.736 172.867 332.557 162.314 331.981C152.394 331.433 142.488 329.633 133.144 326.218C125.974 323.596 119.15 319.965 113.146 315.254C113.146 315.499 113.16 315.758 113.16 316.003C113.175 316.493 113.189 316.983 113.204 317.487C113.434 325.944 114.025 334.416 114.989 342.815C115.061 343.319 115.119 343.809 115.177 344.299C115.896 350.321 116.817 356.314 117.955 362.236C133.331 371.284 151.861 372.782 169.685 373.517C184.14 374.108 198.696 374.324 213.007 372.235C227.333 370.146 241.212 365.694 253.176 357.539C253.176 353.232 253.089 348.953 252.902 344.688Z" fill="#522840"/>
</g>
</g>
<defs>
<clipPath id="clip0_974_36423">
<path d="M0 0H343V324C343 332.837 335.837 340 327 340H16C7.16345 340 0 332.837 0 324V0Z" fill="white"/>
</clipPath>
<clipPath id="clip1_974_36423">
<rect width="447" height="301" fill="white" transform="translate(-51.5742 39)"/>
</clipPath>
</defs>
</svg>
