<svg width="130" height="23" viewBox="0 0 130 23" fill="none" xmlns="http://www.w3.org/2000/svg">
<path d="M0 22.5916V1.50611H13.3441V5.66297H4.15685V9.21738H11.3259V13.3742H4.15685V18.4348H13.3441V22.5916H0ZM16.7248 22.5916L16.7098 7.53054H20.8666L20.8817 8.64506C21.3837 8.1631 21.9711 7.78658 22.6438 7.51548C23.3266 7.24438 24.0445 7.10883 24.7976 7.10883C25.3498 7.10883 25.902 7.18912 26.4543 7.34981L24.8126 11.5518C24.4512 11.4012 24.0847 11.3259 23.7132 11.3259C23.191 11.3259 22.7142 11.4514 22.2824 11.7025C21.8506 11.9535 21.5093 12.2948 21.2582 12.7266C21.0072 13.1483 20.8817 13.6253 20.8817 14.1574V22.5916H16.7248ZM28.228 22.5916L28.2129 7.53054H32.37L32.385 8.64506C32.8868 8.1631 33.4742 7.78658 34.1472 7.51548C34.8296 7.24438 35.5479 7.10883 36.3009 7.10883C36.8525 7.10883 37.4051 7.18912 37.9576 7.34981L36.316 11.5518C35.9545 11.4012 35.5874 11.3259 35.2165 11.3259C34.6941 11.3259 34.2168 11.4514 33.7857 11.7025C33.3537 11.9535 33.012 12.2948 32.7616 12.7266C32.5102 13.1483 32.385 13.6253 32.385 14.1574V22.5916H28.228ZM50.0065 7.53054H54.1633V22.5916H49.9914L49.7956 21.0253C49.404 21.6077 48.9014 22.0795 48.2895 22.441C47.6767 22.8025 46.9585 22.9832 46.1358 22.9832C45.0109 22.9832 43.9614 22.7723 42.988 22.3506C42.0138 21.9289 41.1553 21.3465 40.4126 20.6036C39.669 19.8606 39.0872 19.0021 38.6655 18.0281C38.2532 17.0442 38.048 15.9899 38.048 14.8653C38.048 13.791 38.2438 12.7869 38.6354 11.8531C39.027 10.9193 39.5786 10.0959 40.2921 9.38305C41.0047 8.67019 41.8227 8.11293 42.7471 7.71127C43.6808 7.30961 44.6843 7.10883 45.7593 7.10883C46.6827 7.10883 47.5111 7.30462 48.2443 7.69621C48.987 8.0878 49.6347 8.58481 50.1872 9.18726L50.0065 7.53054ZM46.0304 18.992C46.7128 18.992 47.3303 18.8163 47.8829 18.4649C48.4345 18.1135 48.8713 17.6415 49.1932 17.0491C49.5142 16.4467 49.6752 15.784 49.6752 15.0611C49.6752 14.3281 49.5142 13.6654 49.1932 13.073C48.8713 12.4806 48.4345 12.0087 47.8829 11.6573C47.3303 11.3059 46.7128 11.1301 46.0304 11.1301C45.3376 11.1301 44.7097 11.3059 44.1477 11.6573C43.5848 12.0087 43.1387 12.4856 42.8073 13.0881C42.476 13.6804 42.3103 14.3381 42.3103 15.0611C42.3103 15.784 42.476 16.4467 42.8073 17.0491C43.1481 17.6415 43.5999 18.1135 44.1628 18.4649C44.7248 18.8163 45.347 18.992 46.0304 18.992ZM71.2416 13.0128V22.5916H67.0848V14.1574C67.0848 13.6253 66.9539 13.1483 66.6932 12.7266C66.4419 12.2948 66.1002 11.9535 65.6691 11.7025C65.2473 11.4514 64.7748 11.3259 64.2533 11.3259C63.7309 11.3259 63.2536 11.4514 62.8225 11.7025C62.3904 11.9535 62.0488 12.2948 61.7984 12.7266C61.547 13.1483 61.4218 13.6253 61.4218 14.1574V22.5916H57.265L57.2499 7.53054H61.4068L61.4218 8.64506C61.9236 8.1631 62.5109 7.78658 63.184 7.51548C63.8664 7.24438 64.5847 7.10883 65.3377 7.10883C66.4315 7.10883 67.4208 7.37494 68.3047 7.90706C69.1981 8.43919 69.9106 9.15215 70.4434 10.0457C70.9753 10.9294 71.2416 11.9183 71.2416 13.0128ZM85.0875 0H89.2453V22.5916H85.0875V20.9951C84.6262 21.5775 84.0539 22.0544 83.3715 22.4259C82.6881 22.7975 81.9105 22.9832 81.037 22.9832C79.9422 22.9832 78.9181 22.7773 77.9645 22.3657C77.01 21.9541 76.1666 21.3867 75.4333 20.6638C74.7104 19.9308 74.1437 19.0874 73.7314 18.1335C73.3201 17.1797 73.1139 16.1555 73.1139 15.0611C73.1139 13.9666 73.3201 12.9425 73.7314 11.9886C74.1437 11.0348 74.7104 10.1963 75.4333 9.47342C76.1666 8.74041 77.01 8.16809 77.9645 7.75645C78.9181 7.34482 79.9422 7.13895 81.037 7.13895C81.9105 7.13895 82.6881 7.32467 83.3715 7.69621C84.0539 8.05768 84.6262 8.53464 85.0875 9.12701V0ZM81.0972 18.992C81.7797 18.992 82.3972 18.8163 82.9497 18.4649C83.5014 18.1135 83.9381 17.6415 84.2591 17.0491C84.581 16.4467 84.7411 15.784 84.7411 15.0611C84.7411 14.3281 84.581 13.6654 84.2591 13.073C83.9381 12.4806 83.5014 12.0087 82.9497 11.6573C82.3972 11.3059 81.7797 11.1301 81.0972 11.1301C80.4044 11.1301 79.7766 11.3059 79.2146 11.6573C78.6517 12.0087 78.2046 12.4856 77.8732 13.0881C77.5428 13.6804 77.3772 14.3381 77.3772 15.0611C77.3772 15.784 77.5428 16.4467 77.8732 17.0491C78.2149 17.6415 78.6668 18.1135 79.2297 18.4649C79.7916 18.8163 80.4138 18.992 81.0972 18.992Z" fill="#F2D5F8"/>
<path d="M102.432 22.9832C100.966 22.9832 99.6008 22.6971 98.3357 22.1247C97.08 21.5524 95.9805 20.7642 95.0373 19.7601C94.1036 18.7461 93.375 17.5763 92.8535 16.2509C92.3311 14.9255 92.0703 13.5148 92.0703 12.0188C92.0703 10.4122 92.3565 8.94629 92.9288 7.62092C93.5011 6.29554 94.2786 5.1509 95.2633 4.18699C96.2469 3.21301 97.3615 2.46504 98.6068 1.94289C99.8616 1.41076 101.167 1.14465 102.523 1.14465C104.008 1.14465 105.464 1.49106 106.89 2.18387C108.316 2.87668 109.591 3.97614 110.716 5.48224L107.011 7.47031C106.368 6.72732 105.65 6.17505 104.857 5.81359C104.074 5.45212 103.276 5.27139 102.462 5.27139C101.649 5.27139 100.866 5.43706 100.113 5.7684C99.3693 6.09975 98.7066 6.57163 98.1249 7.18415C97.5422 7.79666 97.08 8.51959 96.7392 9.35294C96.3976 10.1863 96.2272 11.105 96.2272 12.1091C96.2272 13.0429 96.3872 13.9164 96.7091 14.7297C97.0405 15.543 97.4923 16.2559 98.0646 16.8684C98.6369 17.4809 99.2996 17.9629 100.053 18.3143C100.815 18.6557 101.628 18.8264 102.493 18.8264C103.024 18.8264 103.547 18.7511 104.059 18.6004C104.58 18.4398 105.077 18.2089 105.55 17.9076C106.022 17.6064 106.454 17.2299 106.845 16.7781C107.246 16.3262 107.598 15.8041 107.899 15.2117H104.631V11.597H112.794C112.855 13.1533 112.629 14.6193 112.117 15.9949C111.605 17.3704 110.871 18.5854 109.918 19.6397C108.963 20.6839 107.849 21.5022 106.574 22.0946C105.299 22.687 103.918 22.9832 102.432 22.9832ZM121.951 22.9832C120.566 22.9832 119.301 22.6267 118.156 21.9139C117.021 21.201 116.112 20.2471 115.43 19.0523C114.757 17.8474 114.421 16.517 114.421 15.0611C114.421 13.9566 114.617 12.9274 115.008 11.9736C115.4 11.0097 115.936 10.1662 116.62 9.44331C117.313 8.7103 118.116 8.13798 119.03 7.72634C119.943 7.31471 120.917 7.10884 121.951 7.10884C123.337 7.10884 124.597 7.46532 125.732 8.17818C126.876 8.89104 127.785 9.84996 128.458 11.0548C129.14 12.2597 129.482 13.5952 129.482 15.0611C129.482 16.1556 129.286 17.1797 128.895 18.1335C128.503 19.0874 127.961 19.9308 127.268 20.6638C126.585 21.3867 125.786 21.9541 124.873 22.3657C123.97 22.7773 122.995 22.9832 121.951 22.9832ZM121.951 18.8264C122.593 18.8264 123.171 18.6557 123.683 18.3143C124.196 17.9629 124.597 17.501 124.888 16.9287C125.179 16.3563 125.325 15.7338 125.325 15.0611C125.325 14.3683 125.169 13.7357 124.858 13.1634C124.557 12.581 124.15 12.1192 123.638 11.7778C123.126 11.4364 122.563 11.2657 121.951 11.2657C121.319 11.2657 120.747 11.4414 120.234 11.7928C119.722 12.1442 119.316 12.6061 119.015 13.1785C118.723 13.7508 118.578 14.3784 118.578 15.0611C118.578 15.7739 118.728 16.4166 119.03 16.9889C119.34 17.5512 119.753 17.998 120.265 18.3293C120.777 18.6607 121.339 18.8264 121.951 18.8264Z" fill="#B9FFB7"/>
</svg>
