<svg width="114" height="21" viewBox="0 0 114 21" fill="none" xmlns="http://www.w3.org/2000/svg">
<path d="M0 19.8618V1.32412H11.7317V4.97868H3.65456V8.1036H9.95737V11.7582H3.65456V16.2072H11.7317V19.8618H0ZM14.7039 19.8618L14.6907 6.62059H18.3452L18.3585 7.60044C18.7998 7.17672 19.3162 6.84569 19.9077 6.60735C20.5079 6.36901 21.1391 6.24984 21.8012 6.24984C22.2867 6.24984 22.7722 6.32043 23.2577 6.4617L21.8144 10.156C21.4966 10.0236 21.1745 9.95737 20.8478 9.95737C20.3888 9.95737 19.9695 10.0677 19.5899 10.2884C19.2103 10.5091 18.9102 10.8092 18.6895 11.1888C18.4688 11.5596 18.3585 11.9789 18.3585 12.4467V19.8618H14.7039ZM24.8171 19.8618L24.8039 6.62059H28.4586L28.4718 7.60044C28.9129 7.17672 29.4293 6.84569 30.021 6.60735C30.621 6.36901 31.2525 6.24984 31.9145 6.24984C32.3995 6.24984 32.8853 6.32043 33.3711 6.4617L31.9278 10.156C31.61 10.0236 31.2872 9.95737 30.9612 9.95737C30.5019 9.95737 30.0823 10.0677 29.7033 10.2884C29.3234 10.5091 29.023 10.8092 28.8029 11.1888C28.5819 11.5596 28.4718 11.9789 28.4718 12.4467V19.8618H24.8171ZM43.964 6.62059H47.6186V19.8618H43.9508L43.7786 18.4847C43.4344 18.9967 42.9924 19.4116 42.4545 19.7294C41.9158 20.0471 41.2843 20.206 40.561 20.206C39.5721 20.206 38.6493 20.0207 37.7936 19.6499C36.9371 19.2792 36.1823 18.7671 35.5294 18.1139C34.8756 17.4607 34.3642 16.706 33.9934 15.8497C33.6309 14.9846 33.4505 14.0577 33.4505 13.069C33.4505 12.1245 33.6226 11.2418 33.9669 10.4208C34.3112 9.59986 34.7961 8.87598 35.4234 8.24926C36.0499 7.62253 36.7691 7.13261 37.5818 6.77948C38.4027 6.42636 39.2849 6.24984 40.23 6.24984C41.0418 6.24984 41.7701 6.42197 42.4148 6.76624C43.0677 7.11051 43.6371 7.54747 44.1229 8.07712L43.964 6.62059ZM40.4683 16.6971C41.0683 16.6971 41.6112 16.5426 42.097 16.2337C42.582 15.9248 42.9659 15.5098 43.249 14.989C43.5312 14.4594 43.6727 13.8768 43.6727 13.2412C43.6727 12.5967 43.5312 12.0141 43.249 11.4933C42.9659 10.9726 42.582 10.5576 42.097 10.2487C41.6112 9.93974 41.0683 9.78523 40.4683 9.78523C39.8592 9.78523 39.3072 9.93974 38.8132 10.2487C38.3183 10.5576 37.926 10.9769 37.6347 11.5066C37.3434 12.0274 37.1978 12.6056 37.1978 13.2412C37.1978 13.8768 37.3434 14.4594 37.6347 14.989C37.9343 15.5098 38.3315 15.9248 38.8264 16.2337C39.3205 16.5426 39.8675 16.6971 40.4683 16.6971ZM62.6332 11.4404V19.8618H58.9787V12.4467C58.9787 11.9789 58.8636 11.5596 58.6344 11.1888C58.4134 10.8092 58.113 10.5091 57.734 10.2884C57.3632 10.0677 56.9478 9.95737 56.4893 9.95737C56.03 9.95737 55.6104 10.0677 55.2314 10.2884C54.8515 10.5091 54.5511 10.8092 54.331 11.1888C54.11 11.5596 54 11.9789 54 12.4467V19.8618H50.3454L50.3322 6.62059H53.9867L54 7.60044C54.4411 7.17672 54.9575 6.84569 55.5492 6.60735C56.1492 6.36901 56.7806 6.24984 57.4427 6.24984C58.4043 6.24984 59.2741 6.48379 60.0512 6.95162C60.8366 7.41945 61.463 8.04625 61.9314 8.83187C62.399 9.60871 62.6332 10.4782 62.6332 11.4404ZM74.806 0H78.4614V19.8618H74.806V18.4582C74.4005 18.9702 73.8973 19.3895 73.2973 19.7161C72.6965 20.0428 72.0129 20.206 71.2449 20.206C70.2825 20.206 69.3821 20.025 68.5437 19.6632C67.7046 19.3013 66.9631 18.8025 66.3184 18.1669C65.6828 17.5225 65.1846 16.781 64.8222 15.9424C64.4605 15.1038 64.2793 14.2034 64.2793 13.2412C64.2793 12.279 64.4605 11.3786 64.8222 10.54C65.1846 9.7014 65.6828 8.96428 66.3184 8.3287C66.9631 7.68427 67.7046 7.18111 68.5437 6.81921C69.3821 6.45731 70.2825 6.27632 71.2449 6.27632C72.0129 6.27632 72.6965 6.4396 73.2973 6.76624C73.8973 7.08403 74.4005 7.50336 74.806 8.02415V0ZM71.2979 16.6971C71.8979 16.6971 72.4408 16.5426 72.9266 16.2337C73.4115 15.9248 73.7955 15.5098 74.0777 14.989C74.3608 14.4594 74.5014 13.8768 74.5014 13.2412C74.5014 12.5967 74.3608 12.0141 74.0777 11.4933C73.7955 10.9726 73.4115 10.5576 72.9266 10.2487C72.4408 9.93974 71.8979 9.78523 71.2979 9.78523C70.6888 9.78523 70.1368 9.93974 69.6428 10.2487C69.1479 10.5576 68.7548 10.9769 68.4635 11.5066C68.173 12.0274 68.0273 12.6056 68.0273 13.2412C68.0273 13.8768 68.173 14.4594 68.4635 14.989C68.7639 15.5098 69.1611 15.9248 69.656 16.2337C70.1501 16.5426 70.6971 16.6971 71.2979 16.6971Z" fill="#00072D"/>
<path d="M90.0533 20.2061C88.7639 20.2061 87.5639 19.9545 86.4517 19.4514C85.3477 18.9482 84.3811 18.2553 83.5519 17.3725C82.7309 16.481 82.0904 15.4525 81.6319 14.2873C81.1726 13.1221 80.9434 11.8818 80.9434 10.5665C80.9434 9.15412 81.1949 7.86534 81.6981 6.70012C82.2013 5.53489 82.8848 4.52856 83.7505 3.68113C84.6153 2.82484 85.5951 2.16725 86.69 1.70819C87.7932 1.24036 88.941 1.00641 90.1327 1.00641C91.4386 1.00641 92.7189 1.31096 93.9727 1.92005C95.2256 2.52914 96.347 3.49575 97.3359 4.81987L94.0786 6.56771C93.5134 5.9145 92.8819 5.42896 92.1851 5.11118C91.4966 4.79339 90.7948 4.63449 90.0798 4.63449C89.3648 4.63449 88.6762 4.78015 88.0141 5.07145C87.3604 5.36276 86.7778 5.77762 86.2663 6.31612C85.754 6.85462 85.3477 7.4902 85.0481 8.22285C84.7477 8.9555 84.5979 9.76322 84.5979 10.646C84.5979 11.4669 84.7386 12.2349 85.0216 12.95C85.313 13.665 85.7102 14.2917 86.2134 14.8302C86.7165 15.3687 87.2991 15.7924 87.9612 16.1014C88.6315 16.4015 89.3465 16.5516 90.1063 16.5516C90.5738 16.5516 91.0331 16.4853 91.4833 16.3529C91.9418 16.2117 92.3788 16.0087 92.7942 15.7438C93.2088 15.479 93.5887 15.148 93.9329 14.7508C94.2855 14.3535 94.595 13.8945 94.8598 13.3737H91.9865V10.1958H99.1632C99.2162 11.564 99.0176 12.8529 98.5674 14.0622C98.1172 15.2715 97.4725 16.3397 96.6342 17.2666C95.795 18.1846 94.8151 18.9041 93.6946 19.4249C92.5732 19.9457 91.3592 20.2061 90.0533 20.2061ZM107.214 20.2061C105.996 20.2061 104.883 19.8927 103.877 19.266C102.879 18.6393 102.08 17.8006 101.48 16.7502C100.889 15.6909 100.593 14.5213 100.593 13.2413C100.593 12.2703 100.765 11.3654 101.11 10.5268C101.454 9.67938 101.926 8.93788 102.526 8.3023C103.136 7.65787 103.841 7.1547 104.645 6.79281C105.448 6.43091 106.304 6.24992 107.214 6.24992C108.432 6.24992 109.539 6.56332 110.537 7.19004C111.544 7.81676 112.342 8.65981 112.934 9.71911C113.534 10.7784 113.834 11.9525 113.834 13.2413C113.834 14.2035 113.662 15.1039 113.318 15.9425C112.974 16.781 112.497 17.5225 111.888 18.167C111.287 18.8026 110.585 19.3013 109.783 19.6632C108.988 20.0251 108.132 20.2061 107.214 20.2061ZM107.214 16.5516C107.778 16.5516 108.286 16.4015 108.737 16.1014C109.187 15.7924 109.539 15.3863 109.796 14.8832C110.052 14.38 110.18 13.8327 110.18 13.2413C110.18 12.6322 110.042 12.076 109.769 11.5729C109.505 11.0609 109.147 10.6548 108.697 10.3547C108.247 10.0545 107.752 9.90448 107.214 9.90448C106.658 9.90448 106.155 10.059 105.704 10.3679C105.254 10.6769 104.897 11.0829 104.632 11.5861C104.375 12.0893 104.248 12.641 104.248 13.2413C104.248 13.868 104.38 14.433 104.645 14.9361C104.918 15.4304 105.281 15.8233 105.731 16.1146C106.181 16.4059 106.675 16.5516 107.214 16.5516Z" fill="#7D32DF"/>
</svg>
