<svg width="38" height="34" viewBox="0 0 38 34" fill="none" xmlns="http://www.w3.org/2000/svg">
<path d="M20.6121 1.22536C24.6893 -1.00991 29.8595 -0.0160762 33.341 2.82368C35.0603 4.29039 36.2711 6.28936 36.9711 8.42276C37.0181 8.55346 37.065 8.68422 37.1134 8.81888C37.4549 9.92097 37.4957 10.9892 37.5017 12.1402C37.5029 12.2895 37.504 12.4389 37.5052 12.5926C37.4716 16.223 35.6792 19.2583 33.8639 22.2785C33.7531 22.4648 33.642 22.651 33.5313 22.8373C32.1819 25.0919 30.686 27.2592 29.1647 29.4006C29.0299 29.5903 28.8951 29.7805 28.7609 29.9707C28.3183 30.5977 27.8685 31.219 27.4093 31.834C27.3493 31.9149 27.2892 31.9958 27.2274 32.0792C27.0573 32.3063 26.8835 32.5298 26.7073 32.7522C26.6576 32.819 26.6077 32.8857 26.5565 32.9545C26.4094 33.1341 26.4094 33.1343 26.0949 33.3865C25.6878 33.4257 25.6872 33.426 25.2577 33.2674C24.9456 32.9855 24.7105 32.6597 24.4663 32.3188C24.3943 32.2223 24.322 32.1259 24.2478 32.0263C24.0243 31.7251 23.8043 31.4214 23.5847 31.1173C23.4532 30.9382 23.3217 30.7591 23.19 30.5802C22.7987 30.0461 22.4137 29.5071 22.0307 28.9671C21.9617 28.8701 21.8926 28.7732 21.8214 28.6732C21.0615 27.6037 20.3133 26.5273 19.5959 25.4287C19.5115 25.3003 19.5113 25.3002 19.4253 25.1693C19.0432 24.5771 19.1238 24.5457 18.9447 24.3399C18.8253 24.307 18.8448 24.3117 18.7432 24.3131C17.8094 24.325 16.875 24.334 15.9412 24.3399C15.4612 24.343 14.9813 24.3472 14.5014 24.354C14.038 24.3604 13.5745 24.3637 13.1109 24.3652C12.9343 24.3663 12.7576 24.369 12.581 24.3723C12.3331 24.3766 12.0853 24.3768 11.8375 24.3765C11.6264 24.3785 11.626 24.3787 11.4104 24.3807C10.9196 24.2869 10.7425 24.0995 10.4372 23.7119C10.37 23.2864 10.37 23.286 10.4372 22.8754C10.6603 22.593 10.8344 22.4385 11.1546 22.2785C11.3361 22.2675 11.5182 22.2635 11.7 22.2637C11.815 22.2636 11.9305 22.2638 12.0489 22.2637C12.1754 22.2641 12.302 22.264 12.4323 22.2644C12.6316 22.2644 12.632 22.2644 12.8354 22.2644C13.2763 22.2645 13.7173 22.2656 14.1582 22.2665C14.4633 22.2667 14.7685 22.2671 15.0736 22.2672C15.7957 22.2677 16.5179 22.2682 17.24 22.2693C18.062 22.2707 18.8845 22.2716 19.7065 22.2721C21.3977 22.2734 23.0888 22.2758 24.7799 22.2785C24.7368 22.221 24.6939 22.163 24.6496 22.1037C24.5941 22.0284 24.5382 21.9531 24.4811 21.8754C24.4257 21.8006 24.3704 21.7255 24.3133 21.6485C24.1826 21.4423 24.2036 21.4997 24.0244 21.2609C23.9348 21.1415 24.024 21.261 23.9046 21.1418C23.6656 20.9029 23.4194 20.7873 23.1442 20.6132C21.9639 19.902 20.8053 19.7519 19.445 19.7527C19.3326 19.7523 19.2198 19.7525 19.104 19.752C18.8613 19.7512 18.6187 19.7504 18.376 19.7499C17.9918 19.7491 17.6072 19.7472 17.223 19.745C16.1309 19.7387 15.0382 19.7327 13.946 19.7309C13.2772 19.7297 12.6085 19.726 11.9396 19.7211C11.6849 19.7195 11.4299 19.7194 11.1751 19.7196C10.8194 19.7199 10.4637 19.7173 10.1081 19.714C10.0027 19.7148 9.89738 19.7153 9.78884 19.7161C9.07513 19.7052 9.07499 19.7049 8.70212 19.4222C8.40256 19.0003 8.35342 18.7371 8.40545 18.2171C8.58095 17.9584 8.58088 17.9582 8.88325 17.7393C9.24891 17.6947 9.5709 17.6788 9.93613 17.6851C10.0421 17.685 10.1482 17.6852 10.2575 17.6851C10.6081 17.6854 10.9591 17.6891 11.3096 17.6928C11.5527 17.6937 11.796 17.6945 12.039 17.695C12.6787 17.6968 13.3183 17.7016 13.958 17.7069C14.611 17.7118 15.2643 17.7137 15.9172 17.7161C17.1981 17.7212 18.4792 17.7292 19.7601 17.7393C19.6302 17.5481 19.4993 17.3575 19.3683 17.1671C19.2955 17.0609 19.2226 16.9545 19.1477 16.845C18.3902 15.8335 17.1791 15.4127 15.9715 15.165C15.5101 15.1027 15.0568 15.0953 14.5923 15.0966C14.4963 15.0964 14.4002 15.0961 14.3012 15.0959C14.0937 15.0954 13.8858 15.0952 13.6782 15.0952C13.2369 15.0947 12.7954 15.092 12.3541 15.0895C11.5333 15.085 10.7125 15.0815 9.89175 15.0818C9.31977 15.0819 8.74758 15.0787 8.17567 15.074C7.95803 15.0728 7.74009 15.0732 7.52244 15.074C7.21819 15.0752 6.91395 15.0725 6.60978 15.0691C6.51989 15.0703 6.42967 15.0714 6.33705 15.0727C5.88494 15.0636 5.69432 15.0282 5.3617 14.7118C5.13761 14.3245 5.10344 14.1184 5.17847 13.6779C5.40148 13.4031 5.57942 13.2389 5.89518 13.0811C6.15639 13.0701 6.41811 13.0672 6.67955 13.0676C6.76001 13.0676 6.84048 13.0677 6.9234 13.0676C7.18976 13.0678 7.45619 13.0681 7.72255 13.0691C7.90708 13.0693 8.09189 13.0697 8.27649 13.0698C8.76252 13.0702 9.24855 13.0713 9.73457 13.0726C10.2304 13.0738 10.7264 13.0749 11.2222 13.0754C12.1955 13.0767 13.1694 13.0785 14.1427 13.0811C14.1416 12.9444 14.1402 12.8074 14.1391 12.6667C14.1383 12.4843 14.1378 12.3015 14.137 12.1191C14.1359 11.985 14.1354 11.9848 14.1342 11.8478C14.1234 8.53541 15.5339 5.58854 17.8179 3.24935C18.5865 2.48753 19.4188 1.90787 20.3577 1.37547C20.4416 1.3259 20.5256 1.27642 20.6121 1.22536ZM28.3022 6.68562C26.8898 5.9617 24.8106 5.96945 23.4007 6.69406C23.3008 6.75389 23.2039 6.81227 23.1069 6.87029C22.4793 7.21444 21.9743 7.6151 21.4782 8.13173C20.1619 9.66602 19.7667 11.2175 19.8799 13.2009C20.1051 14.6066 20.7682 16.097 21.9215 16.9754C21.9993 17.0322 22.075 17.0873 22.1506 17.1424C23.3386 18.1443 24.7482 18.5488 26.3035 18.4793C27.6478 18.3629 29.2284 17.7323 30.1436 16.6872C30.23 16.5577 30.3142 16.4316 30.398 16.3059C30.8421 15.6573 31.2801 15.0203 31.5263 14.2685C31.5488 14.1897 31.5714 14.1132 31.5932 14.0367C31.9022 13.0184 31.9146 11.9886 31.7645 10.9387C31.2771 9.33124 30.3381 7.97181 28.9223 7.0577C28.8145 6.99391 28.7097 6.93221 28.6052 6.87029C28.5023 6.80758 28.402 6.74646 28.3022 6.68562Z" fill="#7D32DF"/>
<path d="M1.89133 13.014C2.05935 13.012 2.05935 13.012 2.23075 13.01C2.74548 13.0155 3.06649 13.0355 3.51936 13.2944C3.75613 13.5733 3.82311 13.6772 3.81117 14.0367C3.8114 14.155 3.8114 14.155 3.81163 14.2756C3.7138 14.6208 3.53968 14.7645 3.26584 14.9923C2.81217 15.0889 2.35417 15.0643 1.89133 15.0595C1.76638 15.0623 1.64143 15.0652 1.51269 15.0681C0.601545 15.0663 0.601545 15.0663 0.196071 14.7118C0.00110538 14.3193 -0.0424041 14.1108 0.0387313 13.6784C0.549572 12.9577 1.07737 12.9933 1.89133 13.014Z" fill="#7D32DF"/>
<path d="M5.1786 17.6797C5.29785 17.6779 5.4171 17.676 5.53997 17.6741C6.40278 17.6787 6.40278 17.6787 6.81083 17.9522C6.97856 18.2289 7.03622 18.3743 7.03116 18.6949C7.03246 18.7738 7.03369 18.8526 7.03492 18.9338C6.93381 19.3143 6.82451 19.4286 6.49335 19.6505C6.05417 19.722 5.62263 19.7171 5.1786 19.7102C5.05935 19.7121 4.94009 19.7139 4.81723 19.7159C3.95443 19.7112 3.95443 19.7112 3.54637 19.4377C3.37867 19.1611 3.32099 19.0156 3.326 18.6949C3.32415 18.5767 3.32415 18.5767 3.32227 18.4561C3.56498 17.5428 4.40362 17.6677 5.1786 17.6797Z" fill="#7D32DF"/>
</svg>
