<svg width="43" height="38" viewBox="0 0 43 38" fill="none" xmlns="http://www.w3.org/2000/svg">
<path d="M23.4453 1.39377C28.0829 -1.14871 33.9636 -0.0182857 37.9237 3.21178C39.8793 4.88007 41.2565 7.15378 42.0527 9.58041C42.1061 9.72906 42.1595 9.8778 42.2145 10.031C42.603 11.2845 42.6494 12.4996 42.6562 13.8088C42.6576 13.9786 42.6589 14.1486 42.6603 14.3234C42.622 18.4528 40.5832 21.9052 38.5184 25.3405C38.3924 25.5524 38.266 25.7642 38.1401 25.9762C36.6053 28.5406 34.9037 31.0058 33.1734 33.4414C33.0201 33.6572 32.8667 33.8736 32.7141 34.0899C32.2106 34.8031 31.699 35.5098 31.1767 36.2093C31.1085 36.3014 31.0401 36.3934 30.9698 36.4883C30.7763 36.7465 30.5786 37.0008 30.3783 37.2538C30.3217 37.3297 30.265 37.4056 30.2067 37.4839C30.0393 37.6882 30.0393 37.6883 29.6817 37.9752C29.2186 38.0198 29.2179 38.0202 28.7294 37.8398C28.3744 37.5192 28.1069 37.1486 27.8292 36.7608C27.7473 36.651 27.6651 36.5413 27.5807 36.4281C27.3265 36.0854 27.0762 35.74 26.8264 35.3941C26.6769 35.1905 26.5273 34.9867 26.3775 34.7833C25.9324 34.1758 25.4946 33.5627 25.0589 32.9484C24.9804 32.838 24.9018 32.7278 24.8208 32.6141C23.9564 31.3977 23.1054 30.1733 22.2894 28.9237C22.1934 28.7777 22.1932 28.7775 22.0954 28.6287C21.6607 27.955 21.7524 27.9193 21.5487 27.6852C21.4129 27.6479 21.4351 27.6532 21.3195 27.6548C20.2573 27.6683 19.1945 27.6785 18.1324 27.6852C17.5864 27.6887 17.0406 27.6935 16.4947 27.7012C15.9676 27.7086 15.4404 27.7123 14.9132 27.714C14.7122 27.7152 14.5113 27.7184 14.3103 27.7221C14.0285 27.727 13.7466 27.7271 13.4646 27.7268C13.2245 27.7291 13.2241 27.7294 12.9789 27.7317C12.4206 27.625 12.2192 27.4118 11.8719 26.9709C11.7955 26.487 11.7955 26.4865 11.8719 26.0195C12.1257 25.6982 12.3237 25.5225 12.688 25.3405C12.8944 25.328 13.1015 25.3234 13.3084 25.3237C13.4391 25.3235 13.5704 25.3238 13.7051 25.3237C13.849 25.3242 13.993 25.324 14.1412 25.3245C14.368 25.3245 14.3684 25.3245 14.5998 25.3245C15.1013 25.3246 15.6028 25.3258 16.1043 25.3269C16.4514 25.3271 16.7985 25.3275 17.1456 25.3277C17.9669 25.3282 18.7884 25.3288 19.6097 25.3301C20.5447 25.3316 21.4802 25.3326 22.4152 25.3333C24.3388 25.3348 26.2624 25.3375 28.1859 25.3405C28.1369 25.2751 28.0881 25.2092 28.0377 25.1417C27.9745 25.056 27.911 24.9704 27.8461 24.882C27.783 24.797 27.7202 24.7115 27.6552 24.6239C27.5066 24.3893 27.5305 24.4547 27.3266 24.1831C27.2247 24.0472 27.3261 24.1832 27.1903 24.0475C26.9185 23.7758 26.6385 23.6443 26.3254 23.4464C24.9829 22.6374 23.6651 22.4667 22.1178 22.4676C21.9899 22.4671 21.8616 22.4673 21.7299 22.4668C21.4539 22.4658 21.1779 22.4649 20.9019 22.4644C20.4648 22.4634 20.0274 22.4613 19.5904 22.4588C18.3482 22.4517 17.1053 22.4449 15.863 22.4427C15.1023 22.4414 14.3416 22.4372 13.5809 22.4316C13.2911 22.4298 13.001 22.4297 12.7112 22.4299C12.3066 22.4303 11.9021 22.4273 11.4976 22.4235C11.3778 22.4244 11.2579 22.425 11.1345 22.4259C10.3227 22.4135 10.3225 22.4132 9.89838 22.0917C9.55765 21.6117 9.50175 21.3124 9.56093 20.721C9.76056 20.4266 9.76048 20.4264 10.1044 20.1775C10.5203 20.1267 10.8866 20.1086 11.302 20.1158C11.4226 20.1157 11.5432 20.1158 11.6675 20.1158C12.0663 20.1161 12.4655 20.1203 12.8643 20.1245C13.1407 20.1256 13.4174 20.1264 13.6939 20.127C14.4216 20.1291 15.1491 20.1346 15.8766 20.1406C16.6193 20.1461 17.3624 20.1483 18.1051 20.1511C19.5621 20.1569 21.0192 20.166 22.4762 20.1775C22.3285 19.96 22.1796 19.7432 22.0305 19.5266C21.9478 19.4057 21.8648 19.2848 21.7796 19.1602C20.918 18.0097 19.5404 17.531 18.1668 17.2493C17.642 17.1784 17.1264 17.17 16.5981 17.1715C16.4889 17.1713 16.3796 17.1709 16.267 17.1707C16.031 17.1701 15.7946 17.17 15.5584 17.1699C15.0564 17.1694 14.5543 17.1663 14.0523 17.1635C13.1187 17.1583 12.1851 17.1544 11.2515 17.1547C10.6009 17.1548 9.95009 17.1512 9.29958 17.1458C9.05202 17.1444 8.80413 17.1448 8.55656 17.1458C8.2105 17.1471 7.86444 17.1441 7.51847 17.1403C7.41622 17.1416 7.3136 17.1428 7.20825 17.1443C6.694 17.134 6.47719 17.0937 6.09884 16.7339C5.84396 16.2932 5.80509 16.0589 5.89043 15.5579C6.1441 15.2453 6.3465 15.0585 6.70565 14.8789C7.00276 14.8665 7.30046 14.8632 7.59783 14.8637C7.68935 14.8637 7.78087 14.8638 7.87519 14.8637C8.17816 14.8638 8.48121 14.8643 8.78418 14.8653C8.99407 14.8656 9.20428 14.866 9.41425 14.8661C9.96708 14.8666 10.5199 14.8679 11.0727 14.8693C11.6367 14.8707 12.2009 14.8719 12.7649 14.8725C13.8719 14.874 14.9796 14.8761 16.0867 14.8789C16.0855 14.7236 16.0839 14.5677 16.0827 14.4076C16.0817 14.2001 16.0812 13.9923 16.0803 13.7848C16.079 13.6322 16.0784 13.632 16.0771 13.4761C16.0648 9.70854 17.6692 6.35664 20.267 3.69595C21.1413 2.82942 22.088 2.17009 23.1559 1.56451C23.2514 1.50814 23.3469 1.45185 23.4453 1.39377ZM32.1923 7.60451C30.5858 6.78109 28.2208 6.78991 26.6172 7.61411C26.5035 7.68216 26.3933 7.74856 26.283 7.81456C25.5692 8.20601 24.9947 8.66174 24.4304 9.24937C22.9332 10.9945 22.4837 12.7592 22.6125 15.0152C22.8686 16.6142 23.6228 18.3094 24.9347 19.3086C25.0232 19.3732 25.1093 19.4358 25.1952 19.4985C26.5465 20.6381 28.1499 21.0982 29.9189 21.0192C31.448 20.8868 33.2458 20.1694 34.2868 18.9807C34.3851 18.8335 34.4808 18.69 34.5762 18.5471C35.0813 17.8092 35.5795 17.0848 35.8595 16.2296C35.8852 16.14 35.9108 16.053 35.9357 15.9659C36.2872 14.8077 36.3012 13.6364 36.1305 12.4422C35.5762 10.6138 34.508 9.06747 32.8977 8.02773C32.7751 7.95517 32.6559 7.88498 32.537 7.81456C32.42 7.74323 32.3058 7.6737 32.1923 7.60451Z" fill="#B9FFB7"/>
<path d="M2.15128 14.8026C2.34239 14.8004 2.34239 14.8004 2.53735 14.7981C3.12283 14.8043 3.48795 14.8271 4.00307 15.1216C4.27238 15.4388 4.34857 15.557 4.33498 15.9659C4.33524 16.1004 4.33524 16.1004 4.33551 16.2376C4.22423 16.6303 4.02618 16.7937 3.7147 17.0528C3.19868 17.1627 2.67773 17.1347 2.15128 17.1292C2.00915 17.1324 1.86703 17.1357 1.72059 17.1391C0.684223 17.137 0.684223 17.137 0.223019 16.7338C0.00125731 16.2873 -0.0482322 16.0502 0.0440546 15.5583C0.625106 14.7386 1.22545 14.779 2.15128 14.8026Z" fill="#B9FFB7"/>
<path d="M5.89077 20.1096C6.02641 20.1075 6.16205 20.1054 6.30181 20.1033C7.2832 20.1085 7.2832 20.1085 7.74734 20.4195C7.93812 20.7343 8.0037 20.8997 7.99795 21.2644C7.99943 21.3541 8.00083 21.4438 8.00222 21.5361C7.88722 21.9689 7.7629 22.0989 7.38622 22.3513C6.88668 22.4326 6.39583 22.427 5.89077 22.4193C5.75513 22.4214 5.61948 22.4234 5.47973 22.4257C4.49834 22.4204 4.49834 22.4204 4.0342 22.1093C3.84345 21.7946 3.77784 21.6292 3.78354 21.2644C3.78144 21.1299 3.78144 21.1299 3.7793 20.9927C4.05537 19.954 5.00928 20.096 5.89077 20.1096Z" fill="#B9FFB7"/>
</svg>
